SplineFontDB: 3.0
FontName: Migu-2M-regular
FullName: Migu 2M regular
FamilyName: Migu 2M
Weight: Book
Copyright: M+ TESTFLIGHT 040: Copyright(c) 2011 M+ FONTS PROJECT\nIPA Gothic Ver.003.03: Copyright(c) Information-technology Promotion Agency, Japan (IPA), 2003-2011. You must accept "http://ipafont.ipa.go.jp/ipa_font_license_v1.html" to use this product.
Version: 20110610
ItalicAngle: 0
UnderlinePosition: -100
UnderlineWidth: 50
Ascent: 860
Descent: 140
sfntRevision: 0xdd120000
LayerCount: 2
Layer: 0 1 "Arri+AOgA-re"  1
Layer: 1 1 "Avant"  0
NeedsXUIDChange: 1
XUID: [1021 243 1574659762 9949932]
FSType: 0
OS2Version: 1
OS2_WeightWidthSlopeOnly: 0
OS2_UseTypoMetrics: 1
CreationTime: 1307662206
ModificationTime: 1314045756
PfmFamily: 17
TTFWeight: 400
TTFWidth: 5
LineGap: 0
VLineGap: 0
Panose: 2 11 5 9 2 2 3 2 2 7
OS2TypoAscent: 0
OS2TypoAOffset: 1
OS2TypoDescent: 0
OS2TypoDOffset: 1
OS2TypoLinegap: 0
OS2WinAscent: -195
OS2WinAOffset: 1
OS2WinDescent: -90
OS2WinDOffset: 1
HheadAscent: -195
HheadAOffset: 1
HheadDescent: 90
HheadDOffset: 1
OS2SubXSize: 650
OS2SubYSize: 699
OS2SubXOff: 0
OS2SubYOff: 140
OS2SupXSize: 650
OS2SupYSize: 699
OS2SupXOff: 0
OS2SupYOff: 479
OS2StrikeYSize: 49
OS2StrikeYPos: 258
OS2FamilyClass: 2057
OS2Vendor: 'Mig '
OS2CodePages: 6012019f.dfd70000
OS2UnicodeRanges: e00002ff.7ac7fdfb.00000012.00000000
Lookup: 1 0 0 "'vert' Formes verticales alternatives (CJK) lookups0"  {"sous-table 'vert' Formes verticales alternatives (CJK) lookups0"  } ['vert' ('cyrl' <'dflt' > 'grek' <'dflt' > 'hani' <'dflt' > 'kana' <'JAN ' 'dflt' > 'latn' <'dflt' > ) ]
Lookup: 1 0 0 "'vert' Formes verticales alternatives (CJK) lookups1"  {"sous-table 'vert' Formes verticales alternatives (CJK) lookups1"  } ['vert' ('hani' <'dflt' > 'kana' <'JAN ' 'dflt' > 'latn' <'dflt' > ) ]

StartChar: .notdef
Encoding: 1114112 -1 0
Width: 1000
GlyphClass: 2
Flags: HW
LayerCount: 2
Fore
SplineSet
814 -48 m 1,0,-1
 501 338 l 1,1,-1
 187 -48 l 1,2,-1
 814 -48 l 1,0,-1
467 379 m 1,3,-1
 152 768 l 1,4,-1
 152 -9 l 1,5,-1
 467 379 l 1,3,-1
848 -8 m 1,6,-1
 848 766 l 1,7,-1
 534 379 l 1,8,-1
 848 -8 l 1,6,-1
815 808 m 1,9,-1
 186 808 l 1,10,-1
 501 421 l 1,11,-1
 815 808 l 1,9,-1
900 -100 m 1,12,-1
 100 -100 l 1,13,-1
 100 860 l 1,14,-1
 900 860 l 1,15,-1
 900 -100 l 1,12,-1
EndSplineSet
EndChar

StartChar: exclam
Encoding: 33 33 4
Width: 500
GlyphClass: 2
Flags: HW
LayerCount: 2
Fore
SplineSet
200 730 m 1,0,-1
 300 730 l 1,1,-1
 290 215 l 1,2,-1
 210 215 l 1,3,-1
 200 730 l 1,0,-1
195 0 m 1,4,-1
 195 130 l 1,5,-1
 305 130 l 1,6,-1
 305 0 l 1,7,-1
 195 0 l 1,4,-1
EndSplineSet
EndChar

StartChar: quotedbl
Encoding: 34 34 5
Width: 500
GlyphClass: 2
Flags: HW
LayerCount: 2
Fore
SplineSet
275 780 m 1,0,-1
 375 780 l 1,1,-1
 355 500 l 1,2,-1
 295 500 l 1,3,-1
 275 780 l 1,0,-1
125 780 m 1,4,-1
 225 780 l 1,5,-1
 205 500 l 1,6,-1
 145 500 l 1,7,-1
 125 780 l 1,4,-1
EndSplineSet
EndChar

StartChar: numbersign
Encoding: 35 35 6
Width: 500
GlyphClass: 2
Flags: HW
LayerCount: 2
Fore
SplineSet
40 188 m 1,0,-1
 40 260 l 1,1,-1
 117 260 l 1,2,-1
 146 488 l 1,3,-1
 75 488 l 1,4,-1
 75 560 l 1,5,-1
 155 560 l 1,6,-1
 176 730 l 1,7,-1
 258 730 l 1,8,-1
 237 560 l 1,9,-1
 313 560 l 1,10,-1
 334 730 l 1,11,-1
 416 730 l 1,12,-1
 395 560 l 1,13,-1
 460 560 l 1,14,-1
 460 488 l 1,15,-1
 386 488 l 1,16,-1
 357 260 l 1,17,-1
 425 260 l 1,18,-1
 425 188 l 1,19,-1
 348 188 l 1,20,-1
 325 0 l 1,21,-1
 243 0 l 1,22,-1
 266 188 l 1,23,-1
 190 188 l 1,24,-1
 167 0 l 1,25,-1
 85 0 l 1,26,-1
 108 188 l 1,27,-1
 40 188 l 1,0,-1
199 260 m 1,28,-1
 275 260 l 1,29,-1
 304 488 l 1,30,-1
 228 488 l 1,31,-1
 199 260 l 1,28,-1
EndSplineSet
EndChar

StartChar: dollar
Encoding: 36 36 7
Width: 500
GlyphClass: 2
Flags: HW
LayerCount: 2
Fore
SplineSet
293 311 m 1,0,-1
 293 97 l 1,1,2
 351 118 351 118 351 205 c 0,3,4
 351 276 351 276 293 311 c 1,0,-1
293 19 m 1,5,-1
 293 -85 l 1,6,-1
 217 -85 l 1,7,-1
 217 16 l 1,8,9
 147 22 147 22 80 65 c 1,10,-1
 80 160 l 1,11,12
 145 103 145 103 217 91 c 1,13,-1
 217 342 l 1,14,15
 140 373 140 373 107.5 417.5 c 128,-1,16
 75 462 75 462 75 535 c 0,17,18
 75 611 75 611 112 657.5 c 128,-1,19
 149 704 149 704 217 713 c 1,20,-1
 217 815 l 1,21,-1
 293 815 l 1,22,-1
 293 713 l 1,23,24
 362 705 362 705 420 675 c 1,25,-1
 420 585 l 1,26,27
 368 623 368 623 293 637 c 1,28,-1
 293 400 l 1,29,30
 370 369 370 369 402.5 323.5 c 128,-1,31
 435 278 435 278 435 205 c 0,32,33
 435 42 435 42 293 19 c 1,5,-1
217 429 m 1,34,-1
 217 636 l 1,35,36
 159 618 159 618 159 535 c 0,37,38
 159 462 159 462 217 429 c 1,34,-1
EndSplineSet
EndChar

StartChar: percent
Encoding: 37 37 8
Width: 500
GlyphClass: 2
Flags: HW
LayerCount: 2
Fore
SplineSet
60 260 m 1,0,-1
 440 550 l 1,1,-1
 440 470 l 1,2,-1
 60 180 l 1,3,-1
 60 260 l 1,0,-1
160 740 m 128,-1,5
 221 740 221 740 255.5 699 c 128,-1,6
 290 658 290 658 290 580 c 128,-1,7
 290 502 290 502 255.5 461 c 128,-1,8
 221 420 221 420 160 420 c 128,-1,9
 99 420 99 420 64.5 461 c 128,-1,10
 30 502 30 502 30 580 c 128,-1,11
 30 658 30 658 64.5 699 c 128,-1,4
 99 740 99 740 160 740 c 128,-1,5
340 310 m 128,-1,13
 401 310 401 310 435.5 269 c 128,-1,14
 470 228 470 228 470 150 c 128,-1,15
 470 72 470 72 435.5 31 c 128,-1,16
 401 -10 401 -10 340 -10 c 128,-1,17
 279 -10 279 -10 244.5 31 c 128,-1,18
 210 72 210 72 210 150 c 128,-1,19
 210 228 210 228 244.5 269 c 128,-1,12
 279 310 279 310 340 310 c 128,-1,13
160 488 m 128,-1,21
 212 488 212 488 212 580 c 128,-1,22
 212 672 212 672 160 672 c 128,-1,23
 108 672 108 672 108 580 c 128,-1,20
 108 488 108 488 160 488 c 128,-1,21
340 58 m 128,-1,25
 392 58 392 58 392 150 c 128,-1,26
 392 242 392 242 340 242 c 128,-1,27
 288 242 288 242 288 150 c 128,-1,24
 288 58 288 58 340 58 c 128,-1,25
EndSplineSet
EndChar

StartChar: ampersand
Encoding: 38 38 9
Width: 500
GlyphClass: 2
Flags: HW
LayerCount: 2
Fore
SplineSet
372 402 m 1,0,-1
 452 402 l 1,1,2
 452 237 452 237 406 137 c 1,3,-1
 495 0 l 1,4,-1
 408 0 l 1,5,-1
 363 67 l 1,6,7
 299 -10 299 -10 200 -10 c 0,8,9
 119 -10 119 -10 72 35.5 c 128,-1,10
 25 81 25 81 25 165 c 0,11,12
 25 271 25 271 151 385 c 1,13,-1
 142 399 l 1,14,15
 95 470 95 470 78.5 510.5 c 128,-1,16
 62 551 62 551 62 590 c 0,17,18
 62 656 62 656 107 698 c 128,-1,19
 152 740 152 740 225 740 c 128,-1,20
 298 740 298 740 344 698 c 128,-1,21
 390 656 390 656 390 590 c 0,22,23
 390 533 390 533 359.5 483.5 c 128,-1,24
 329 434 329 434 253 371 c 1,25,-1
 351 220 l 1,26,27
 372 299 372 299 372 402 c 1,0,-1
317 137 m 1,28,-1
 194 321 l 1,29,30
 110 242 110 242 110 168 c 0,31,32
 110 119 110 119 136 92 c 128,-1,33
 162 65 162 65 205 65 c 0,34,35
 272 65 272 65 317 137 c 1,28,-1
211 436 m 1,36,37
 270 487 270 487 290 519.5 c 128,-1,38
 310 552 310 552 310 590 c 0,39,40
 310 623 310 623 288 644 c 128,-1,41
 266 665 266 665 228 665 c 128,-1,42
 190 665 190 665 167.5 644.5 c 128,-1,43
 145 624 145 624 145 590 c 0,44,45
 145 561 145 561 157.5 531 c 128,-1,46
 170 501 170 501 211 436 c 1,36,37
EndSplineSet
EndChar

StartChar: quotesingle
Encoding: 39 39 10
Width: 500
GlyphClass: 2
Flags: HW
LayerCount: 2
Fore
SplineSet
195 780 m 1,0,-1
 305 780 l 1,1,-1
 280 500 l 1,2,-1
 220 500 l 1,3,-1
 195 780 l 1,0,-1
EndSplineSet
EndChar

StartChar: parenleft
Encoding: 40 40 11
Width: 500
GlyphClass: 2
Flags: HW
LayerCount: 2
Fore
SplineSet
125 315 m 128,-1,1
 125 590 125 590 319 770 c 1,2,-1
 395 770 l 1,3,4
 199 586 199 586 199 315 c 128,-1,5
 199 44 199 44 395 -140 c 1,6,-1
 319 -140 l 1,7,0
 125 40 125 40 125 315 c 128,-1,1
EndSplineSet
EndChar

StartChar: parenright
Encoding: 41 41 12
Width: 500
GlyphClass: 2
Flags: HW
LayerCount: 2
Fore
SplineSet
375 315 m 128,-1,1
 375 40 375 40 181 -140 c 1,2,-1
 105 -140 l 1,3,4
 301 44 301 44 301 315 c 128,-1,5
 301 586 301 586 105 770 c 1,6,-1
 181 770 l 1,7,0
 375 590 375 590 375 315 c 128,-1,1
EndSplineSet
EndChar

StartChar: asterisk
Encoding: 42 42 13
Width: 500
GlyphClass: 2
Flags: HW
LayerCount: 2
Fore
SplineSet
282 770 m 1,0,-1
 277 599 l 1,1,-1
 423 689 l 1,2,-1
 455 633 l 1,3,-1
 304 552 l 1,4,-1
 455 471 l 1,5,-1
 423 415 l 1,6,-1
 277 505 l 1,7,-1
 282 334 l 1,8,-1
 218 334 l 1,9,-1
 223 505 l 1,10,-1
 77 415 l 1,11,-1
 45 471 l 1,12,-1
 196 552 l 1,13,-1
 45 633 l 1,14,-1
 77 689 l 1,15,-1
 223 599 l 1,16,-1
 218 770 l 1,17,-1
 282 770 l 1,0,-1
EndSplineSet
EndChar

StartChar: plus
Encoding: 43 43 14
Width: 500
GlyphClass: 2
Flags: HW
LayerCount: 2
Fore
SplineSet
291 555 m 1,0,-1
 291 341 l 1,1,-1
 440 341 l 1,2,-1
 440 269 l 1,3,-1
 291 269 l 1,4,-1
 291 55 l 1,5,-1
 209 55 l 1,6,-1
 209 269 l 1,7,-1
 60 269 l 1,8,-1
 60 341 l 1,9,-1
 209 341 l 1,10,-1
 209 555 l 1,11,-1
 291 555 l 1,0,-1
EndSplineSet
EndChar

StartChar: comma
Encoding: 44 44 15
Width: 500
GlyphClass: 2
Flags: HW
LayerCount: 2
Fore
SplineSet
210 150 m 1,0,-1
 330 150 l 1,1,-1
 220 -130 l 1,2,-1
 150 -130 l 1,3,-1
 210 150 l 1,0,-1
EndSplineSet
EndChar

StartChar: hyphen
Encoding: 45 45 16
Width: 500
GlyphClass: 2
Flags: HW
LayerCount: 2
Fore
SplineSet
105 257 m 1,0,-1
 105 329 l 1,1,-1
 395 329 l 1,2,-1
 395 257 l 1,3,-1
 105 257 l 1,0,-1
EndSplineSet
EndChar

StartChar: period
Encoding: 46 46 17
Width: 500
GlyphClass: 2
Flags: HW
LayerCount: 2
Fore
SplineSet
185 0 m 1,0,-1
 185 150 l 1,1,-1
 315 150 l 1,2,-1
 315 0 l 1,3,-1
 185 0 l 1,0,-1
EndSplineSet
EndChar

StartChar: slash
Encoding: 47 47 18
Width: 500
GlyphClass: 2
Flags: HW
LayerCount: 2
Fore
SplineSet
452 730 m 1,0,-1
 120 -40 l 1,1,-1
 48 -40 l 1,2,-1
 380 730 l 1,3,-1
 452 730 l 1,0,-1
EndSplineSet
EndChar

StartChar: zero
Encoding: 48 48 19
Width: 500
GlyphClass: 2
Flags: HW
LayerCount: 2
Fore
SplineSet
250 438 m 128,-1,1
 273 438 273 438 288 419.5 c 128,-1,2
 303 401 303 401 303 370 c 128,-1,3
 303 339 303 339 288 320.5 c 128,-1,4
 273 302 273 302 250 302 c 128,-1,5
 227 302 227 302 212 320.5 c 128,-1,6
 197 339 197 339 197 370 c 128,-1,7
 197 401 197 401 212 419.5 c 128,-1,0
 227 438 227 438 250 438 c 128,-1,1
250 740 m 128,-1,9
 298 740 298 740 332 722 c 128,-1,10
 366 704 366 704 391 662 c 128,-1,11
 416 620 416 620 428 546.5 c 128,-1,12
 440 473 440 473 440 365 c 128,-1,13
 440 257 440 257 428 183.5 c 128,-1,14
 416 110 416 110 391 68 c 128,-1,15
 366 26 366 26 332 8 c 128,-1,16
 298 -10 298 -10 250 -10 c 128,-1,17
 202 -10 202 -10 168 8 c 128,-1,18
 134 26 134 26 109 68 c 128,-1,19
 84 110 84 110 72 183.5 c 128,-1,20
 60 257 60 257 60 365 c 128,-1,21
 60 473 60 473 72 546.5 c 128,-1,22
 84 620 84 620 109 662 c 128,-1,23
 134 704 134 704 168 722 c 128,-1,8
 202 740 202 740 250 740 c 128,-1,9
250 60 m 128,-1,25
 286 60 286 60 310 86 c 128,-1,26
 334 112 334 112 348 181 c 128,-1,27
 362 250 362 250 362 365 c 128,-1,28
 362 480 362 480 348 549 c 128,-1,29
 334 618 334 618 310 644 c 128,-1,30
 286 670 286 670 250 670 c 128,-1,31
 214 670 214 670 190 644 c 128,-1,32
 166 618 166 618 152 549 c 128,-1,33
 138 480 138 480 138 365 c 128,-1,34
 138 250 138 250 152 181 c 128,-1,35
 166 112 166 112 190 86 c 128,-1,24
 214 60 214 60 250 60 c 128,-1,25
EndSplineSet
EndChar

StartChar: one
Encoding: 49 49 20
Width: 500
GlyphClass: 2
Flags: HW
LayerCount: 2
Fore
SplineSet
258 0 m 1,0,-1
 258 645 l 1,1,-1
 256 646 l 1,2,-1
 83 545 l 1,3,-1
 83 625 l 1,4,-1
 258 730 l 1,5,-1
 340 730 l 1,6,-1
 340 0 l 1,7,-1
 258 0 l 1,0,-1
EndSplineSet
EndChar

StartChar: two
Encoding: 50 50 21
Width: 500
GlyphClass: 2
Flags: HW
LayerCount: 2
Fore
SplineSet
175 74 m 1,0,-1
 175 72 l 1,1,-1
 420 72 l 1,2,-1
 420 0 l 1,3,-1
 80 0 l 1,4,-1
 80 72 l 1,5,6
 331 360 331 360 331 550 c 0,7,8
 331 666 331 666 238 666 c 0,9,10
 208 666 208 666 162 643.5 c 128,-1,11
 116 621 116 621 80 588 c 1,12,-1
 80 675 l 1,13,14
 155 740 155 740 250 740 c 0,15,16
 335 740 335 740 375 693 c 128,-1,17
 415 646 415 646 415 550 c 0,18,19
 415 451 415 451 361 342 c 128,-1,20
 307 233 307 233 175 74 c 1,0,-1
EndSplineSet
EndChar

StartChar: three
Encoding: 51 51 22
Width: 500
GlyphClass: 2
Flags: HW
LayerCount: 2
Fore
SplineSet
244 740 m 0,0,1
 328 740 328 740 376.5 695.5 c 128,-1,2
 425 651 425 651 425 575 c 0,3,4
 425 433 425 433 305 398 c 1,5,-1
 305 397 l 1,6,7
 368 384 368 384 401.5 336 c 128,-1,8
 435 288 435 288 435 210 c 0,9,10
 435 -10 435 -10 230 -10 c 0,11,12
 146 -10 146 -10 65 30 c 1,13,-1
 65 117 l 1,14,15
 143 69 143 69 222 69 c 0,16,17
 351 69 351 69 351 215 c 0,18,19
 351 291 351 291 310.5 325.5 c 128,-1,20
 270 360 270 360 180 360 c 2,21,-1
 160 360 l 1,22,-1
 160 432 l 1,23,-1
 180 432 l 2,24,25
 267 432 267 432 305 463.5 c 128,-1,26
 343 495 343 495 343 565 c 0,27,28
 343 668 343 668 239 668 c 0,29,30
 162 668 162 668 79 613 c 1,31,-1
 79 695 l 1,32,33
 164 740 164 740 244 740 c 0,0,1
EndSplineSet
EndChar

StartChar: four
Encoding: 52 52 23
Width: 500
GlyphClass: 2
Flags: HW
LayerCount: 2
Fore
SplineSet
293 590 m 1,0,-1
 291 590 l 1,1,-1
 116 249 l 1,2,-1
 116 247 l 1,3,-1
 293 247 l 1,4,-1
 293 590 l 1,0,-1
293 175 m 1,5,-1
 40 175 l 1,6,-1
 40 257 l 1,7,-1
 283 730 l 1,8,-1
 375 730 l 1,9,-1
 375 247 l 1,10,-1
 460 247 l 1,11,-1
 460 175 l 1,12,-1
 375 175 l 1,13,-1
 375 0 l 1,14,-1
 293 0 l 1,15,-1
 293 175 l 1,5,-1
EndSplineSet
EndChar

StartChar: five
Encoding: 53 53 24
Width: 500
GlyphClass: 2
Flags: HW
LayerCount: 2
Fore
SplineSet
180 430 m 1,0,-1
 182 430 l 1,1,2
 215 460 215 460 270 460 c 0,3,4
 430 460 430 460 430 230 c 0,5,6
 430 105 430 105 380.5 47.5 c 128,-1,7
 331 -10 331 -10 235 -10 c 0,8,9
 161 -10 161 -10 90 20 c 1,10,-1
 90 107 l 1,11,12
 165 64 165 64 230 64 c 0,13,14
 346 64 346 64 346 230 c 0,15,16
 346 386 346 386 250 386 c 0,17,18
 204 386 204 386 170 345 c 1,19,-1
 95 345 l 1,20,-1
 105 730 l 1,21,-1
 410 730 l 1,22,-1
 410 658 l 1,23,-1
 187 658 l 1,24,-1
 180 430 l 1,0,-1
EndSplineSet
EndChar

StartChar: six
Encoding: 54 54 25
Width: 500
GlyphClass: 2
Flags: HW
LayerCount: 2
Fore
SplineSet
285 740 m 0,0,1
 346 740 346 740 400 720 c 1,2,-1
 400 643 l 1,3,4
 350 668 350 668 295 668 c 0,5,6
 225 668 225 668 194 619.5 c 128,-1,7
 163 571 163 571 155 435 c 1,8,-1
 157 435 l 1,9,10
 207 485 207 485 270 485 c 0,11,12
 357 485 357 485 398.5 429 c 128,-1,13
 440 373 440 373 440 245 c 0,14,15
 440 111 440 111 393.5 50.5 c 128,-1,16
 347 -10 347 -10 255 -10 c 0,17,18
 190 -10 190 -10 151 18.5 c 128,-1,19
 112 47 112 47 91 120 c 128,-1,20
 70 193 70 193 70 320 c 0,21,22
 70 478 70 478 95.5 572 c 128,-1,23
 121 666 121 666 166.5 703 c 128,-1,24
 212 740 212 740 285 740 c 0,0,1
255 62 m 0,25,26
 309 62 309 62 333.5 101 c 128,-1,27
 358 140 358 140 358 245 c 0,28,29
 358 339 358 339 334.5 377 c 128,-1,30
 311 415 311 415 260 415 c 0,31,32
 154 415 154 415 154 255 c 0,33,34
 154 148 154 148 179 105 c 128,-1,35
 204 62 204 62 255 62 c 0,25,26
EndSplineSet
EndChar

StartChar: seven
Encoding: 55 55 26
Width: 500
GlyphClass: 2
Flags: HW
LayerCount: 2
Fore
SplineSet
345 656 m 1,0,-1
 345 658 l 1,1,-1
 75 658 l 1,2,-1
 75 730 l 1,3,-1
 425 730 l 1,4,-1
 425 658 l 1,5,6
 297 362 297 362 215 0 c 1,7,-1
 127 0 l 1,8,9
 211 353 211 353 345 656 c 1,0,-1
EndSplineSet
EndChar

StartChar: eight
Encoding: 56 56 27
Width: 500
GlyphClass: 2
Flags: HW
LayerCount: 2
Fore
SplineSet
255 670 m 0,0,1
 202 670 202 670 173.5 642.5 c 128,-1,2
 145 615 145 615 145 565 c 0,3,4
 145 511 145 511 174 471 c 128,-1,5
 203 431 203 431 250 420 c 1,6,7
 302 434 302 434 330.5 471.5 c 128,-1,8
 359 509 359 509 359 565 c 0,9,10
 359 612 359 612 330.5 641 c 128,-1,11
 302 670 302 670 255 670 c 0,0,1
250 -10 m 128,-1,13
 154 -10 154 -10 102 41 c 128,-1,14
 50 92 50 92 50 190 c 0,15,16
 50 258 50 258 83 309 c 128,-1,17
 116 360 116 360 175 384 c 1,18,-1
 175 386 l 1,19,20
 127 409 127 409 96 459.5 c 128,-1,21
 65 510 65 510 65 565 c 0,22,23
 65 647 65 647 114 693.5 c 128,-1,24
 163 740 163 740 250 740 c 128,-1,25
 337 740 337 740 386 693 c 128,-1,26
 435 646 435 646 435 565 c 0,27,28
 435 509 435 509 404.5 461.5 c 128,-1,29
 374 414 374 414 325 391 c 1,30,-1
 325 389 l 1,31,32
 384 366 384 366 417 314 c 128,-1,33
 450 262 450 262 450 190 c 0,34,35
 450 92 450 92 398 41 c 128,-1,12
 346 -10 346 -10 250 -10 c 128,-1,13
255 60 m 0,36,37
 308 60 308 60 339 93.5 c 128,-1,38
 370 127 370 127 370 190 c 0,39,40
 370 320 370 320 245 350 c 1,41,42
 184 334 184 334 155 295.5 c 128,-1,43
 126 257 126 257 126 190 c 0,44,45
 126 128 126 128 161 94 c 128,-1,46
 196 60 196 60 255 60 c 0,36,37
EndSplineSet
EndChar

StartChar: nine
Encoding: 57 57 28
Width: 500
GlyphClass: 2
Flags: HW
LayerCount: 2
Fore
SplineSet
215 -10 m 0,0,1
 154 -10 154 -10 100 10 c 1,2,-1
 100 90 l 1,3,4
 152 64 152 64 205 64 c 0,5,6
 275 64 275 64 306 111.5 c 128,-1,7
 337 159 337 159 345 295 c 1,8,-1
 343 295 l 1,9,10
 293 245 293 245 230 245 c 0,11,12
 146 245 146 245 103 304 c 128,-1,13
 60 363 60 363 60 495 c 0,14,15
 60 621 60 621 106 680.5 c 128,-1,16
 152 740 152 740 245 740 c 0,17,18
 313 740 313 740 352 712 c 128,-1,19
 391 684 391 684 410.5 611.5 c 128,-1,20
 430 539 430 539 430 410 c 0,21,22
 430 252 430 252 404.5 158 c 128,-1,23
 379 64 379 64 333.5 27 c 128,-1,24
 288 -10 288 -10 215 -10 c 0,0,1
245 668 m 0,25,26
 190 668 190 668 166 630 c 128,-1,27
 142 592 142 592 142 495 c 128,-1,28
 142 398 142 398 167 356.5 c 128,-1,29
 192 315 192 315 240 315 c 0,30,31
 289 315 289 315 317.5 356.5 c 128,-1,32
 346 398 346 398 346 485 c 0,33,34
 346 585 346 585 321 626.5 c 128,-1,35
 296 668 296 668 245 668 c 0,25,26
EndSplineSet
EndChar

StartChar: colon
Encoding: 58 58 29
Width: 500
GlyphClass: 2
Flags: HW
LayerCount: 2
Fore
SplineSet
190 390 m 1,0,-1
 190 540 l 1,1,-1
 310 540 l 1,2,-1
 310 390 l 1,3,-1
 190 390 l 1,0,-1
190 0 m 1,4,-1
 190 150 l 1,5,-1
 310 150 l 1,6,-1
 310 0 l 1,7,-1
 190 0 l 1,4,-1
EndSplineSet
EndChar

StartChar: semicolon
Encoding: 59 59 30
Width: 500
GlyphClass: 2
Flags: HW
LayerCount: 2
Fore
SplineSet
200 150 m 1,0,-1
 320 150 l 1,1,-1
 210 -130 l 1,2,-1
 140 -130 l 1,3,-1
 200 150 l 1,0,-1
200 390 m 1,4,-1
 200 540 l 1,5,-1
 320 540 l 1,6,-1
 320 390 l 1,7,-1
 200 390 l 1,4,-1
EndSplineSet
EndChar

StartChar: less
Encoding: 60 60 31
Width: 500
GlyphClass: 2
Flags: HW
LayerCount: 2
Fore
SplineSet
435 510 m 1,0,-1
 105 306 l 1,1,-1
 105 304 l 1,2,-1
 435 100 l 1,3,-1
 435 20 l 1,4,-1
 55 265 l 1,5,-1
 55 345 l 1,6,-1
 435 590 l 1,7,-1
 435 510 l 1,0,-1
EndSplineSet
EndChar

StartChar: equal
Encoding: 61 61 32
Width: 500
GlyphClass: 2
Flags: HW
LayerCount: 2
Fore
SplineSet
60 373 m 1,0,-1
 60 445 l 1,1,-1
 440 445 l 1,2,-1
 440 373 l 1,3,-1
 60 373 l 1,0,-1
60 165 m 1,4,-1
 60 237 l 1,5,-1
 440 237 l 1,6,-1
 440 165 l 1,7,-1
 60 165 l 1,4,-1
EndSplineSet
EndChar

StartChar: greater
Encoding: 62 62 33
Width: 500
GlyphClass: 2
Flags: HW
LayerCount: 2
Fore
SplineSet
65 510 m 1,0,-1
 65 590 l 1,1,-1
 445 345 l 1,2,-1
 445 265 l 1,3,-1
 65 20 l 1,4,-1
 65 100 l 1,5,-1
 395 304 l 1,6,-1
 395 306 l 1,7,-1
 65 510 l 1,0,-1
EndSplineSet
EndChar

StartChar: question
Encoding: 63 63 34
Width: 500
GlyphClass: 2
Flags: HW
LayerCount: 2
Fore
SplineSet
445 580 m 0,0,1
 445 539 445 539 430.5 503 c 128,-1,2
 416 467 416 467 402.5 449 c 128,-1,3
 389 431 389 431 360 399 c 0,4,5
 332 367 332 367 317 347.5 c 128,-1,6
 302 328 302 328 288.5 292 c 128,-1,7
 275 256 275 256 275 215 c 1,8,-1
 195 215 l 1,9,10
 195 270 195 270 211.5 316.5 c 128,-1,11
 228 363 228 363 244 384.5 c 128,-1,12
 260 406 260 406 291 441 c 0,13,14
 316 469 316 469 327 483.5 c 128,-1,15
 338 498 338 498 349.5 524.5 c 128,-1,16
 361 551 361 551 361 580 c 0,17,18
 361 621 361 621 331.5 643.5 c 128,-1,19
 302 666 302 666 245 666 c 0,20,21
 160 666 160 666 65 605 c 1,22,-1
 65 695 l 1,23,24
 158 740 158 740 255 740 c 0,25,26
 346 740 346 740 395.5 698 c 128,-1,27
 445 656 445 656 445 580 c 0,0,1
180 0 m 1,28,-1
 180 130 l 1,29,-1
 290 130 l 1,30,-1
 290 0 l 1,31,-1
 180 0 l 1,28,-1
EndSplineSet
EndChar

StartChar: at
Encoding: 64 64 35
Width: 500
GlyphClass: 2
Flags: HW
LayerCount: 2
Fore
SplineSet
375 153 m 1,0,-1
 375 320 l 2,1,2
 375 361 375 361 359 383 c 128,-1,3
 343 405 343 405 315 405 c 0,4,5
 275 405 275 405 259 375.5 c 128,-1,6
 243 346 243 346 243 260 c 0,7,8
 243 178 243 178 260 146.5 c 128,-1,9
 277 115 277 115 315 115 c 0,10,11
 359 115 359 115 375 153 c 1,0,-1
165 260 m 0,12,13
 165 475 165 475 305 475 c 0,14,15
 343 475 343 475 378 450 c 1,16,-1
 380 450 l 1,17,-1
 380 455 l 2,18,19
 380 505 380 505 352.5 534 c 128,-1,20
 325 563 325 563 280 563 c 0,21,22
 197 563 197 563 156 492.5 c 128,-1,23
 115 422 115 422 115 260 c 0,24,25
 115 94 115 94 155 25.5 c 128,-1,26
 195 -43 195 -43 280 -43 c 0,27,28
 342 -43 342 -43 405 -5 c 1,29,-1
 405 -85 l 1,30,31
 346 -115 346 -115 275 -115 c 0,32,33
 153 -115 153 -115 94 -29 c 128,-1,34
 35 57 35 57 35 260 c 0,35,36
 35 457 35 457 95.5 546 c 128,-1,37
 156 635 156 635 275 635 c 0,38,39
 362 635 362 635 408.5 585 c 128,-1,40
 455 535 455 535 455 435 c 2,41,-1
 455 110 l 1,42,43
 390 45 390 45 315 45 c 0,44,45
 239 45 239 45 202 94 c 128,-1,46
 165 143 165 143 165 260 c 0,12,13
EndSplineSet
EndChar

StartChar: A
Encoding: 65 65 36
Width: 500
GlyphClass: 2
Flags: HW
LayerCount: 2
Fore
SplineSet
249 660 m 1,0,-1
 247 660 l 1,1,-1
 164 280 l 1,2,-1
 332 280 l 1,3,-1
 249 660 l 1,0,-1
348 210 m 1,4,-1
 148 210 l 1,5,-1
 102 0 l 1,6,-1
 20 0 l 1,7,-1
 200 730 l 1,8,-1
 300 730 l 1,9,-1
 480 0 l 1,10,-1
 394 0 l 1,11,-1
 348 210 l 1,4,-1
EndSplineSet
EndChar

StartChar: B
Encoding: 66 66 37
Width: 500
GlyphClass: 2
Flags: HW
LayerCount: 2
Fore
SplineSet
320 401 m 1,0,-1
 320 399 l 1,1,2
 378 388 378 388 416.5 335 c 128,-1,3
 455 282 455 282 455 210 c 0,4,5
 455 101 455 101 400 50.5 c 128,-1,6
 345 0 345 0 230 0 c 2,7,-1
 157 0 l 1,8,-1
 75 0 l 1,9,-1
 75 730 l 1,10,-1
 230 730 l 2,11,12
 336 730 336 730 385.5 688.5 c 128,-1,13
 435 647 435 647 435 560 c 0,14,15
 435 499 435 499 404.5 457 c 128,-1,16
 374 415 374 415 320 401 c 1,0,-1
157 430 m 1,17,-1
 222 430 l 2,18,19
 355 430 355 430 355 550 c 0,20,21
 355 609 355 609 324 634.5 c 128,-1,22
 293 660 293 660 217 660 c 2,23,-1
 157 660 l 1,24,-1
 157 430 l 1,17,-1
157 360 m 1,25,-1
 157 70 l 1,26,-1
 247 70 l 2,27,28
 312 70 312 70 342.5 104.5 c 128,-1,29
 373 139 373 139 373 220 c 0,30,31
 373 360 373 360 232 360 c 2,32,-1
 157 360 l 1,25,-1
EndSplineSet
EndChar

StartChar: C
Encoding: 67 67 38
Width: 500
GlyphClass: 2
Flags: HW
LayerCount: 2
Fore
SplineSet
55 365 m 0,0,1
 55 562 55 562 115.5 651 c 128,-1,2
 176 740 176 740 295 740 c 0,3,4
 361 740 361 740 420 710 c 1,5,-1
 420 635 l 1,6,7
 360 668 360 668 300 668 c 0,8,9
 135 668 135 668 135 365 c 0,10,11
 135 201 135 201 177 131.5 c 128,-1,12
 219 62 219 62 300 62 c 0,13,14
 362 62 362 62 425 100 c 1,15,-1
 425 20 l 1,16,17
 366 -10 366 -10 295 -10 c 0,18,19
 173 -10 173 -10 114 76 c 128,-1,20
 55 162 55 162 55 365 c 0,0,1
EndSplineSet
EndChar

StartChar: D
Encoding: 68 68 39
Width: 500
GlyphClass: 2
Flags: HW
LayerCount: 2
Fore
SplineSet
147 72 m 1,0,-1
 202 72 l 2,1,2
 269 72 269 72 306.5 95 c 128,-1,3
 344 118 344 118 363.5 182.5 c 128,-1,4
 383 247 383 247 383 365 c 128,-1,5
 383 483 383 483 365 546 c 128,-1,6
 347 609 347 609 309.5 633.5 c 128,-1,7
 272 658 272 658 202 658 c 2,8,-1
 147 658 l 1,9,-1
 147 72 l 1,0,-1
147 0 m 1,10,-1
 65 0 l 1,11,-1
 65 730 l 1,12,-1
 202 730 l 2,13,14
 300 730 300 730 355.5 697.5 c 128,-1,15
 411 665 411 665 438 585.5 c 128,-1,16
 465 506 465 506 465 365 c 0,17,18
 465 228 465 228 436 147 c 128,-1,19
 407 66 407 66 350.5 33 c 128,-1,20
 294 0 294 0 202 0 c 2,21,-1
 147 0 l 1,10,-1
EndSplineSet
EndChar

StartChar: E
Encoding: 69 69 40
Width: 500
GlyphClass: 2
Flags: HW
LayerCount: 2
Fore
SplineSet
162 658 m 1,0,-1
 162 430 l 1,1,-1
 410 430 l 1,2,-1
 410 360 l 1,3,-1
 162 360 l 1,4,-1
 162 72 l 1,5,-1
 420 72 l 1,6,-1
 420 0 l 1,7,-1
 80 0 l 1,8,-1
 80 730 l 1,9,-1
 420 730 l 1,10,-1
 420 658 l 1,11,-1
 162 658 l 1,0,-1
EndSplineSet
EndChar

StartChar: F
Encoding: 70 70 41
Width: 500
GlyphClass: 2
Flags: HW
LayerCount: 2
Fore
SplineSet
172 360 m 1,0,-1
 172 0 l 1,1,-1
 90 0 l 1,2,-1
 90 730 l 1,3,-1
 420 730 l 1,4,-1
 420 658 l 1,5,-1
 172 658 l 1,6,-1
 172 430 l 1,7,-1
 410 430 l 1,8,-1
 410 360 l 1,9,-1
 172 360 l 1,0,-1
EndSplineSet
EndChar

StartChar: G
Encoding: 71 71 42
Width: 500
GlyphClass: 2
Flags: HW
LayerCount: 2
Fore
SplineSet
370 85 m 1,0,-1
 370 360 l 1,1,-1
 215 360 l 1,2,-1
 215 430 l 1,3,-1
 450 430 l 1,4,-1
 450 30 l 1,5,6
 370 -10 370 -10 280 -10 c 0,7,8
 162 -10 162 -10 101 79 c 128,-1,9
 40 168 40 168 40 365 c 0,10,11
 40 561 40 561 103.5 650.5 c 128,-1,12
 167 740 167 740 295 740 c 0,13,14
 354 740 354 740 425 715 c 1,15,-1
 425 638 l 1,16,17
 359 668 359 668 295 668 c 0,18,19
 208 668 208 668 163 596 c 128,-1,20
 118 524 118 524 118 365 c 0,21,22
 118 62 118 62 285 62 c 0,23,24
 330 62 330 62 370 85 c 1,0,-1
EndSplineSet
EndChar

StartChar: H
Encoding: 72 72 43
Width: 500
GlyphClass: 2
Flags: HW
LayerCount: 2
Fore
SplineSet
140 730 m 1,0,-1
 140 432 l 1,1,-1
 356 432 l 1,2,-1
 356 730 l 1,3,-1
 440 730 l 1,4,-1
 440 0 l 1,5,-1
 356 0 l 1,6,-1
 356 360 l 1,7,-1
 140 360 l 1,8,-1
 140 0 l 1,9,-1
 60 0 l 1,10,-1
 60 730 l 1,11,-1
 140 730 l 1,0,-1
EndSplineSet
EndChar

StartChar: I
Encoding: 73 73 44
Width: 500
GlyphClass: 2
Flags: HW
LayerCount: 2
Fore
SplineSet
410 0 m 1,0,-1
 90 0 l 1,1,-1
 90 70 l 1,2,-1
 208 70 l 1,3,-1
 208 660 l 1,4,-1
 90 660 l 1,5,-1
 90 730 l 1,6,-1
 410 730 l 1,7,-1
 410 660 l 1,8,-1
 292 660 l 1,9,-1
 292 70 l 1,10,-1
 410 70 l 1,11,-1
 410 0 l 1,0,-1
EndSplineSet
EndChar

StartChar: J
Encoding: 74 74 45
Width: 500
GlyphClass: 2
Flags: HW
LayerCount: 2
Fore
SplineSet
400 730 m 1,0,-1
 400 190 l 2,1,2
 400 80 400 80 356.5 35 c 128,-1,3
 313 -10 313 -10 210 -10 c 0,4,5
 128 -10 128 -10 60 20 c 1,6,-1
 60 107 l 1,7,8
 89 90 89 90 135.5 76 c 128,-1,9
 182 62 182 62 210 62 c 0,10,11
 263 62 263 62 289 92.5 c 128,-1,12
 315 123 315 123 315 192 c 2,13,-1
 315 660 l 1,14,-1
 150 660 l 1,15,-1
 150 730 l 1,16,-1
 400 730 l 1,0,-1
EndSplineSet
EndChar

StartChar: K
Encoding: 75 75 46
Width: 500
GlyphClass: 2
Flags: HW
LayerCount: 2
Fore
SplineSet
157 400 m 1,0,-1
 159 400 l 1,1,-1
 365 730 l 1,2,-1
 460 730 l 1,3,-1
 235 380 l 1,4,-1
 465 0 l 1,5,-1
 370 0 l 1,6,-1
 159 360 l 1,7,-1
 157 360 l 1,8,-1
 157 0 l 1,9,-1
 75 0 l 1,10,-1
 75 730 l 1,11,-1
 157 730 l 1,12,-1
 157 400 l 1,0,-1
EndSplineSet
EndChar

StartChar: L
Encoding: 76 76 47
Width: 500
GlyphClass: 2
Flags: HW
LayerCount: 2
Fore
SplineSet
182 730 m 1,0,-1
 182 72 l 1,1,-1
 420 72 l 1,2,-1
 420 0 l 1,3,-1
 100 0 l 1,4,-1
 100 730 l 1,5,-1
 182 730 l 1,0,-1
EndSplineSet
EndChar

StartChar: M
Encoding: 77 77 48
Width: 500
GlyphClass: 2
Flags: HW
LayerCount: 2
Fore
SplineSet
369 620 m 1,0,-1
 367 620 l 1,1,-1
 293 140 l 1,2,-1
 203 140 l 1,3,-1
 129 620 l 1,4,-1
 127 620 l 1,5,-1
 102 0 l 1,6,-1
 25 0 l 1,7,-1
 65 730 l 1,8,-1
 176 730 l 1,9,-1
 251 230 l 1,10,-1
 253 230 l 1,11,-1
 328 730 l 1,12,-1
 435 730 l 1,13,-1
 475 0 l 1,14,-1
 394 0 l 1,15,-1
 369 620 l 1,0,-1
EndSplineSet
EndChar

StartChar: N
Encoding: 78 78 49
Width: 500
GlyphClass: 2
Flags: HW
LayerCount: 2
Fore
SplineSet
151 550 m 1,0,-1
 149 550 l 1,1,-1
 149 0 l 1,2,-1
 65 0 l 1,3,-1
 65 730 l 1,4,-1
 149 730 l 1,5,-1
 353 180 l 1,6,-1
 355 180 l 1,7,-1
 355 730 l 1,8,-1
 435 730 l 1,9,-1
 435 0 l 1,10,-1
 355 0 l 1,11,-1
 151 550 l 1,0,-1
EndSplineSet
EndChar

StartChar: O
Encoding: 79 79 50
Width: 500
GlyphClass: 2
Flags: HW
LayerCount: 2
Fore
SplineSet
250 740 m 128,-1,1
 357 740 357 740 408.5 655.5 c 128,-1,2
 460 571 460 571 460 365 c 128,-1,3
 460 159 460 159 408.5 74.5 c 128,-1,4
 357 -10 357 -10 250 -10 c 128,-1,5
 143 -10 143 -10 91.5 74.5 c 128,-1,6
 40 159 40 159 40 365 c 128,-1,7
 40 571 40 571 91.5 655.5 c 128,-1,0
 143 740 143 740 250 740 c 128,-1,1
250 62 m 128,-1,9
 294 62 294 62 321 87.5 c 128,-1,10
 348 113 348 113 364 181 c 128,-1,11
 380 249 380 249 380 365 c 128,-1,12
 380 481 380 481 364 549 c 128,-1,13
 348 617 348 617 321 642.5 c 128,-1,14
 294 668 294 668 250 668 c 128,-1,15
 206 668 206 668 179 642.5 c 128,-1,16
 152 617 152 617 136 549 c 128,-1,17
 120 481 120 481 120 365 c 128,-1,18
 120 249 120 249 136 181 c 128,-1,19
 152 113 152 113 179 87.5 c 128,-1,8
 206 62 206 62 250 62 c 128,-1,9
EndSplineSet
EndChar

StartChar: P
Encoding: 80 80 51
Width: 500
GlyphClass: 2
Flags: HW
LayerCount: 2
Fore
SplineSet
75 0 m 1,0,-1
 75 730 l 1,1,-1
 235 730 l 2,2,3
 351 730 351 730 403 678 c 128,-1,4
 455 626 455 626 455 510 c 0,5,6
 455 402 455 402 400.5 351 c 128,-1,7
 346 300 346 300 237 300 c 2,8,-1
 157 300 l 1,9,-1
 157 0 l 1,10,-1
 75 0 l 1,0,-1
157 370 m 1,11,-1
 227 370 l 2,12,13
 311 370 311 370 343 399.5 c 128,-1,14
 375 429 375 429 375 510 c 0,15,16
 375 593 375 593 341.5 626.5 c 128,-1,17
 308 660 308 660 227 660 c 2,18,-1
 157 660 l 1,19,-1
 157 370 l 1,11,-1
EndSplineSet
EndChar

StartChar: Q
Encoding: 81 81 52
Width: 500
GlyphClass: 2
Flags: HW
LayerCount: 2
Fore
SplineSet
250 740 m 128,-1,1
 357 740 357 740 408.5 655.5 c 128,-1,2
 460 571 460 571 460 365 c 0,3,4
 460 92 460 92 360 21 c 1,5,-1
 360 19 l 1,6,7
 401 -2 401 -2 433 -47 c 128,-1,8
 465 -92 465 -92 480 -150 c 1,9,-1
 392 -150 l 1,10,11
 371 -72 371 -72 338 -41 c 128,-1,12
 305 -10 305 -10 250 -10 c 0,13,14
 143 -10 143 -10 91.5 74.5 c 128,-1,15
 40 159 40 159 40 365 c 128,-1,16
 40 571 40 571 91.5 655.5 c 128,-1,0
 143 740 143 740 250 740 c 128,-1,1
250 62 m 128,-1,18
 294 62 294 62 321 87.5 c 128,-1,19
 348 113 348 113 364 181 c 128,-1,20
 380 249 380 249 380 365 c 128,-1,21
 380 481 380 481 364 549 c 128,-1,22
 348 617 348 617 321 642.5 c 128,-1,23
 294 668 294 668 250 668 c 128,-1,24
 206 668 206 668 179 642.5 c 128,-1,25
 152 617 152 617 136 549 c 128,-1,26
 120 481 120 481 120 365 c 128,-1,27
 120 249 120 249 136 181 c 128,-1,28
 152 113 152 113 179 87.5 c 128,-1,17
 206 62 206 62 250 62 c 128,-1,18
EndSplineSet
EndChar

StartChar: R
Encoding: 82 82 53
Width: 500
GlyphClass: 2
Flags: HW
LayerCount: 2
Fore
SplineSet
450 530 m 0,0,1
 450 387 450 387 351 342 c 1,2,-1
 351 340 l 1,3,4
 378 313 378 313 407 214 c 2,5,-1
 470 0 l 1,6,-1
 384 0 l 1,7,-1
 325 216 l 2,8,9
 308 280 308 280 285.5 300 c 128,-1,10
 263 320 263 320 212 320 c 2,11,-1
 152 320 l 1,12,-1
 152 0 l 1,13,-1
 70 0 l 1,14,-1
 70 730 l 1,15,-1
 230 730 l 2,16,17
 348 730 348 730 399 683.5 c 128,-1,18
 450 637 450 637 450 530 c 0,0,1
152 390 m 1,19,-1
 222 390 l 2,20,21
 306 390 306 390 338 419.5 c 128,-1,22
 370 449 370 449 370 530 c 0,23,24
 370 602 370 602 337.5 631 c 128,-1,25
 305 660 305 660 222 660 c 2,26,-1
 152 660 l 1,27,-1
 152 390 l 1,19,-1
EndSplineSet
EndChar

StartChar: S
Encoding: 83 83 54
Width: 500
GlyphClass: 2
Flags: HW
LayerCount: 2
Fore
SplineSet
260 668 m 0,0,1
 213 668 213 668 182.5 637.5 c 128,-1,2
 152 607 152 607 152 560 c 0,3,4
 152 510 152 510 174 477 c 128,-1,5
 196 444 196 444 245 422 c 0,6,7
 356 373 356 373 398 319.5 c 128,-1,8
 440 266 440 266 440 180 c 0,9,10
 440 86 440 86 388.5 38 c 128,-1,11
 337 -10 337 -10 240 -10 c 0,12,13
 149 -10 149 -10 75 45 c 1,14,-1
 75 140 l 1,15,16
 155 62 155 62 245 62 c 0,17,18
 358 62 358 62 358 180 c 0,19,20
 358 235 358 235 332 271 c 128,-1,21
 306 307 306 307 245 335 c 0,22,23
 151 377 151 377 110.5 430.5 c 128,-1,24
 70 484 70 484 70 560 c 0,25,26
 70 640 70 640 121 690 c 128,-1,27
 172 740 172 740 255 740 c 0,28,29
 308 740 308 740 342 732 c 128,-1,30
 376 724 376 724 420 700 c 1,31,-1
 420 610 l 1,32,33
 343 668 343 668 260 668 c 0,0,1
EndSplineSet
EndChar

StartChar: T
Encoding: 84 84 55
Width: 500
GlyphClass: 2
Flags: HW
LayerCount: 2
Fore
SplineSet
209 0 m 1,0,-1
 209 655 l 1,1,-1
 55 655 l 1,2,-1
 55 730 l 1,3,-1
 445 730 l 1,4,-1
 445 655 l 1,5,-1
 291 655 l 1,6,-1
 291 0 l 1,7,-1
 209 0 l 1,0,-1
EndSplineSet
EndChar

StartChar: U
Encoding: 85 85 56
Width: 500
GlyphClass: 2
Flags: HW
LayerCount: 2
Fore
SplineSet
250 -10 m 128,-1,1
 155 -10 155 -10 107.5 38.5 c 128,-1,2
 60 87 60 87 60 190 c 2,3,-1
 60 730 l 1,4,-1
 144 730 l 1,5,-1
 144 210 l 2,6,7
 144 129 144 129 170.5 95.5 c 128,-1,8
 197 62 197 62 252 62 c 128,-1,9
 307 62 307 62 333.5 95.5 c 128,-1,10
 360 129 360 129 360 210 c 2,11,-1
 360 730 l 1,12,-1
 440 730 l 1,13,-1
 440 190 l 2,14,15
 440 87 440 87 392.5 38.5 c 128,-1,0
 345 -10 345 -10 250 -10 c 128,-1,1
EndSplineSet
EndChar

StartChar: V
Encoding: 86 86 57
Width: 500
GlyphClass: 2
Flags: HW
LayerCount: 2
Fore
SplineSet
253 70 m 1,0,-1
 388 730 l 1,1,-1
 470 730 l 1,2,-1
 300 0 l 1,3,-1
 200 0 l 1,4,-1
 30 730 l 1,5,-1
 116 730 l 1,6,-1
 251 70 l 1,7,-1
 253 70 l 1,0,-1
EndSplineSet
EndChar

StartChar: W
Encoding: 87 87 58
Width: 500
GlyphClass: 2
Flags: HW
LayerCount: 2
Fore
SplineSet
153 120 m 1,0,-1
 155 120 l 1,1,-1
 209 630 l 1,2,-1
 299 630 l 1,3,-1
 353 120 l 1,4,-1
 355 120 l 1,5,-1
 400 730 l 1,6,-1
 475 730 l 1,7,-1
 415 0 l 1,8,-1
 306 0 l 1,9,-1
 251 520 l 1,10,-1
 249 520 l 1,11,-1
 194 0 l 1,12,-1
 85 0 l 1,13,-1
 25 730 l 1,14,-1
 108 730 l 1,15,-1
 153 120 l 1,0,-1
EndSplineSet
EndChar

StartChar: X
Encoding: 88 88 59
Width: 500
GlyphClass: 2
Flags: HW
LayerCount: 2
Fore
SplineSet
251 440 m 1,0,-1
 253 440 l 1,1,-1
 365 730 l 1,2,-1
 448 730 l 1,3,-1
 300 375 l 1,4,-1
 450 0 l 1,5,-1
 360 0 l 1,6,-1
 249 305 l 1,7,-1
 247 305 l 1,8,-1
 135 0 l 1,9,-1
 50 0 l 1,10,-1
 200 375 l 1,11,-1
 52 730 l 1,12,-1
 140 730 l 1,13,-1
 251 440 l 1,0,-1
EndSplineSet
EndChar

StartChar: Y
Encoding: 89 89 60
Width: 500
GlyphClass: 2
Flags: HW
LayerCount: 2
Fore
SplineSet
251 375 m 1,0,-1
 253 375 l 1,1,-1
 385 730 l 1,2,-1
 470 730 l 1,3,-1
 291 290 l 1,4,-1
 291 0 l 1,5,-1
 209 0 l 1,6,-1
 209 290 l 1,7,-1
 30 730 l 1,8,-1
 120 730 l 1,9,-1
 251 375 l 1,0,-1
EndSplineSet
EndChar

StartChar: Z
Encoding: 90 90 61
Width: 500
GlyphClass: 2
Flags: HW
LayerCount: 2
Fore
SplineSet
335 658 m 1,0,-1
 335 660 l 1,1,-1
 75 660 l 1,2,-1
 75 730 l 1,3,-1
 425 730 l 1,4,-1
 425 660 l 1,5,-1
 165 72 l 1,6,-1
 165 70 l 1,7,-1
 425 70 l 1,8,-1
 425 0 l 1,9,-1
 75 0 l 1,10,-1
 75 70 l 1,11,-1
 335 658 l 1,0,-1
EndSplineSet
EndChar

StartChar: bracketleft
Encoding: 91 91 62
Width: 500
GlyphClass: 2
Flags: HW
LayerCount: 2
Fore
SplineSet
390 710 m 1,0,-1
 212 710 l 1,1,-1
 212 -80 l 1,2,-1
 390 -80 l 1,3,-1
 390 -140 l 1,4,-1
 140 -140 l 1,5,-1
 140 770 l 1,6,-1
 390 770 l 1,7,-1
 390 710 l 1,0,-1
EndSplineSet
EndChar

StartChar: backslash
Encoding: 92 92 63
Width: 500
GlyphClass: 2
Flags: HW
LayerCount: 2
Fore
SplineSet
48 730 m 1,0,-1
 120 730 l 1,1,-1
 452 -40 l 1,2,-1
 380 -40 l 1,3,-1
 48 730 l 1,0,-1
EndSplineSet
EndChar

StartChar: bracketright
Encoding: 93 93 64
Width: 500
GlyphClass: 2
Flags: HW
LayerCount: 2
Fore
SplineSet
110 710 m 1,0,-1
 110 770 l 1,1,-1
 360 770 l 1,2,-1
 360 -140 l 1,3,-1
 110 -140 l 1,4,-1
 110 -80 l 1,5,-1
 288 -80 l 1,6,-1
 288 710 l 1,7,-1
 110 710 l 1,0,-1
EndSplineSet
EndChar

StartChar: asciicircum
Encoding: 94 94 65
Width: 500
GlyphClass: 2
Flags: HW
LayerCount: 2
Fore
SplineSet
251 680 m 1,0,-1
 249 680 l 1,1,-1
 102 280 l 1,2,-1
 30 280 l 1,3,-1
 200 730 l 1,4,-1
 300 730 l 1,5,-1
 470 280 l 1,6,-1
 398 280 l 1,7,-1
 251 680 l 1,0,-1
EndSplineSet
EndChar

StartChar: underscore
Encoding: 95 95 66
Width: 500
GlyphClass: 2
Flags: HW
LayerCount: 2
Fore
SplineSet
50 -140 m 1,0,-1
 50 -84 l 1,1,-1
 450 -84 l 1,2,-1
 450 -140 l 1,3,-1
 50 -140 l 1,0,-1
EndSplineSet
EndChar

StartChar: grave
Encoding: 96 96 67
Width: 500
GlyphClass: 2
Flags: HW
LayerCount: 2
Fore
SplineSet
130 810 m 1,0,-1
 250 810 l 1,1,-1
 350 530 l 1,2,-1
 280 530 l 1,3,-1
 130 810 l 1,0,-1
EndSplineSet
EndChar

StartChar: a
Encoding: 97 97 68
Width: 500
GlyphClass: 2
Flags: HW
LayerCount: 2
Fore
SplineSet
255 530 m 0,0,1
 355 530 355 530 392.5 490 c 128,-1,2
 430 450 430 450 430 340 c 2,3,-1
 430 0 l 1,4,-1
 358 0 l 1,5,-1
 356 75 l 1,6,-1
 354 75 l 1,7,8
 307 -10 307 -10 205 -10 c 0,9,10
 140 -10 140 -10 100 31.5 c 128,-1,11
 60 73 60 73 60 145 c 0,12,13
 60 236 60 236 121.5 285.5 c 128,-1,14
 183 335 183 335 305 335 c 2,15,-1
 353 335 l 1,16,-1
 353 360 l 2,17,18
 353 417 353 417 331 440 c 128,-1,19
 309 463 309 463 255 463 c 0,20,21
 222 463 222 463 171 451 c 128,-1,22
 120 439 120 439 85 423 c 1,23,-1
 85 495 l 1,24,25
 120 510 120 510 170 520 c 128,-1,26
 220 530 220 530 255 530 c 0,0,1
353 275 m 1,27,-1
 305 275 l 2,28,29
 135 275 135 275 135 150 c 0,30,31
 135 105 135 105 158 81 c 128,-1,32
 181 57 181 57 220 57 c 0,33,34
 279 57 279 57 316 105 c 128,-1,35
 353 153 353 153 353 240 c 2,36,-1
 353 275 l 1,27,-1
EndSplineSet
EndChar

StartChar: b
Encoding: 98 98 69
Width: 500
GlyphClass: 2
Flags: HW
LayerCount: 2
Fore
SplineSet
144 445 m 1,0,-1
 146 445 l 1,1,2
 189 530 189 530 280 530 c 0,3,4
 455 530 455 530 455 260 c 0,5,6
 455 125 455 125 407 57.5 c 128,-1,7
 359 -10 359 -10 280 -10 c 0,8,9
 196 -10 196 -10 143 75 c 1,10,-1
 141 75 l 1,11,-1
 139 0 l 1,12,-1
 65 0 l 1,13,-1
 65 750 l 1,14,-1
 144 750 l 1,15,-1
 144 445 l 1,0,-1
376 260 m 0,16,17
 376 455 376 455 260 455 c 0,18,19
 209 455 209 455 176.5 405.5 c 128,-1,20
 144 356 144 356 144 265 c 2,21,-1
 144 255 l 2,22,23
 144 164 144 164 176.5 114.5 c 128,-1,24
 209 65 209 65 260 65 c 0,25,26
 313 65 313 65 344.5 113.5 c 128,-1,27
 376 162 376 162 376 260 c 0,16,17
EndSplineSet
EndChar

StartChar: c
Encoding: 99 99 70
Width: 500
GlyphClass: 2
Flags: HW
LayerCount: 2
Fore
SplineSet
80 260 m 0,0,1
 80 394 80 394 135 462 c 128,-1,2
 190 530 190 530 290 530 c 0,3,4
 351 530 351 530 415 505 c 1,5,-1
 415 425 l 1,6,7
 355 458 355 458 295 458 c 0,8,9
 232 458 232 458 197 408 c 128,-1,10
 162 358 162 358 162 260 c 0,11,12
 162 159 162 159 199 109 c 128,-1,13
 236 59 236 59 300 59 c 0,14,15
 359 59 359 59 420 95 c 1,16,-1
 420 15 l 1,17,18
 356 -10 356 -10 295 -10 c 0,19,20
 193 -10 193 -10 136.5 57.5 c 128,-1,21
 80 125 80 125 80 260 c 0,0,1
EndSplineSet
EndChar

StartChar: d
Encoding: 100 100 71
Width: 500
GlyphClass: 2
Flags: HW
LayerCount: 2
Fore
SplineSet
356 750 m 1,0,-1
 435 750 l 1,1,-1
 435 0 l 1,2,-1
 361 0 l 1,3,-1
 359 75 l 1,4,-1
 357 75 l 1,5,6
 304 -10 304 -10 220 -10 c 0,7,8
 141 -10 141 -10 93 57.5 c 128,-1,9
 45 125 45 125 45 260 c 0,10,11
 45 530 45 530 220 530 c 0,12,13
 311 530 311 530 354 445 c 1,14,-1
 356 445 l 1,15,-1
 356 750 l 1,0,-1
124 260 m 0,16,17
 124 162 124 162 155.5 113.5 c 128,-1,18
 187 65 187 65 240 65 c 0,19,20
 291 65 291 65 323.5 114.5 c 128,-1,21
 356 164 356 164 356 255 c 2,22,-1
 356 265 l 2,23,24
 356 356 356 356 323.5 405.5 c 128,-1,25
 291 455 291 455 240 455 c 0,26,27
 124 455 124 455 124 260 c 0,16,17
EndSplineSet
EndChar

StartChar: e
Encoding: 101 101 72
Width: 500
GlyphClass: 2
Flags: HW
LayerCount: 2
Fore
SplineSet
138 234 m 1,0,1
 142 141 142 141 176 100 c 128,-1,2
 210 59 210 59 275 59 c 0,3,4
 336 59 336 59 410 95 c 1,5,-1
 410 15 l 1,6,7
 336 -10 336 -10 270 -10 c 0,8,9
 55 -10 55 -10 55 260 c 0,10,11
 55 401 55 401 105 465.5 c 128,-1,12
 155 530 155 530 255 530 c 0,13,14
 346 530 346 530 390.5 468 c 128,-1,15
 435 406 435 406 435 265 c 0,16,17
 435 254 435 254 433 234 c 1,18,-1
 138 234 l 1,0,1
138 300 m 1,19,-1
 356 300 l 1,20,21
 355 461 355 461 255 461 c 0,22,23
 198 461 198 461 170 425 c 128,-1,24
 142 389 142 389 138 300 c 1,19,-1
EndSplineSet
EndChar

StartChar: f
Encoding: 102 102 73
Width: 500
GlyphClass: 2
Flags: HW
LayerCount: 2
Fore
SplineSet
75 431 m 1,0,-1
 75 500 l 1,1,-1
 195 500 l 1,2,-1
 195 560 l 2,3,4
 195 658 195 658 228 699 c 128,-1,5
 261 740 261 740 335 740 c 0,6,7
 380 740 380 740 425 725 c 1,8,-1
 425 653 l 1,9,10
 387 671 387 671 350 671 c 0,11,12
 303 671 303 671 288.5 647.5 c 128,-1,13
 274 624 274 624 274 540 c 2,14,-1
 274 500 l 1,15,-1
 425 500 l 1,16,-1
 425 431 l 1,17,-1
 274 431 l 1,18,-1
 274 0 l 1,19,-1
 195 0 l 1,20,-1
 195 431 l 1,21,-1
 75 431 l 1,0,-1
EndSplineSet
EndChar

StartChar: g
Encoding: 103 103 74
Width: 500
GlyphClass: 2
Flags: HW
LayerCount: 2
Fore
SplineSet
55 -113 m 1,0,1
 149 -163 149 -163 235 -163 c 0,2,3
 301 -163 301 -163 338.5 -141 c 128,-1,4
 376 -119 376 -119 376 -85 c 0,5,6
 376 -50 376 -50 344 -31 c 128,-1,7
 312 -12 312 -12 230 -4 c 0,8,9
 85 9 85 9 85 95 c 0,10,11
 85 137 85 137 127 189 c 1,12,13
 60 239 60 239 60 340 c 0,14,15
 60 429 60 429 106 479.5 c 128,-1,16
 152 530 152 530 230 530 c 0,17,18
 320 530 320 530 367 455 c 1,19,-1
 369 455 l 1,20,-1
 371 520 l 1,21,-1
 445 520 l 1,22,-1
 445 338 l 2,23,24
 445 249 445 249 395 200.5 c 128,-1,25
 345 152 345 152 255 152 c 0,26,27
 228 152 228 152 197 159 c 1,28,29
 167 131 167 131 167 110 c 0,30,31
 167 88 167 88 187.5 76 c 128,-1,32
 208 64 208 64 260 60 c 0,33,34
 367 51 367 51 411 17 c 128,-1,35
 455 -17 455 -17 455 -85 c 0,36,37
 455 -154 455 -154 399 -192 c 128,-1,38
 343 -230 343 -230 235 -230 c 0,39,40
 140 -230 140 -230 55 -190 c 1,41,-1
 55 -113 l 1,0,1
139 340 m 0,42,43
 139 278 139 278 169 246.5 c 128,-1,44
 199 215 199 215 255 215 c 0,45,46
 307 215 307 215 336.5 246.5 c 128,-1,47
 366 278 366 278 366 338 c 0,48,49
 366 395 366 395 334.5 429 c 128,-1,50
 303 463 303 463 255 463 c 0,51,52
 200 463 200 463 169.5 431.5 c 128,-1,53
 139 400 139 400 139 340 c 0,42,43
EndSplineSet
EndChar

StartChar: h
Encoding: 104 104 75
Width: 500
GlyphClass: 2
Flags: HW
LayerCount: 2
Fore
SplineSet
440 330 m 2,0,-1
 440 0 l 1,1,-1
 363 0 l 1,2,-1
 363 312 l 2,3,4
 363 400 363 400 343 429.5 c 128,-1,5
 323 459 323 459 270 459 c 0,6,7
 220 459 220 459 184.5 403 c 128,-1,8
 149 347 149 347 149 252 c 2,9,-1
 149 0 l 1,10,-1
 70 0 l 1,11,-1
 70 750 l 1,12,-1
 149 750 l 1,13,-1
 149 445 l 1,14,-1
 151 445 l 1,15,16
 170 484 170 484 207.5 507 c 128,-1,17
 245 530 245 530 290 530 c 0,18,19
 369 530 369 530 404.5 484.5 c 128,-1,20
 440 439 440 439 440 330 c 2,0,-1
EndSplineSet
EndChar

StartChar: i
Encoding: 105 105 76
Width: 500
GlyphClass: 2
Flags: HW
LayerCount: 2
Fore
SplineSet
316 520 m 1,0,-1
 316 68 l 1,1,-1
 425 68 l 1,2,-1
 425 0 l 1,3,-1
 95 0 l 1,4,-1
 95 68 l 1,5,-1
 234 68 l 1,6,-1
 234 452 l 1,7,-1
 125 452 l 1,8,-1
 125 520 l 1,9,-1
 316 520 l 1,0,-1
214 640 m 1,10,-1
 214 760 l 1,11,-1
 316 760 l 1,12,-1
 316 640 l 1,13,-1
 214 640 l 1,10,-1
EndSplineSet
EndChar

StartChar: j
Encoding: 106 106 77
Width: 500
GlyphClass: 2
Flags: HW
LayerCount: 2
Fore
SplineSet
249 -33 m 2,0,-1
 249 452 l 1,1,-1
 130 452 l 1,2,-1
 130 520 l 1,3,-1
 331 520 l 1,4,-1
 331 -33 l 2,5,6
 331 -98 331 -98 322.5 -134 c 128,-1,7
 314 -170 314 -170 286 -193 c 128,-1,8
 258 -216 258 -216 214 -223 c 128,-1,9
 170 -230 170 -230 91 -230 c 1,10,-1
 91 -162 l 1,11,12
 131 -162 131 -162 154 -161 c 128,-1,13
 177 -160 177 -160 196.5 -154.5 c 128,-1,14
 216 -149 216 -149 225 -142 c 128,-1,15
 234 -135 234 -135 240.5 -118.5 c 128,-1,16
 247 -102 247 -102 248 -84 c 128,-1,17
 249 -66 249 -66 249 -33 c 2,0,-1
229 640 m 1,18,-1
 229 760 l 1,19,-1
 331 760 l 1,20,-1
 331 640 l 1,21,-1
 229 640 l 1,18,-1
EndSplineSet
EndChar

StartChar: k
Encoding: 107 107 78
Width: 500
GlyphClass: 2
Flags: HW
LayerCount: 2
Fore
SplineSet
460 520 m 1,0,-1
 230 270 l 1,1,-1
 460 0 l 1,2,-1
 365 0 l 1,3,-1
 159 253 l 1,4,-1
 159 0 l 1,5,-1
 80 0 l 1,6,-1
 80 750 l 1,7,-1
 159 750 l 1,8,-1
 159 286 l 1,9,-1
 366 520 l 1,10,-1
 460 520 l 1,0,-1
EndSplineSet
EndChar

StartChar: l
Encoding: 108 108 79
Width: 500
GlyphClass: 2
Flags: HW
LayerCount: 2
Fore
SplineSet
281 150 m 2,0,1
 281 84 281 84 291.5 71 c 128,-1,2
 302 58 302 58 355 58 c 0,3,4
 388 58 388 58 430 64 c 1,5,-1
 430 -5 l 1,6,7
 383 -10 383 -10 345 -10 c 0,8,9
 255 -10 255 -10 227 18.5 c 128,-1,10
 199 47 199 47 199 140 c 2,11,-1
 199 662 l 1,12,-1
 70 662 l 1,13,-1
 70 730 l 1,14,-1
 281 730 l 1,15,-1
 281 150 l 2,0,1
EndSplineSet
EndChar

StartChar: m
Encoding: 109 109 80
Width: 500
GlyphClass: 2
Flags: HW
LayerCount: 2
Fore
SplineSet
290 0 m 1,0,-1
 212 0 l 1,1,-1
 212 360 l 1,2,3
 211 419 211 419 201.5 438 c 128,-1,4
 192 457 192 457 169 457 c 0,5,6
 149 457 149 457 134 433 c 128,-1,7
 119 409 119 409 109 349.5 c 128,-1,8
 99 290 99 290 99 200 c 2,9,-1
 99 0 l 1,10,-1
 20 0 l 1,11,-1
 20 520 l 1,12,-1
 90 520 l 1,13,-1
 92 450 l 1,14,-1
 94 450 l 1,15,16
 111 488 111 488 136.5 509 c 128,-1,17
 162 530 162 530 190 530 c 0,18,19
 221 530 221 530 240.5 511.5 c 128,-1,20
 260 493 260 493 274 450 c 1,21,-1
 276 450 l 1,22,23
 315 530 315 530 380 530 c 0,24,25
 433 530 433 530 456.5 497.5 c 128,-1,26
 480 465 480 465 480 380 c 2,27,-1
 480 0 l 1,28,-1
 403 0 l 1,29,-1
 403 360 l 1,30,31
 402 419 402 419 391.5 438 c 128,-1,32
 381 457 381 457 354 457 c 0,33,34
 326 457 326 457 308 409.5 c 128,-1,35
 290 362 290 362 290 260 c 2,36,-1
 290 0 l 1,0,-1
EndSplineSet
EndChar

StartChar: n
Encoding: 110 110 81
Width: 500
GlyphClass: 2
Flags: HW
LayerCount: 2
Fore
SplineSet
440 330 m 2,0,-1
 440 0 l 1,1,-1
 363 0 l 1,2,-1
 363 312 l 2,3,4
 363 400 363 400 343 429.5 c 128,-1,5
 323 459 323 459 270 459 c 0,6,7
 220 459 220 459 184.5 403 c 128,-1,8
 149 347 149 347 149 252 c 2,9,-1
 149 0 l 1,10,-1
 70 0 l 1,11,-1
 70 520 l 1,12,-1
 144 520 l 1,13,-1
 146 445 l 1,14,-1
 148 445 l 1,15,16
 167 483 167 483 206 506.5 c 128,-1,17
 245 530 245 530 290 530 c 0,18,19
 369 530 369 530 404.5 484.5 c 128,-1,20
 440 439 440 439 440 330 c 2,0,-1
EndSplineSet
EndChar

StartChar: o
Encoding: 111 111 82
Width: 500
GlyphClass: 2
Flags: HW
LayerCount: 2
Fore
SplineSet
250 530 m 128,-1,1
 450 530 450 530 450 260 c 128,-1,2
 450 -10 450 -10 250 -10 c 128,-1,3
 50 -10 50 -10 50 260 c 128,-1,0
 50 530 50 530 250 530 c 128,-1,1
250 59 m 128,-1,5
 311 59 311 59 339.5 104.5 c 128,-1,6
 368 150 368 150 368 260 c 128,-1,7
 368 370 368 370 339.5 415.5 c 128,-1,8
 311 461 311 461 250 461 c 128,-1,9
 189 461 189 461 160.5 415.5 c 128,-1,10
 132 370 132 370 132 260 c 128,-1,11
 132 150 132 150 160.5 104.5 c 128,-1,4
 189 59 189 59 250 59 c 128,-1,5
EndSplineSet
EndChar

StartChar: p
Encoding: 112 112 83
Width: 500
GlyphClass: 2
Flags: HW
LayerCount: 2
Fore
SplineSet
141 75 m 1,0,-1
 139 75 l 1,1,-1
 139 -220 l 1,2,-1
 60 -220 l 1,3,-1
 60 520 l 1,4,-1
 134 520 l 1,5,-1
 136 445 l 1,6,-1
 138 445 l 1,7,8
 192 530 192 530 275 530 c 0,9,10
 450 530 450 530 450 260 c 0,11,12
 450 125 450 125 402 57.5 c 128,-1,13
 354 -10 354 -10 275 -10 c 0,14,15
 184 -10 184 -10 141 75 c 1,0,-1
371 260 m 0,16,17
 371 455 371 455 255 455 c 0,18,19
 204 455 204 455 171.5 405.5 c 128,-1,20
 139 356 139 356 139 265 c 2,21,-1
 139 255 l 2,22,23
 139 164 139 164 171.5 114.5 c 128,-1,24
 204 65 204 65 255 65 c 0,25,26
 308 65 308 65 339.5 113.5 c 128,-1,27
 371 162 371 162 371 260 c 0,16,17
EndSplineSet
EndChar

StartChar: q
Encoding: 113 113 84
Width: 500
GlyphClass: 2
Flags: HW
LayerCount: 2
Fore
SplineSet
359 75 m 1,0,1
 316 -10 316 -10 225 -10 c 0,2,3
 146 -10 146 -10 98 57.5 c 128,-1,4
 50 125 50 125 50 260 c 0,5,6
 50 530 50 530 225 530 c 0,7,8
 308 530 308 530 362 445 c 1,9,-1
 364 445 l 1,10,-1
 366 520 l 1,11,-1
 440 520 l 1,12,-1
 440 -220 l 1,13,-1
 361 -220 l 1,14,-1
 361 75 l 1,15,-1
 359 75 l 1,0,1
129 260 m 0,16,17
 129 162 129 162 160.5 113.5 c 128,-1,18
 192 65 192 65 245 65 c 0,19,20
 296 65 296 65 328.5 114.5 c 128,-1,21
 361 164 361 164 361 255 c 2,22,-1
 361 265 l 2,23,24
 361 356 361 356 328.5 405.5 c 128,-1,25
 296 455 296 455 245 455 c 0,26,27
 129 455 129 455 129 260 c 0,16,17
EndSplineSet
EndChar

StartChar: r
Encoding: 114 114 85
Width: 500
GlyphClass: 2
Flags: HW
LayerCount: 2
Fore
SplineSet
186 520 m 1,0,-1
 186 420 l 1,1,-1
 188 420 l 1,2,3
 250 530 250 530 360 530 c 0,4,5
 397 530 397 530 430 520 c 1,6,-1
 430 450 l 1,7,8
 395 461 395 461 360 461 c 0,9,10
 287 461 287 461 238 400 c 128,-1,11
 189 339 189 339 189 240 c 2,12,-1
 189 0 l 1,13,-1
 110 0 l 1,14,-1
 110 520 l 1,15,-1
 186 520 l 1,0,-1
EndSplineSet
EndChar

StartChar: s
Encoding: 115 115 86
Width: 500
GlyphClass: 2
Flags: HW
LayerCount: 2
Fore
SplineSet
255 463 m 0,0,1
 159 463 159 463 159 390 c 0,2,3
 159 356 159 356 180 335.5 c 128,-1,4
 201 315 201 315 255 300 c 0,5,6
 361 270 361 270 395.5 237 c 128,-1,7
 430 204 430 204 430 135 c 128,-1,8
 430 66 430 66 383 28 c 128,-1,9
 336 -10 336 -10 250 -10 c 128,-1,10
 164 -10 164 -10 85 30 c 1,11,-1
 85 110 l 1,12,13
 163 57 163 57 240 57 c 0,14,15
 351 57 351 57 351 135 c 0,16,17
 351 172 351 172 329.5 192 c 128,-1,18
 308 212 308 212 245 230 c 0,19,20
 153 256 153 256 116.5 292 c 128,-1,21
 80 328 80 328 80 390 c 0,22,23
 80 456 80 456 123.5 493 c 128,-1,24
 167 530 167 530 250 530 c 0,25,26
 334 530 334 530 410 495 c 1,27,-1
 410 420 l 1,28,29
 331 463 331 463 255 463 c 0,0,1
EndSplineSet
EndChar

StartChar: t
Encoding: 116 116 87
Width: 500
GlyphClass: 2
Flags: HW
LayerCount: 2
Fore
SplineSet
244 500 m 1,0,-1
 425 500 l 1,1,-1
 425 431 l 1,2,-1
 244 431 l 1,3,-1
 244 150 l 2,4,5
 244 94 244 94 260.5 75.5 c 128,-1,6
 277 57 277 57 325 57 c 0,7,8
 375 57 375 57 415 75 c 1,9,-1
 415 5 l 1,10,11
 367 -10 367 -10 315 -10 c 0,12,13
 231 -10 231 -10 198 22.5 c 128,-1,14
 165 55 165 55 165 140 c 2,15,-1
 165 431 l 1,16,-1
 65 431 l 1,17,-1
 65 500 l 1,18,-1
 165 500 l 1,19,-1
 165 690 l 1,20,-1
 244 690 l 1,21,-1
 244 500 l 1,0,-1
EndSplineSet
EndChar

StartChar: u
Encoding: 117 117 88
Width: 500
GlyphClass: 2
Flags: HW
LayerCount: 2
Fore
SplineSet
65 180 m 2,0,-1
 65 520 l 1,1,-1
 142 520 l 1,2,-1
 142 198 l 2,3,4
 142 115 142 115 160.5 88 c 128,-1,5
 179 61 179 61 230 61 c 0,6,7
 279 61 279 61 312.5 116 c 128,-1,8
 346 171 346 171 346 268 c 2,9,-1
 346 520 l 1,10,-1
 425 520 l 1,11,-1
 425 0 l 1,12,-1
 351 0 l 1,13,-1
 349 75 l 1,14,-1
 347 75 l 1,15,16
 328 35 328 35 291 12.5 c 128,-1,17
 254 -10 254 -10 210 -10 c 0,18,19
 133 -10 133 -10 99 33 c 128,-1,20
 65 76 65 76 65 180 c 2,0,-1
EndSplineSet
EndChar

StartChar: v
Encoding: 118 118 89
Width: 500
GlyphClass: 2
Flags: HW
LayerCount: 2
Fore
SplineSet
251 60 m 1,0,-1
 253 60 l 1,1,-1
 368 520 l 1,2,-1
 450 520 l 1,3,-1
 305 0 l 1,4,-1
 195 0 l 1,5,-1
 50 520 l 1,6,-1
 136 520 l 1,7,-1
 251 60 l 1,0,-1
EndSplineSet
EndChar

StartChar: w
Encoding: 119 119 90
Width: 500
GlyphClass: 2
Flags: HW
LayerCount: 2
Fore
SplineSet
351 80 m 1,0,-1
 353 80 l 1,1,-1
 402 520 l 1,2,-1
 480 520 l 1,3,-1
 400 0 l 1,4,-1
 301 0 l 1,5,-1
 247 440 l 1,6,-1
 245 440 l 1,7,-1
 196 0 l 1,8,-1
 100 0 l 1,9,-1
 20 520 l 1,10,-1
 102 520 l 1,11,-1
 151 80 l 1,12,-1
 153 80 l 1,13,-1
 202 520 l 1,14,-1
 302 520 l 1,15,-1
 351 80 l 1,0,-1
EndSplineSet
EndChar

StartChar: x
Encoding: 120 120 91
Width: 500
GlyphClass: 2
Flags: HW
LayerCount: 2
Fore
SplineSet
251 305 m 1,0,-1
 253 305 l 1,1,-1
 357 520 l 1,2,-1
 445 520 l 1,3,-1
 300 260 l 1,4,-1
 445 0 l 1,5,-1
 351 0 l 1,6,-1
 249 215 l 1,7,-1
 247 215 l 1,8,-1
 145 0 l 1,9,-1
 55 0 l 1,10,-1
 200 260 l 1,11,-1
 55 520 l 1,12,-1
 147 520 l 1,13,-1
 251 305 l 1,0,-1
EndSplineSet
EndChar

StartChar: y
Encoding: 121 121 92
Width: 500
GlyphClass: 2
Flags: HW
LayerCount: 2
Fore
SplineSet
133 520 m 1,0,-1
 264 110 l 1,1,-1
 266 110 l 1,2,-1
 378 520 l 1,3,-1
 465 520 l 1,4,-1
 305 0 l 2,5,6
 274 -101 274 -101 244.5 -148.5 c 128,-1,7
 215 -196 215 -196 176 -213 c 128,-1,8
 137 -230 137 -230 65 -230 c 1,9,-1
 65 -160 l 1,10,11
 106 -160 106 -160 125.5 -156.5 c 128,-1,12
 145 -153 145 -153 164 -135 c 128,-1,13
 183 -117 183 -117 194.5 -88.5 c 128,-1,14
 206 -60 206 -60 225 0 c 1,15,-1
 45 520 l 1,16,-1
 133 520 l 1,0,-1
EndSplineSet
EndChar

StartChar: z
Encoding: 122 122 93
Width: 500
GlyphClass: 2
Flags: HW
LayerCount: 2
Fore
SplineSet
80 520 m 1,0,-1
 420 520 l 1,1,-1
 420 451 l 1,2,-1
 172 71 l 1,3,-1
 172 69 l 1,4,-1
 420 69 l 1,5,-1
 420 0 l 1,6,-1
 80 0 l 1,7,-1
 80 69 l 1,8,-1
 328 449 l 1,9,-1
 328 451 l 1,10,-1
 80 451 l 1,11,-1
 80 520 l 1,0,-1
EndSplineSet
EndChar

StartChar: braceleft
Encoding: 123 123 94
Width: 500
GlyphClass: 2
Flags: HW
LayerCount: 2
Fore
SplineSet
195 316 m 1,0,-1
 199 314 l 1,1,2
 280 277 280 277 280 165 c 2,3,-1
 280 30 l 2,4,5
 280 -42 280 -42 296.5 -61 c 128,-1,6
 313 -80 313 -80 375 -80 c 2,7,-1
 415 -80 l 1,8,-1
 415 -140 l 1,9,-1
 350 -140 l 2,10,11
 277 -140 277 -140 242.5 -104.5 c 128,-1,12
 208 -69 208 -69 208 10 c 2,13,-1
 208 160 l 2,14,15
 208 226 208 226 186.5 255.5 c 128,-1,16
 165 285 165 285 120 285 c 2,17,-1
 75 285 l 1,18,-1
 75 345 l 1,19,-1
 120 345 l 2,20,21
 165 345 165 345 186.5 374.5 c 128,-1,22
 208 404 208 404 208 470 c 2,23,-1
 208 620 l 2,24,25
 208 699 208 699 242.5 734.5 c 128,-1,26
 277 770 277 770 350 770 c 2,27,-1
 415 770 l 1,28,-1
 415 710 l 1,29,-1
 375 710 l 2,30,31
 313 710 313 710 296.5 691 c 128,-1,32
 280 672 280 672 280 600 c 2,33,-1
 280 465 l 2,34,35
 280 404 280 404 260 370 c 128,-1,36
 240 336 240 336 195 316 c 1,0,-1
EndSplineSet
EndChar

StartChar: bar
Encoding: 124 124 95
Width: 500
GlyphClass: 2
Flags: HW
LayerCount: 2
Fore
SplineSet
212 -220 m 1,0,-1
 212 810 l 1,1,-1
 288 810 l 1,2,-1
 288 -220 l 1,3,-1
 212 -220 l 1,0,-1
EndSplineSet
EndChar

StartChar: braceright
Encoding: 125 125 96
Width: 500
GlyphClass: 2
Flags: HW
LayerCount: 2
Fore
SplineSet
305 316 m 1,0,1
 260 336 260 336 240 370 c 128,-1,2
 220 404 220 404 220 465 c 2,3,-1
 220 600 l 2,4,5
 220 672 220 672 203.5 691 c 128,-1,6
 187 710 187 710 125 710 c 2,7,-1
 85 710 l 1,8,-1
 85 770 l 1,9,-1
 150 770 l 2,10,11
 223 770 223 770 257.5 734.5 c 128,-1,12
 292 699 292 699 292 620 c 2,13,-1
 292 470 l 2,14,15
 292 404 292 404 313.5 374.5 c 128,-1,16
 335 345 335 345 380 345 c 2,17,-1
 425 345 l 1,18,-1
 425 285 l 1,19,-1
 380 285 l 2,20,21
 335 285 335 285 313.5 255.5 c 128,-1,22
 292 226 292 226 292 160 c 2,23,-1
 292 10 l 2,24,25
 292 -69 292 -69 257.5 -104.5 c 128,-1,26
 223 -140 223 -140 150 -140 c 2,27,-1
 85 -140 l 1,28,-1
 85 -80 l 1,29,-1
 125 -80 l 2,30,31
 187 -80 187 -80 203.5 -61 c 128,-1,32
 220 -42 220 -42 220 30 c 2,33,-1
 220 165 l 2,34,35
 220 277 220 277 301 314 c 1,36,-1
 305 316 l 1,0,1
EndSplineSet
EndChar

StartChar: asciitilde
Encoding: 126 126 97
Width: 500
GlyphClass: 2
Flags: HW
LayerCount: 2
Fore
SplineSet
348 181 m 0,0,1
 322 181 322 181 301.5 190 c 128,-1,2
 281 199 281 199 266.5 216.5 c 128,-1,3
 252 234 252 234 245.5 246 c 128,-1,4
 239 258 239 258 229 279 c 2,5,-1
 225 288 l 1,6,7
 205 330 205 330 188.5 348 c 0,8,9
 174.357 363.429 174.357 363.429 158.378 363.429 c 0,10,11
 155.714 363.429 155.714 363.429 153 363 c 0,12,13
 142 361 142 361 135.5 357 c 128,-1,14
 129 353 129 353 120 326 c 128,-1,15
 111 299 111 299 111 250 c 1,16,-1
 51 250 l 1,17,18
 51 409 51 409 144 423 c 0,19,20
 152 424.143 152 424.143 159.633 424.143 c 0,21,22
 178.714 424.143 178.714 424.143 195.5 417 c 0,23,24
 219 407 219 407 236.5 384.5 c 128,-1,25
 254 362 254 362 262 348.5 c 128,-1,26
 270 335 270 335 280 313 c 2,27,-1
 284 304 l 2,28,29
 300 269 300 269 312.5 255 c 128,-1,30
 325 241 325 241 348 241 c 0,31,32
 366 241 366 241 377.5 271.5 c 128,-1,33
 389 302 389 302 389 350 c 1,34,-1
 449 350 l 1,35,36
 449 272 449 272 422 226.5 c 128,-1,37
 395 181 395 181 348 181 c 0,0,1
EndSplineSet
EndChar

StartChar: exclamdown
Encoding: 161 161 99
Width: 500
GlyphClass: 2
Flags: HW
LayerCount: 2
Fore
SplineSet
195 380 m 1,0,-1
 195 510 l 1,1,-1
 305 510 l 1,2,-1
 305 380 l 1,3,-1
 195 380 l 1,0,-1
200 -220 m 1,4,-1
 210 295 l 1,5,-1
 290 295 l 1,6,-1
 300 -220 l 1,7,-1
 200 -220 l 1,4,-1
EndSplineSet
EndChar

StartChar: cent
Encoding: 162 162 100
Width: 1000
GlyphClass: 2
Flags: HW
LayerCount: 2
Fore
SplineSet
526 591 m 1,0,1
 523 592 523 592 507 592 c 0,2,3
 429 592 429 592 379 539 c 1,4,5
 331 486 331 486 331 405 c 0,6,7
 331 306 331 306 401 251 c 1,8,-1
 526 591 l 1,0,1
590 771 m 1,9,-1
 663 771 l 1,10,-1
 613 639 l 1,11,12
 697 596 697 596 731 496 c 1,13,-1
 644 496 l 1,14,15
 629 545 629 545 589 570 c 1,16,-1
 460 223 l 1,17,18
 483 218 483 218 501 218 c 0,19,20
 619 218 619 218 654 331 c 1,21,-1
 742 331 l 1,22,23
 720 240 720 240 647 190 c 1,24,25
 582 148 582 148 503 148 c 0,26,27
 470 148 470 148 435 157 c 1,28,-1
 389 31 l 1,29,-1
 317 31 l 1,30,-1
 375 181 l 1,31,32
 250 255 250 255 250 405 c 0,33,34
 250 516 250 516 325 590 c 1,35,36
 396 662 396 662 504 662 c 0,37,38
 530 662 530 662 550 658 c 1,39,-1
 590 771 l 1,9,-1
EndSplineSet
EndChar

StartChar: sterling
Encoding: 163 163 101
Width: 1000
GlyphClass: 2
Flags: HW
LayerCount: 2
Fore
SplineSet
421 169 m 1,0,1
 354 226 354 226 303 226 c 0,2,3
 244 226 244 226 231 181 c 0,4,5
 230 180 230 180 230 176 c 0,6,7
 230 99 230 99 312 99 c 0,8,9
 384 99 384 99 421 169 c 1,0,1
235 483 m 1,10,-1
 375 483 l 1,11,12
 349 546 349 546 349 595 c 0,13,14
 349 674 349 674 404 723 c 1,15,16
 456 771 456 771 531 771 c 0,17,18
 620 771 620 771 673 714 c 1,19,20
 720 666 720 666 724 584 c 1,21,-1
 638 584 l 1,22,23
 629 701 629 701 530 701 c 0,24,25
 429 701 429 701 429 588 c 0,26,27
 429 548 429 548 453 483 c 1,28,-1
 680 483 l 1,29,-1
 680 411 l 1,30,-1
 483 411 l 1,31,32
 510 334 510 334 510 269 c 0,33,34
 510 230 510 230 501 186 c 1,35,36
 595 107 595 107 653 107 c 0,37,38
 739 107 739 107 777 241 c 1,39,-1
 845 189 l 1,40,41
 771 31 771 31 660 31 c 0,42,43
 582 31 582 31 473 121 c 1,44,45
 420 31 420 31 308 31 c 0,46,47
 261 31 261 31 224 53 c 0,48,49
 157 92 157 92 157 169 c 0,50,51
 157 213 157 213 186 248 c 1,52,53
 226 294 226 294 300 294 c 0,54,55
 361 294 361 294 440 236 c 1,56,57
 440 243 440 243 440.5 251 c 128,-1,58
 441 259 441 259 441.5 263.5 c 128,-1,59
 442 268 442 268 442 270 c 0,60,61
 442 324 442 324 407 411 c 1,62,-1
 235 411 l 1,63,-1
 235 483 l 1,10,-1
EndSplineSet
EndChar

StartChar: currency
Encoding: 164 164 102
Width: 500
GlyphClass: 2
Flags: HW
LayerCount: 2
Fore
SplineSet
397 469 m 1,0,1
 430 423 430 423 430 365 c 128,-1,2
 430 307 430 307 397 261 c 1,3,-1
 466 192 l 1,4,-1
 423 149 l 1,5,-1
 354 218 l 1,6,7
 308 185 308 185 250 185 c 128,-1,8
 192 185 192 185 146 218 c 1,9,-1
 77 149 l 1,10,-1
 34 192 l 1,11,-1
 103 261 l 1,12,13
 70 307 70 307 70 365 c 128,-1,14
 70 423 70 423 103 469 c 1,15,-1
 34 538 l 1,16,-1
 77 581 l 1,17,-1
 146 512 l 1,18,19
 192 545 192 545 250 545 c 128,-1,20
 308 545 308 545 354 512 c 1,21,-1
 423 581 l 1,22,-1
 466 538 l 1,23,-1
 397 469 l 1,0,1
250 250 m 128,-1,25
 298 250 298 250 331.5 283.5 c 128,-1,26
 365 317 365 317 365 365 c 128,-1,27
 365 413 365 413 331.5 446.5 c 128,-1,28
 298 480 298 480 250 480 c 128,-1,29
 202 480 202 480 168.5 446.5 c 128,-1,30
 135 413 135 413 135 365 c 128,-1,31
 135 317 135 317 168.5 283.5 c 128,-1,24
 202 250 202 250 250 250 c 128,-1,25
EndSplineSet
EndChar

StartChar: yen
Encoding: 165 165 103
Width: 500
GlyphClass: 2
Flags: HW
LayerCount: 2
Fore
SplineSet
60 140 m 1,0,-1
 60 205 l 1,1,-1
 209 205 l 1,2,-1
 209 290 l 1,3,-1
 60 290 l 1,4,-1
 60 355 l 1,5,-1
 183 355 l 1,6,-1
 30 730 l 1,7,-1
 120 730 l 1,8,-1
 251 375 l 1,9,-1
 253 375 l 1,10,-1
 385 730 l 1,11,-1
 470 730 l 1,12,-1
 317 355 l 1,13,-1
 440 355 l 1,14,-1
 440 290 l 1,15,-1
 291 290 l 1,16,-1
 291 205 l 1,17,-1
 440 205 l 1,18,-1
 440 140 l 1,19,-1
 291 140 l 1,20,-1
 291 0 l 1,21,-1
 209 0 l 1,22,-1
 209 140 l 1,23,-1
 60 140 l 1,0,-1
EndSplineSet
EndChar

StartChar: brokenbar
Encoding: 166 166 104
Width: 500
GlyphClass: 2
Flags: HW
LayerCount: 2
Fore
SplineSet
212 -140 m 1,0,-1
 212 220 l 1,1,-1
 288 220 l 1,2,-1
 288 -140 l 1,3,-1
 212 -140 l 1,0,-1
212 370 m 1,4,-1
 212 730 l 1,5,-1
 288 730 l 1,6,-1
 288 370 l 1,7,-1
 212 370 l 1,4,-1
EndSplineSet
EndChar

StartChar: section
Encoding: 167 167 105
Width: 1000
GlyphClass: 2
Flags: HW
LayerCount: 2
Fore
SplineSet
437 497 m 1,0,1
 373 461 373 461 373 407 c 0,2,3
 373 370 373 370 417 338 c 0,4,5
 450 315 450 315 513 286 c 0,6,7
 543 272 543 272 560 263 c 1,8,9
 624 299 624 299 624 354 c 0,10,11
 624 387 624 387 601 410 c 0,12,13
 570 440 570 440 485 477 c 0,14,15
 470 483 470 483 469 484 c 0,16,17
 463 486 463 486 458 488 c 0,18,19
 453 489 453 489 451 491 c 1,20,-1
 437 497 l 1,0,1
380 131 m 1,21,22
 387 7 387 7 498 7 c 0,23,24
 608 7 608 7 608 97 c 0,25,26
 608 149 608 149 571 179 c 0,27,28
 543 201 543 201 464 236 c 0,29,30
 376 274 376 274 338 305 c 0,31,32
 288 347 288 347 288 404 c 0,33,34
 288 472 288 472 378 533 c 1,35,36
 375 534 375 534 375 535 c 0,37,38
 308 584 308 584 308 661 c 0,39,40
 308 721 308 721 352 768 c 0,41,42
 408 828 408 828 498 828 c 0,43,44
 590 828 590 828 645 771 c 0,45,46
 692 723 692 723 696 636 c 1,47,-1
 608 636 l 1,48,49
 605 755 605 755 498 755 c 0,50,51
 392 755 392 755 392 660 c 0,52,53
 392 606 392 606 446 571 c 0,54,55
 472 554 472 554 530 529 c 0,56,57
 628 487 628 487 660 458 c 0,58,59
 708 416 708 416 708 357 c 0,60,61
 708 285 708 285 620 228 c 1,62,63
 637 222 637 222 659 194 c 0,64,65
 693 151 693 151 693 96 c 0,66,67
 693 23 693 23 638 -23 c 0,68,69
 584 -68 584 -68 498 -68 c 0,70,71
 313 -68 313 -68 289 131 c 1,72,-1
 380 131 l 1,21,22
EndSplineSet
EndChar

StartChar: dieresis
Encoding: 168 168 106
Width: 1000
GlyphClass: 2
Flags: HW
LayerCount: 2
Fore
SplineSet
567 750 m 1,0,-1
 675 750 l 1,1,-1
 675 650 l 1,2,-1
 567 650 l 1,3,-1
 567 750 l 1,0,-1
325 750 m 1,4,-1
 433 750 l 1,5,-1
 433 650 l 1,6,-1
 325 650 l 1,7,-1
 325 750 l 1,4,-1
EndSplineSet
EndChar

StartChar: copyright
Encoding: 169 169 107
Width: 500
GlyphClass: 2
Flags: HW
LayerCount: 2
Fore
SplineSet
274 211 m 0,0,1
 306 211 306 211 343 229 c 1,2,-1
 343 174 l 1,3,4
 307 159 307 159 264 159 c 0,5,6
 128 159 128 159 128 365 c 128,-1,7
 128 571 128 571 262 571 c 0,8,9
 303 571 303 571 340 557 c 1,10,-1
 340 504 l 1,11,12
 302 519 302 519 272 519 c 0,13,14
 231 519 231 519 209.5 485.5 c 128,-1,15
 188 452 188 452 188 365 c 0,16,17
 188 211 188 211 274 211 c 0,0,1
250 35 m 128,-1,19
 144 35 144 35 77 121.5 c 128,-1,20
 10 208 10 208 10 365 c 128,-1,21
 10 522 10 522 77 608.5 c 128,-1,22
 144 695 144 695 250 695 c 128,-1,23
 356 695 356 695 423 608.5 c 128,-1,24
 490 522 490 522 490 365 c 128,-1,25
 490 208 490 208 423 121.5 c 128,-1,18
 356 35 356 35 250 35 c 128,-1,19
250 85 m 128,-1,27
 338 85 338 85 389 160 c 128,-1,28
 440 235 440 235 440 365 c 128,-1,29
 440 495 440 495 389 570 c 128,-1,30
 338 645 338 645 250 645 c 128,-1,31
 162 645 162 645 111 570 c 128,-1,32
 60 495 60 495 60 365 c 128,-1,33
 60 235 60 235 111 160 c 128,-1,26
 162 85 162 85 250 85 c 128,-1,27
EndSplineSet
EndChar

StartChar: ordfeminine
Encoding: 170 170 108
Width: 500
GlyphClass: 2
Flags: HW
LayerCount: 2
Fore
SplineSet
210 304 m 0,0,1
 157 304 157 304 126.5 337 c 128,-1,2
 96 370 96 370 96 428 c 0,3,4
 96 493 96 493 143.5 533.5 c 128,-1,5
 191 574 191 574 296 574 c 2,6,-1
 328 574 l 1,7,-1
 328 598 l 2,8,9
 328 644 328 644 311 662.5 c 128,-1,10
 294 681 294 681 250 681 c 0,11,12
 185 681 185 681 114 651 c 1,13,-1
 114 708 l 1,14,15
 186 736 186 736 252 736 c 0,16,17
 329 736 329 736 360.5 703.5 c 128,-1,18
 392 671 392 671 392 590 c 2,19,-1
 392 312 l 1,20,-1
 331 312 l 1,21,-1
 330 363 l 1,22,-1
 329 363 l 1,23,24
 289 304 289 304 210 304 c 0,0,1
70 200 m 1,25,-1
 70 255 l 1,26,-1
 430 255 l 1,27,-1
 430 200 l 1,28,-1
 70 200 l 1,25,-1
328 528 m 1,29,-1
 296 528 l 2,30,31
 158 528 158 528 158 432 c 0,32,33
 158 396 158 396 176.5 376 c 128,-1,34
 195 356 195 356 226 356 c 0,35,36
 272 356 272 356 300 391 c 128,-1,37
 328 426 328 426 328 488 c 2,38,-1
 328 528 l 1,29,-1
EndSplineSet
EndChar

StartChar: guillemotleft
Encoding: 171 171 109
Width: 500
GlyphClass: 2
Flags: HW
LayerCount: 2
Fore
SplineSet
445 435 m 1,0,-1
 302 290 l 1,1,-1
 445 145 l 1,2,-1
 445 50 l 1,3,-1
 248 255 l 1,4,-1
 248 325 l 1,5,-1
 445 530 l 1,6,-1
 445 435 l 1,0,-1
242 435 m 1,7,-1
 100 290 l 1,8,-1
 242 145 l 1,9,-1
 242 50 l 1,10,-1
 45 255 l 1,11,-1
 45 325 l 1,12,-1
 242 530 l 1,13,-1
 242 435 l 1,7,-1
EndSplineSet
EndChar

StartChar: logicalnot
Encoding: 172 172 110
Width: 1000
GlyphClass: 2
Flags: HW
LayerCount: 2
Fore
SplineSet
62 586 m 1,0,-1
 913 586 l 1,1,-1
 913 157 l 1,2,-1
 847 157 l 1,3,-1
 847 520 l 1,4,-1
 62 520 l 1,5,-1
 62 586 l 1,0,-1
EndSplineSet
EndChar

StartChar: uni00AD
Encoding: 173 173 111
Width: 500
GlyphClass: 2
Flags: HW
LayerCount: 2
Fore
SplineSet
100 254 m 1,0,-1
 100 326 l 1,1,-1
 400 326 l 1,2,-1
 400 254 l 1,3,-1
 100 254 l 1,0,-1
EndSplineSet
EndChar

StartChar: registered
Encoding: 174 174 112
Width: 500
GlyphClass: 2
Flags: HW
LayerCount: 2
Fore
SplineSet
370 447 m 0,0,1
 370 366 370 366 318 341 c 1,2,-1
 318 340 l 1,3,4
 334 321 334 321 347 276 c 2,5,-1
 381 164 l 1,6,-1
 316 164 l 1,7,-1
 285 278 l 2,8,9
 277 306 277 306 268.5 315.5 c 128,-1,10
 260 325 260 325 245 325 c 2,11,-1
 211 325 l 1,12,-1
 211 164 l 1,13,-1
 148 164 l 1,14,-1
 148 567 l 1,15,-1
 242 567 l 2,16,17
 311 567 311 567 340.5 539.5 c 128,-1,18
 370 512 370 512 370 447 c 0,0,1
211 378 m 1,19,-1
 240 378 l 2,20,21
 278 378 278 378 293.5 393 c 128,-1,22
 309 408 309 408 309 447 c 0,23,24
 309 487 309 487 294.5 500.5 c 128,-1,25
 280 514 280 514 240 514 c 2,26,-1
 211 514 l 1,27,-1
 211 378 l 1,19,-1
250 35 m 128,-1,29
 144 35 144 35 77 121.5 c 128,-1,30
 10 208 10 208 10 365 c 128,-1,31
 10 522 10 522 77 608.5 c 128,-1,32
 144 695 144 695 250 695 c 128,-1,33
 356 695 356 695 423 608.5 c 128,-1,34
 490 522 490 522 490 365 c 128,-1,35
 490 208 490 208 423 121.5 c 128,-1,28
 356 35 356 35 250 35 c 128,-1,29
250 85 m 128,-1,37
 338 85 338 85 389 160 c 128,-1,38
 440 235 440 235 440 365 c 128,-1,39
 440 495 440 495 389 570 c 128,-1,40
 338 645 338 645 250 645 c 128,-1,41
 162 645 162 645 111 570 c 128,-1,42
 60 495 60 495 60 365 c 128,-1,43
 60 235 60 235 111 160 c 128,-1,36
 162 85 162 85 250 85 c 128,-1,37
EndSplineSet
EndChar

StartChar: macron
Encoding: 175 175 113
Width: 500
GlyphClass: 2
Flags: HW
LayerCount: 2
Fore
SplineSet
80 655 m 1,0,-1
 80 710 l 1,1,-1
 420 710 l 1,2,-1
 420 655 l 1,3,-1
 80 655 l 1,0,-1
EndSplineSet
EndChar

StartChar: degree
Encoding: 176 176 114
Width: 1000
GlyphClass: 2
Flags: HW
LayerCount: 2
Fore
SplineSet
164 784 m 0,0,1
 143 784 143 784 123 770 c 0,2,3
 96 750 96 750 96 716 c 0,4,5
 96 700 96 700 104 682 c 1,6,7
 123 648 123 648 165 648 c 0,8,9
 188 648 188 648 205 661 c 0,10,11
 232 682 232 682 232 716 c 0,12,13
 232 748 232 748 208 768 c 0,14,15
 189 784 189 784 164 784 c 0,0,1
165 828 m 0,16,17
 213 828 213 828 247 791 c 0,18,19
 276 759 276 759 276 716 c 0,20,21
 276 683 276 683 258 656 c 0,22,23
 225 604 225 604 164 604 c 0,24,25
 137 604 137 604 111 618 c 0,26,27
 52 650 52 650 52 717 c 0,28,29
 52 772 52 772 99 807 c 0,30,31
 128 828 128 828 165 828 c 0,16,17
EndSplineSet
EndChar

StartChar: plusminus
Encoding: 177 177 115
Width: 1000
GlyphClass: 2
Flags: HW
LayerCount: 2
Fore
SplineSet
157 112 m 1,0,-1
 843 112 l 1,1,-1
 843 42 l 1,2,-1
 157 42 l 1,3,-1
 157 112 l 1,0,-1
465 755 m 1,4,-1
 535 755 l 1,5,-1
 535 519 l 1,6,-1
 843 519 l 1,7,-1
 843 449 l 1,8,-1
 535 449 l 1,9,-1
 535 204 l 1,10,-1
 465 204 l 1,11,-1
 465 449 l 1,12,-1
 157 449 l 1,13,-1
 157 519 l 1,14,-1
 465 519 l 1,15,-1
 465 755 l 1,4,-1
EndSplineSet
EndChar

StartChar: uni00B2
Encoding: 178 178 116
Width: 500
GlyphClass: 2
Flags: HW
LayerCount: 2
Fore
SplineSet
356 345 m 1,0,-1
 356 292 l 1,1,-1
 144 292 l 1,2,-1
 144 345 l 1,3,4
 226 444 226 444 259.5 505.5 c 128,-1,5
 293 567 293 567 293 617 c 0,6,7
 293 683 293 683 236 683 c 0,8,9
 192 683 192 683 144 637 c 1,10,-1
 144 696 l 1,11,12
 190 736 190 736 247 736 c 0,13,14
 353 736 353 736 353 621 c 0,15,16
 353 564 353 564 320.5 500 c 128,-1,17
 288 436 288 436 213 346 c 1,18,-1
 213 345 l 1,19,-1
 356 345 l 1,0,-1
EndSplineSet
EndChar

StartChar: uni00B3
Encoding: 179 179 117
Width: 500
GlyphClass: 2
Flags: HW
LayerCount: 2
Fore
SplineSet
238 684 m 0,0,1
 195 684 195 684 147 653 c 1,2,-1
 147 709 l 1,3,4
 200 736 200 736 247 736 c 0,5,6
 303 736 303 736 331.5 710 c 128,-1,7
 360 684 360 684 360 636 c 0,8,9
 360 555 360 555 287 529 c 1,10,-1
 287 528 l 1,11,12
 366 508 366 508 366 416 c 0,13,14
 366 286 366 286 240 286 c 0,15,16
 190 286 190 286 138 310 c 1,17,-1
 138 370 l 1,18,19
 188 338 188 338 232 338 c 0,20,21
 306 338 306 338 306 418 c 0,22,23
 306 462 306 462 282.5 481.5 c 128,-1,24
 259 501 259 501 203 501 c 2,25,-1
 192 501 l 1,26,-1
 192 554 l 1,27,-1
 203 554 l 2,28,29
 302 554 302 554 302 629 c 0,30,31
 302 684 302 684 238 684 c 0,0,1
EndSplineSet
EndChar

StartChar: acute
Encoding: 180 180 118
Width: 1000
GlyphClass: 2
Flags: HW
LayerCount: 2
Fore
SplineSet
515 760 m 1,0,-1
 635 760 l 1,1,-1
 466 640 l 1,2,-1
 387 640 l 1,3,-1
 515 760 l 1,0,-1
EndSplineSet
EndChar

StartChar: uni00B5
Encoding: 181 181 119
Width: 500
GlyphClass: 2
Flags: HW
LayerCount: 2
Fore
SplineSet
351 520 m 1,0,-1
 430 520 l 1,1,-1
 430 0 l 1,2,-1
 356 0 l 1,3,-1
 354 75 l 1,4,-1
 352 75 l 1,5,6
 333 35 333 35 296 12.5 c 128,-1,7
 259 -10 259 -10 215 -10 c 0,8,9
 173 -10 173 -10 147 1 c 1,10,-1
 147 -220 l 1,11,-1
 70 -220 l 1,12,-1
 70 520 l 1,13,-1
 147 520 l 1,14,-1
 147 198 l 2,15,16
 147 115 147 115 165.5 88 c 128,-1,17
 184 61 184 61 235 61 c 0,18,19
 284 61 284 61 317.5 116 c 128,-1,20
 351 171 351 171 351 268 c 2,21,-1
 351 520 l 1,0,-1
EndSplineSet
EndChar

StartChar: paragraph
Encoding: 182 182 120
Width: 1000
GlyphClass: 2
Flags: HW
LayerCount: 2
Fore
SplineSet
423 -63 m 1,0,-1
 423 471 l 1,1,2
 351 480 351 480 306 519 c 0,3,4
 250 569 250 569 250 646 c 0,5,6
 250 754 250 754 344 802 c 0,7,8
 386 823 386 823 448 823 c 2,9,-1
 653 823 l 1,10,-1
 653 -63 l 1,11,-1
 595 -63 l 1,12,-1
 595 775 l 1,13,-1
 481 775 l 1,14,-1
 481 -63 l 1,15,-1
 423 -63 l 1,0,-1
EndSplineSet
EndChar

StartChar: periodcentered
Encoding: 183 183 121
Width: 500
GlyphClass: 2
Flags: HW
LayerCount: 2
Fore
SplineSet
185 215 m 1,0,-1
 185 365 l 1,1,-1
 315 365 l 1,2,-1
 315 215 l 1,3,-1
 185 215 l 1,0,-1
EndSplineSet
EndChar

StartChar: cedilla
Encoding: 184 184 122
Width: 500
GlyphClass: 2
Flags: HW
LayerCount: 2
Fore
SplineSet
255 5 m 1,0,-1
 332 5 l 1,1,2
 368 -45 368 -45 368 -100 c 0,3,4
 368 -151 368 -151 332 -185.5 c 128,-1,5
 296 -220 296 -220 220 -220 c 0,6,7
 167 -220 167 -220 118 -201 c 1,8,-1
 118 -128 l 1,9,10
 160 -150 160 -150 210 -150 c 0,11,12
 247 -150 247 -150 268.5 -131 c 128,-1,13
 290 -112 290 -112 290 -80 c 0,14,15
 290 -32 290 -32 255 5 c 1,0,-1
EndSplineSet
EndChar

StartChar: uni00B9
Encoding: 185 185 123
Width: 500
GlyphClass: 2
Flags: HW
LayerCount: 2
Fore
SplineSet
249 670 m 1,0,-1
 145 613 l 1,1,-1
 145 669 l 1,2,-1
 250 730 l 1,3,-1
 310 730 l 1,4,-1
 310 292 l 1,5,-1
 250 292 l 1,6,-1
 250 669 l 1,7,-1
 249 670 l 1,0,-1
EndSplineSet
EndChar

StartChar: ordmasculine
Encoding: 186 186 124
Width: 500
GlyphClass: 2
Flags: HW
LayerCount: 2
Fore
SplineSet
70 200 m 1,0,-1
 70 255 l 1,1,-1
 430 255 l 1,2,-1
 430 200 l 1,3,-1
 70 200 l 1,0,-1
250 304 m 128,-1,5
 90 304 90 304 90 520 c 128,-1,6
 90 736 90 736 250 736 c 128,-1,7
 410 736 410 736 410 520 c 128,-1,4
 410 304 410 304 250 304 c 128,-1,5
250 357 m 128,-1,9
 295 357 295 357 319.5 390.5 c 128,-1,10
 344 424 344 424 344 520 c 128,-1,11
 344 616 344 616 319.5 649.5 c 128,-1,12
 295 683 295 683 250 683 c 128,-1,13
 205 683 205 683 180.5 649.5 c 128,-1,14
 156 616 156 616 156 520 c 128,-1,15
 156 424 156 424 180.5 390.5 c 128,-1,8
 205 357 205 357 250 357 c 128,-1,9
EndSplineSet
EndChar

StartChar: guillemotright
Encoding: 187 187 125
Width: 500
GlyphClass: 2
Flags: HW
LayerCount: 2
Fore
SplineSet
55 435 m 1,0,-1
 55 530 l 1,1,-1
 252 325 l 1,2,-1
 252 255 l 1,3,-1
 55 50 l 1,4,-1
 55 145 l 1,5,-1
 198 290 l 1,6,-1
 55 435 l 1,0,-1
258 435 m 1,7,-1
 258 530 l 1,8,-1
 455 325 l 1,9,-1
 455 255 l 1,10,-1
 258 50 l 1,11,-1
 258 145 l 1,12,-1
 400 290 l 1,13,-1
 258 435 l 1,7,-1
EndSplineSet
EndChar

StartChar: onequarter
Encoding: 188 188 126
Width: 500
GlyphClass: 2
Flags: HW
LayerCount: 2
Fore
SplineSet
434 -220 m 1,0,-1
 376 -220 l 1,1,-1
 376 -123 l 1,2,-1
 223 -123 l 1,3,-1
 223 -70 l 1,4,-1
 370 218 l 1,5,-1
 434 218 l 1,6,-1
 434 -70 l 1,7,-1
 485 -70 l 1,8,-1
 485 -123 l 1,9,-1
 434 -123 l 1,10,-1
 434 -220 l 1,0,-1
136 670 m 1,11,-1
 32 613 l 1,12,-1
 32 669 l 1,13,-1
 137 730 l 1,14,-1
 197 730 l 1,15,-1
 197 292 l 1,16,-1
 137 292 l 1,17,-1
 137 669 l 1,18,-1
 136 670 l 1,11,-1
485 430 m 1,19,-1
 85 50 l 1,20,-1
 15 50 l 1,21,-1
 415 430 l 1,22,-1
 485 430 l 1,19,-1
376 -70 m 1,23,-1
 376 124 l 1,24,-1
 374 124 l 1,25,-1
 275 -69 l 1,26,-1
 275 -70 l 1,27,-1
 376 -70 l 1,23,-1
EndSplineSet
EndChar

StartChar: onehalf
Encoding: 189 189 127
Width: 500
GlyphClass: 2
Flags: HW
LayerCount: 2
Fore
SplineSet
474 -168 m 1,0,-1
 474 -220 l 1,1,-1
 262 -220 l 1,2,-1
 262 -168 l 1,3,4
 344 -70 344 -70 377.5 -7.5 c 128,-1,5
 411 55 411 55 411 105 c 0,6,7
 411 171 411 171 354 171 c 0,8,9
 310 171 310 171 262 125 c 1,10,-1
 262 184 l 1,11,12
 308 224 308 224 365 224 c 0,13,14
 471 224 471 224 471 109 c 0,15,16
 471 52 471 52 438.5 -12 c 128,-1,17
 406 -76 406 -76 331 -166 c 1,18,-1
 331 -168 l 1,19,-1
 474 -168 l 1,0,-1
136 670 m 1,20,-1
 32 613 l 1,21,-1
 32 669 l 1,22,-1
 137 730 l 1,23,-1
 197 730 l 1,24,-1
 197 292 l 1,25,-1
 137 292 l 1,26,-1
 137 669 l 1,27,-1
 136 670 l 1,20,-1
485 430 m 1,28,-1
 85 50 l 1,29,-1
 15 50 l 1,30,-1
 415 430 l 1,31,-1
 485 430 l 1,28,-1
EndSplineSet
EndChar

StartChar: threequarters
Encoding: 190 190 128
Width: 500
GlyphClass: 2
Flags: HW
LayerCount: 2
Fore
SplineSet
434 -220 m 1,0,-1
 376 -220 l 1,1,-1
 376 -123 l 1,2,-1
 223 -123 l 1,3,-1
 223 -70 l 1,4,-1
 370 218 l 1,5,-1
 434 218 l 1,6,-1
 434 -70 l 1,7,-1
 485 -70 l 1,8,-1
 485 -123 l 1,9,-1
 434 -123 l 1,10,-1
 434 -220 l 1,0,-1
129 684 m 0,11,12
 86 684 86 684 38 653 c 1,13,-1
 38 709 l 1,14,15
 91 736 91 736 138 736 c 0,16,17
 194 736 194 736 222.5 710 c 128,-1,18
 251 684 251 684 251 636 c 0,19,20
 251 554 251 554 179 529 c 1,21,-1
 179 528 l 1,22,23
 257 508 257 508 257 416 c 0,24,25
 257 286 257 286 131 286 c 0,26,27
 81 286 81 286 29 310 c 1,28,-1
 29 370 l 1,29,30
 79 338 79 338 124 338 c 0,31,32
 197 338 197 338 197 418 c 0,33,34
 197 462 197 462 173.5 481.5 c 128,-1,35
 150 501 150 501 94 501 c 2,36,-1
 84 501 l 1,37,-1
 84 554 l 1,38,-1
 94 554 l 2,39,40
 193 554 193 554 193 629 c 0,41,42
 193 684 193 684 129 684 c 0,11,12
485 430 m 1,43,-1
 85 50 l 1,44,-1
 15 50 l 1,45,-1
 415 430 l 1,46,-1
 485 430 l 1,43,-1
376 -70 m 1,47,-1
 376 124 l 1,48,-1
 374 124 l 1,49,-1
 275 -69 l 1,50,-1
 275 -70 l 1,51,-1
 376 -70 l 1,47,-1
EndSplineSet
EndChar

StartChar: questiondown
Encoding: 191 191 129
Width: 500
GlyphClass: 2
Flags: HW
LayerCount: 2
Fore
SplineSet
210 380 m 1,0,-1
 210 510 l 1,1,-1
 320 510 l 1,2,-1
 320 380 l 1,3,-1
 210 380 l 1,0,-1
435 -185 m 1,4,5
 342 -230 342 -230 245 -230 c 0,6,7
 154 -230 154 -230 104.5 -188 c 128,-1,8
 55 -146 55 -146 55 -70 c 0,9,10
 55 -22 55 -22 72.5 17 c 128,-1,11
 90 56 90 56 115 84 c 128,-1,12
 140 112 140 112 165 140 c 128,-1,13
 190 168 190 168 207.5 207.5 c 128,-1,14
 225 247 225 247 225 295 c 1,15,-1
 305 295 l 1,16,17
 305 236 305 236 288 189.5 c 128,-1,18
 271 143 271 143 246.5 113.5 c 128,-1,19
 222 84 222 84 197.5 58 c 128,-1,20
 173 32 173 32 156 0 c 128,-1,21
 139 -32 139 -32 139 -70 c 0,22,23
 139 -111 139 -111 168.5 -133.5 c 128,-1,24
 198 -156 198 -156 255 -156 c 0,25,26
 340 -156 340 -156 435 -95 c 1,27,-1
 435 -185 l 1,4,5
EndSplineSet
EndChar

StartChar: Agrave
Encoding: 192 192 130
Width: 500
GlyphClass: 2
Flags: HW
LayerCount: 2
Fore
SplineSet
240 960 m 1,0,-1
 350 790 l 1,1,-1
 270 790 l 1,2,-1
 120 960 l 1,3,-1
 240 960 l 1,0,-1
249 660 m 1,4,-1
 247 660 l 1,5,-1
 164 280 l 1,6,-1
 332 280 l 1,7,-1
 249 660 l 1,4,-1
348 210 m 1,8,-1
 148 210 l 1,9,-1
 102 0 l 1,10,-1
 20 0 l 1,11,-1
 200 730 l 1,12,-1
 300 730 l 1,13,-1
 480 0 l 1,14,-1
 394 0 l 1,15,-1
 348 210 l 1,8,-1
EndSplineSet
EndChar

StartChar: Aacute
Encoding: 193 193 131
Width: 500
GlyphClass: 2
Flags: HW
LayerCount: 2
Fore
SplineSet
249 660 m 1,0,-1
 247 660 l 1,1,-1
 164 280 l 1,2,-1
 332 280 l 1,3,-1
 249 660 l 1,0,-1
260 960 m 1,4,-1
 380 960 l 1,5,-1
 230 790 l 1,6,-1
 150 790 l 1,7,-1
 260 960 l 1,4,-1
348 210 m 1,8,-1
 148 210 l 1,9,-1
 102 0 l 1,10,-1
 20 0 l 1,11,-1
 200 730 l 1,12,-1
 300 730 l 1,13,-1
 480 0 l 1,14,-1
 394 0 l 1,15,-1
 348 210 l 1,8,-1
EndSplineSet
EndChar

StartChar: Acircumflex
Encoding: 194 194 132
Width: 500
GlyphClass: 2
Flags: HW
LayerCount: 2
Fore
SplineSet
249 920 m 1,0,-1
 168 790 l 1,1,-1
 60 790 l 1,2,-1
 190 960 l 1,3,-1
 310 960 l 1,4,-1
 440 790 l 1,5,-1
 332 790 l 1,6,-1
 251 920 l 1,7,-1
 249 920 l 1,0,-1
249 660 m 1,8,-1
 247 660 l 1,9,-1
 164 280 l 1,10,-1
 332 280 l 1,11,-1
 249 660 l 1,8,-1
348 210 m 1,12,-1
 148 210 l 1,13,-1
 102 0 l 1,14,-1
 20 0 l 1,15,-1
 200 730 l 1,16,-1
 300 730 l 1,17,-1
 480 0 l 1,18,-1
 394 0 l 1,19,-1
 348 210 l 1,12,-1
EndSplineSet
EndChar

StartChar: Atilde
Encoding: 195 195 133
Width: 500
GlyphClass: 2
Flags: HW
LayerCount: 2
Fore
SplineSet
85 795 m 1,0,1
 85 882 85 882 101 916 c 128,-1,2
 117 950 117 950 152 950 c 0,3,4
 189 950 189 950 258 898 c 0,5,6
 308 860 308 860 325 860 c 0,7,8
 333 860 333 860 336.5 865 c 128,-1,9
 340 870 340 870 342.5 887.5 c 128,-1,10
 345 905 345 905 345 940 c 1,11,-1
 415 940 l 1,12,13
 415 853 415 853 399 819 c 128,-1,14
 383 785 383 785 348 785 c 0,15,16
 312 785 312 785 242 838 c 0,17,18
 194 875 194 875 175 875 c 0,19,20
 167 875 167 875 163.5 870 c 128,-1,21
 160 865 160 865 157.5 847.5 c 128,-1,22
 155 830 155 830 155 795 c 1,23,-1
 85 795 l 1,0,1
249 660 m 1,24,-1
 247 660 l 1,25,-1
 164 280 l 1,26,-1
 332 280 l 1,27,-1
 249 660 l 1,24,-1
348 210 m 1,28,-1
 148 210 l 1,29,-1
 102 0 l 1,30,-1
 20 0 l 1,31,-1
 200 730 l 1,32,-1
 300 730 l 1,33,-1
 480 0 l 1,34,-1
 394 0 l 1,35,-1
 348 210 l 1,28,-1
EndSplineSet
EndChar

StartChar: Adieresis
Encoding: 196 196 134
Width: 500
GlyphClass: 2
Flags: HW
LayerCount: 2
Fore
SplineSet
249 660 m 1,0,-1
 247 660 l 1,1,-1
 164 280 l 1,2,-1
 332 280 l 1,3,-1
 249 660 l 1,0,-1
290 810 m 1,4,-1
 290 940 l 1,5,-1
 370 940 l 1,6,-1
 370 810 l 1,7,-1
 290 810 l 1,4,-1
130 810 m 1,8,-1
 130 940 l 1,9,-1
 210 940 l 1,10,-1
 210 810 l 1,11,-1
 130 810 l 1,8,-1
348 210 m 1,12,-1
 148 210 l 1,13,-1
 102 0 l 1,14,-1
 20 0 l 1,15,-1
 200 730 l 1,16,-1
 300 730 l 1,17,-1
 480 0 l 1,18,-1
 394 0 l 1,19,-1
 348 210 l 1,12,-1
EndSplineSet
EndChar

StartChar: Aring
Encoding: 197 197 135
Width: 500
GlyphClass: 2
Flags: HW
LayerCount: 2
Fore
SplineSet
249 660 m 1,0,-1
 247 660 l 1,1,-1
 164 280 l 1,2,-1
 332 280 l 1,3,-1
 249 660 l 1,0,-1
380 895 m 128,-1,5
 380 841 380 841 342 803 c 128,-1,6
 304 765 304 765 250 765 c 128,-1,7
 196 765 196 765 158 803 c 128,-1,8
 120 841 120 841 120 895 c 128,-1,9
 120 949 120 949 158 987 c 128,-1,10
 196 1025 196 1025 250 1025 c 128,-1,11
 304 1025 304 1025 342 987 c 128,-1,4
 380 949 380 949 380 895 c 128,-1,5
320 895 m 128,-1,13
 320 924 320 924 299.5 944.5 c 128,-1,14
 279 965 279 965 250 965 c 128,-1,15
 221 965 221 965 200.5 944.5 c 128,-1,16
 180 924 180 924 180 895 c 128,-1,17
 180 866 180 866 200.5 845.5 c 128,-1,18
 221 825 221 825 250 825 c 128,-1,19
 279 825 279 825 299.5 845.5 c 128,-1,12
 320 866 320 866 320 895 c 128,-1,13
348 210 m 1,20,-1
 148 210 l 1,21,-1
 102 0 l 1,22,-1
 20 0 l 1,23,-1
 200 730 l 1,24,-1
 300 730 l 1,25,-1
 480 0 l 1,26,-1
 394 0 l 1,27,-1
 348 210 l 1,20,-1
EndSplineSet
EndChar

StartChar: AE
Encoding: 198 198 136
Width: 500
GlyphClass: 2
Flags: HW
LayerCount: 2
Fore
SplineSet
248 665 m 1,0,-1
 231 665 l 1,1,-1
 153 280 l 1,2,-1
 248 280 l 1,3,-1
 248 665 l 1,0,-1
248 210 m 1,4,-1
 139 210 l 1,5,-1
 97 0 l 1,6,-1
 20 0 l 1,7,-1
 182 730 l 1,8,-1
 470 730 l 1,9,-1
 470 658 l 1,10,-1
 325 658 l 1,11,-1
 325 430 l 1,12,-1
 460 430 l 1,13,-1
 460 360 l 1,14,-1
 325 360 l 1,15,-1
 325 72 l 1,16,-1
 470 72 l 1,17,-1
 470 0 l 1,18,-1
 248 0 l 1,19,-1
 248 210 l 1,4,-1
EndSplineSet
EndChar

StartChar: Ccedilla
Encoding: 199 199 137
Width: 500
GlyphClass: 2
Flags: HW
LayerCount: 2
Fore
SplineSet
55 365 m 0,0,1
 55 562 55 562 115.5 651 c 128,-1,2
 176 740 176 740 295 740 c 0,3,4
 361 740 361 740 420 710 c 1,5,-1
 420 635 l 1,6,7
 360 668 360 668 300 668 c 0,8,9
 135 668 135 668 135 365 c 0,10,11
 135 201 135 201 177 131.5 c 128,-1,12
 219 62 219 62 300 62 c 0,13,14
 362 62 362 62 425 100 c 1,15,-1
 425 20 l 1,16,17
 385 -1 385 -1 340 -7 c 1,18,19
 368 -52 368 -52 368 -100 c 0,20,21
 368 -151 368 -151 332 -185.5 c 128,-1,22
 296 -220 296 -220 220 -220 c 0,23,24
 167 -220 167 -220 118 -201 c 1,25,-1
 118 -128 l 1,26,27
 160 -150 160 -150 210 -150 c 0,28,29
 247 -150 247 -150 268.5 -131 c 128,-1,30
 290 -112 290 -112 290 -80 c 0,31,32
 290 -43 290 -43 266 -9 c 1,33,34
 160 0 160 0 107.5 87 c 128,-1,35
 55 174 55 174 55 365 c 0,0,1
EndSplineSet
EndChar

StartChar: Egrave
Encoding: 200 200 138
Width: 500
GlyphClass: 2
Flags: HW
LayerCount: 2
Fore
SplineSet
240 960 m 1,0,-1
 350 790 l 1,1,-1
 270 790 l 1,2,-1
 120 960 l 1,3,-1
 240 960 l 1,0,-1
162 658 m 1,4,-1
 162 430 l 1,5,-1
 410 430 l 1,6,-1
 410 360 l 1,7,-1
 162 360 l 1,8,-1
 162 72 l 1,9,-1
 420 72 l 1,10,-1
 420 0 l 1,11,-1
 80 0 l 1,12,-1
 80 730 l 1,13,-1
 420 730 l 1,14,-1
 420 658 l 1,15,-1
 162 658 l 1,4,-1
EndSplineSet
EndChar

StartChar: Eacute
Encoding: 201 201 139
Width: 500
GlyphClass: 2
Flags: HW
LayerCount: 2
Fore
SplineSet
260 960 m 1,0,-1
 380 960 l 1,1,-1
 230 790 l 1,2,-1
 150 790 l 1,3,-1
 260 960 l 1,0,-1
162 658 m 1,4,-1
 162 430 l 1,5,-1
 410 430 l 1,6,-1
 410 360 l 1,7,-1
 162 360 l 1,8,-1
 162 72 l 1,9,-1
 420 72 l 1,10,-1
 420 0 l 1,11,-1
 80 0 l 1,12,-1
 80 730 l 1,13,-1
 420 730 l 1,14,-1
 420 658 l 1,15,-1
 162 658 l 1,4,-1
EndSplineSet
EndChar

StartChar: Ecircumflex
Encoding: 202 202 140
Width: 500
GlyphClass: 2
Flags: HW
LayerCount: 2
Fore
SplineSet
249 920 m 1,0,-1
 168 790 l 1,1,-1
 60 790 l 1,2,-1
 190 960 l 1,3,-1
 310 960 l 1,4,-1
 440 790 l 1,5,-1
 332 790 l 1,6,-1
 251 920 l 1,7,-1
 249 920 l 1,0,-1
162 658 m 1,8,-1
 162 430 l 1,9,-1
 410 430 l 1,10,-1
 410 360 l 1,11,-1
 162 360 l 1,12,-1
 162 72 l 1,13,-1
 420 72 l 1,14,-1
 420 0 l 1,15,-1
 80 0 l 1,16,-1
 80 730 l 1,17,-1
 420 730 l 1,18,-1
 420 658 l 1,19,-1
 162 658 l 1,8,-1
EndSplineSet
EndChar

StartChar: Edieresis
Encoding: 203 203 141
Width: 500
GlyphClass: 2
Flags: HW
LayerCount: 2
Fore
SplineSet
290 810 m 1,0,-1
 290 940 l 1,1,-1
 370 940 l 1,2,-1
 370 810 l 1,3,-1
 290 810 l 1,0,-1
130 810 m 1,4,-1
 130 940 l 1,5,-1
 210 940 l 1,6,-1
 210 810 l 1,7,-1
 130 810 l 1,4,-1
162 658 m 1,8,-1
 162 430 l 1,9,-1
 410 430 l 1,10,-1
 410 360 l 1,11,-1
 162 360 l 1,12,-1
 162 72 l 1,13,-1
 420 72 l 1,14,-1
 420 0 l 1,15,-1
 80 0 l 1,16,-1
 80 730 l 1,17,-1
 420 730 l 1,18,-1
 420 658 l 1,19,-1
 162 658 l 1,8,-1
EndSplineSet
EndChar

StartChar: Igrave
Encoding: 204 204 142
Width: 500
GlyphClass: 2
Flags: HW
LayerCount: 2
Fore
SplineSet
240 960 m 1,0,-1
 350 790 l 1,1,-1
 270 790 l 1,2,-1
 120 960 l 1,3,-1
 240 960 l 1,0,-1
410 0 m 1,4,-1
 90 0 l 1,5,-1
 90 70 l 1,6,-1
 208 70 l 1,7,-1
 208 660 l 1,8,-1
 90 660 l 1,9,-1
 90 730 l 1,10,-1
 410 730 l 1,11,-1
 410 660 l 1,12,-1
 292 660 l 1,13,-1
 292 70 l 1,14,-1
 410 70 l 1,15,-1
 410 0 l 1,4,-1
EndSplineSet
EndChar

StartChar: Iacute
Encoding: 205 205 143
Width: 500
GlyphClass: 2
Flags: HW
LayerCount: 2
Fore
SplineSet
260 960 m 1,0,-1
 380 960 l 1,1,-1
 230 790 l 1,2,-1
 150 790 l 1,3,-1
 260 960 l 1,0,-1
410 0 m 1,4,-1
 90 0 l 1,5,-1
 90 70 l 1,6,-1
 208 70 l 1,7,-1
 208 660 l 1,8,-1
 90 660 l 1,9,-1
 90 730 l 1,10,-1
 410 730 l 1,11,-1
 410 660 l 1,12,-1
 292 660 l 1,13,-1
 292 70 l 1,14,-1
 410 70 l 1,15,-1
 410 0 l 1,4,-1
EndSplineSet
EndChar

StartChar: Icircumflex
Encoding: 206 206 144
Width: 500
GlyphClass: 2
Flags: HW
LayerCount: 2
Fore
SplineSet
249 920 m 1,0,-1
 168 790 l 1,1,-1
 60 790 l 1,2,-1
 190 960 l 1,3,-1
 310 960 l 1,4,-1
 440 790 l 1,5,-1
 332 790 l 1,6,-1
 251 920 l 1,7,-1
 249 920 l 1,0,-1
410 0 m 1,8,-1
 90 0 l 1,9,-1
 90 70 l 1,10,-1
 208 70 l 1,11,-1
 208 660 l 1,12,-1
 90 660 l 1,13,-1
 90 730 l 1,14,-1
 410 730 l 1,15,-1
 410 660 l 1,16,-1
 292 660 l 1,17,-1
 292 70 l 1,18,-1
 410 70 l 1,19,-1
 410 0 l 1,8,-1
EndSplineSet
EndChar

StartChar: Idieresis
Encoding: 207 207 145
Width: 500
GlyphClass: 2
Flags: HW
LayerCount: 2
Fore
SplineSet
290 810 m 1,0,-1
 290 940 l 1,1,-1
 370 940 l 1,2,-1
 370 810 l 1,3,-1
 290 810 l 1,0,-1
130 810 m 1,4,-1
 130 940 l 1,5,-1
 210 940 l 1,6,-1
 210 810 l 1,7,-1
 130 810 l 1,4,-1
410 0 m 1,8,-1
 90 0 l 1,9,-1
 90 70 l 1,10,-1
 208 70 l 1,11,-1
 208 660 l 1,12,-1
 90 660 l 1,13,-1
 90 730 l 1,14,-1
 410 730 l 1,15,-1
 410 660 l 1,16,-1
 292 660 l 1,17,-1
 292 70 l 1,18,-1
 410 70 l 1,19,-1
 410 0 l 1,8,-1
EndSplineSet
EndChar

StartChar: Eth
Encoding: 208 208 146
Width: 500
GlyphClass: 2
Flags: HW
LayerCount: 2
Fore
SplineSet
10 336 m 1,0,-1
 10 422 l 1,1,-1
 80 422 l 1,2,-1
 80 730 l 1,3,-1
 217 730 l 2,4,5
 352 730 352 730 408.5 651 c 128,-1,6
 465 572 465 572 465 365 c 0,7,8
 465 164 465 164 405 82 c 128,-1,9
 345 0 345 0 217 0 c 2,10,-1
 162 0 l 1,11,-1
 80 0 l 1,12,-1
 80 336 l 1,13,-1
 10 336 l 1,0,-1
162 336 m 1,14,-1
 162 72 l 1,15,-1
 217 72 l 2,16,17
 277 72 277 72 311 95 c 128,-1,18
 345 118 345 118 364 182.5 c 128,-1,19
 383 247 383 247 383 365 c 0,20,21
 383 537 383 537 346.5 597.5 c 128,-1,22
 310 658 310 658 217 658 c 2,23,-1
 162 658 l 1,24,-1
 162 422 l 1,25,-1
 285 422 l 1,26,-1
 285 336 l 1,27,-1
 162 336 l 1,14,-1
EndSplineSet
EndChar

StartChar: Ntilde
Encoding: 209 209 147
Width: 500
GlyphClass: 2
Flags: HW
LayerCount: 2
Fore
SplineSet
85 795 m 1,0,1
 85 882 85 882 101 916 c 128,-1,2
 117 950 117 950 152 950 c 0,3,4
 189 950 189 950 258 898 c 0,5,6
 308 860 308 860 325 860 c 0,7,8
 333 860 333 860 336.5 865 c 128,-1,9
 340 870 340 870 342.5 887.5 c 128,-1,10
 345 905 345 905 345 940 c 1,11,-1
 415 940 l 1,12,13
 415 853 415 853 399 819 c 128,-1,14
 383 785 383 785 348 785 c 0,15,16
 312 785 312 785 242 838 c 0,17,18
 194 875 194 875 175 875 c 0,19,20
 167 875 167 875 163.5 870 c 128,-1,21
 160 865 160 865 157.5 847.5 c 128,-1,22
 155 830 155 830 155 795 c 1,23,-1
 85 795 l 1,0,1
151 550 m 1,24,-1
 149 550 l 1,25,-1
 149 0 l 1,26,-1
 65 0 l 1,27,-1
 65 730 l 1,28,-1
 149 730 l 1,29,-1
 353 180 l 1,30,-1
 355 180 l 1,31,-1
 355 730 l 1,32,-1
 435 730 l 1,33,-1
 435 0 l 1,34,-1
 355 0 l 1,35,-1
 151 550 l 1,24,-1
EndSplineSet
EndChar

StartChar: Ograve
Encoding: 210 210 148
Width: 500
GlyphClass: 2
Flags: HW
LayerCount: 2
Fore
SplineSet
240 960 m 1,0,-1
 350 790 l 1,1,-1
 270 790 l 1,2,-1
 120 960 l 1,3,-1
 240 960 l 1,0,-1
250 740 m 128,-1,5
 357 740 357 740 408.5 655.5 c 128,-1,6
 460 571 460 571 460 365 c 128,-1,7
 460 159 460 159 408.5 74.5 c 128,-1,8
 357 -10 357 -10 250 -10 c 128,-1,9
 143 -10 143 -10 91.5 74.5 c 128,-1,10
 40 159 40 159 40 365 c 128,-1,11
 40 571 40 571 91.5 655.5 c 128,-1,4
 143 740 143 740 250 740 c 128,-1,5
250 62 m 128,-1,13
 294 62 294 62 321 87.5 c 128,-1,14
 348 113 348 113 364 181 c 128,-1,15
 380 249 380 249 380 365 c 128,-1,16
 380 481 380 481 364 549 c 128,-1,17
 348 617 348 617 321 642.5 c 128,-1,18
 294 668 294 668 250 668 c 128,-1,19
 206 668 206 668 179 642.5 c 128,-1,20
 152 617 152 617 136 549 c 128,-1,21
 120 481 120 481 120 365 c 128,-1,22
 120 249 120 249 136 181 c 128,-1,23
 152 113 152 113 179 87.5 c 128,-1,12
 206 62 206 62 250 62 c 128,-1,13
EndSplineSet
EndChar

StartChar: Oacute
Encoding: 211 211 149
Width: 500
GlyphClass: 2
Flags: HW
LayerCount: 2
Fore
SplineSet
260 960 m 1,0,-1
 380 960 l 1,1,-1
 230 790 l 1,2,-1
 150 790 l 1,3,-1
 260 960 l 1,0,-1
250 740 m 128,-1,5
 357 740 357 740 408.5 655.5 c 128,-1,6
 460 571 460 571 460 365 c 128,-1,7
 460 159 460 159 408.5 74.5 c 128,-1,8
 357 -10 357 -10 250 -10 c 128,-1,9
 143 -10 143 -10 91.5 74.5 c 128,-1,10
 40 159 40 159 40 365 c 128,-1,11
 40 571 40 571 91.5 655.5 c 128,-1,4
 143 740 143 740 250 740 c 128,-1,5
250 62 m 128,-1,13
 294 62 294 62 321 87.5 c 128,-1,14
 348 113 348 113 364 181 c 128,-1,15
 380 249 380 249 380 365 c 128,-1,16
 380 481 380 481 364 549 c 128,-1,17
 348 617 348 617 321 642.5 c 128,-1,18
 294 668 294 668 250 668 c 128,-1,19
 206 668 206 668 179 642.5 c 128,-1,20
 152 617 152 617 136 549 c 128,-1,21
 120 481 120 481 120 365 c 128,-1,22
 120 249 120 249 136 181 c 128,-1,23
 152 113 152 113 179 87.5 c 128,-1,12
 206 62 206 62 250 62 c 128,-1,13
EndSplineSet
EndChar

StartChar: Ocircumflex
Encoding: 212 212 150
Width: 500
GlyphClass: 2
Flags: HW
LayerCount: 2
Fore
SplineSet
249 920 m 1,0,-1
 168 790 l 1,1,-1
 60 790 l 1,2,-1
 190 960 l 1,3,-1
 310 960 l 1,4,-1
 440 790 l 1,5,-1
 332 790 l 1,6,-1
 251 920 l 1,7,-1
 249 920 l 1,0,-1
250 740 m 128,-1,9
 357 740 357 740 408.5 655.5 c 128,-1,10
 460 571 460 571 460 365 c 128,-1,11
 460 159 460 159 408.5 74.5 c 128,-1,12
 357 -10 357 -10 250 -10 c 128,-1,13
 143 -10 143 -10 91.5 74.5 c 128,-1,14
 40 159 40 159 40 365 c 128,-1,15
 40 571 40 571 91.5 655.5 c 128,-1,8
 143 740 143 740 250 740 c 128,-1,9
250 62 m 128,-1,17
 294 62 294 62 321 87.5 c 128,-1,18
 348 113 348 113 364 181 c 128,-1,19
 380 249 380 249 380 365 c 128,-1,20
 380 481 380 481 364 549 c 128,-1,21
 348 617 348 617 321 642.5 c 128,-1,22
 294 668 294 668 250 668 c 128,-1,23
 206 668 206 668 179 642.5 c 128,-1,24
 152 617 152 617 136 549 c 128,-1,25
 120 481 120 481 120 365 c 128,-1,26
 120 249 120 249 136 181 c 128,-1,27
 152 113 152 113 179 87.5 c 128,-1,16
 206 62 206 62 250 62 c 128,-1,17
EndSplineSet
EndChar

StartChar: Otilde
Encoding: 213 213 151
Width: 500
GlyphClass: 2
Flags: HW
LayerCount: 2
Fore
SplineSet
85 795 m 1,0,1
 85 882 85 882 101 916 c 128,-1,2
 117 950 117 950 152 950 c 0,3,4
 189 950 189 950 258 898 c 0,5,6
 308 860 308 860 325 860 c 0,7,8
 333 860 333 860 336.5 865 c 128,-1,9
 340 870 340 870 342.5 887.5 c 128,-1,10
 345 905 345 905 345 940 c 1,11,-1
 415 940 l 1,12,13
 415 853 415 853 399 819 c 128,-1,14
 383 785 383 785 348 785 c 0,15,16
 312 785 312 785 242 838 c 0,17,18
 194 875 194 875 175 875 c 0,19,20
 167 875 167 875 163.5 870 c 128,-1,21
 160 865 160 865 157.5 847.5 c 128,-1,22
 155 830 155 830 155 795 c 1,23,-1
 85 795 l 1,0,1
250 740 m 128,-1,25
 357 740 357 740 408.5 655.5 c 128,-1,26
 460 571 460 571 460 365 c 128,-1,27
 460 159 460 159 408.5 74.5 c 128,-1,28
 357 -10 357 -10 250 -10 c 128,-1,29
 143 -10 143 -10 91.5 74.5 c 128,-1,30
 40 159 40 159 40 365 c 128,-1,31
 40 571 40 571 91.5 655.5 c 128,-1,24
 143 740 143 740 250 740 c 128,-1,25
250 62 m 128,-1,33
 294 62 294 62 321 87.5 c 128,-1,34
 348 113 348 113 364 181 c 128,-1,35
 380 249 380 249 380 365 c 128,-1,36
 380 481 380 481 364 549 c 128,-1,37
 348 617 348 617 321 642.5 c 128,-1,38
 294 668 294 668 250 668 c 128,-1,39
 206 668 206 668 179 642.5 c 128,-1,40
 152 617 152 617 136 549 c 128,-1,41
 120 481 120 481 120 365 c 128,-1,42
 120 249 120 249 136 181 c 128,-1,43
 152 113 152 113 179 87.5 c 128,-1,32
 206 62 206 62 250 62 c 128,-1,33
EndSplineSet
EndChar

StartChar: Odieresis
Encoding: 214 214 152
Width: 500
GlyphClass: 2
Flags: HW
LayerCount: 2
Fore
SplineSet
290 810 m 1,0,-1
 290 940 l 1,1,-1
 370 940 l 1,2,-1
 370 810 l 1,3,-1
 290 810 l 1,0,-1
130 810 m 1,4,-1
 130 940 l 1,5,-1
 210 940 l 1,6,-1
 210 810 l 1,7,-1
 130 810 l 1,4,-1
250 740 m 128,-1,9
 357 740 357 740 408.5 655.5 c 128,-1,10
 460 571 460 571 460 365 c 128,-1,11
 460 159 460 159 408.5 74.5 c 128,-1,12
 357 -10 357 -10 250 -10 c 128,-1,13
 143 -10 143 -10 91.5 74.5 c 128,-1,14
 40 159 40 159 40 365 c 128,-1,15
 40 571 40 571 91.5 655.5 c 128,-1,8
 143 740 143 740 250 740 c 128,-1,9
250 62 m 128,-1,17
 294 62 294 62 321 87.5 c 128,-1,18
 348 113 348 113 364 181 c 128,-1,19
 380 249 380 249 380 365 c 128,-1,20
 380 481 380 481 364 549 c 128,-1,21
 348 617 348 617 321 642.5 c 128,-1,22
 294 668 294 668 250 668 c 128,-1,23
 206 668 206 668 179 642.5 c 128,-1,24
 152 617 152 617 136 549 c 128,-1,25
 120 481 120 481 120 365 c 128,-1,26
 120 249 120 249 136 181 c 128,-1,27
 152 113 152 113 179 87.5 c 128,-1,16
 206 62 206 62 250 62 c 128,-1,17
EndSplineSet
EndChar

StartChar: multiply
Encoding: 215 215 153
Width: 1000
GlyphClass: 2
Flags: HW
LayerCount: 2
Fore
SplineSet
242 693 m 1,0,-1
 500 435 l 1,1,-1
 758 693 l 1,2,-1
 809 643 l 1,3,-1
 551 385 l 1,4,-1
 815 121 l 1,5,-1
 764 69 l 1,6,-1
 500 333 l 1,7,-1
 236 69 l 1,8,-1
 185 121 l 1,9,-1
 449 385 l 1,10,-1
 191 643 l 1,11,-1
 242 693 l 1,0,-1
EndSplineSet
EndChar

StartChar: Oslash
Encoding: 216 216 154
Width: 500
GlyphClass: 2
Flags: HW
LayerCount: 2
Fore
SplineSet
75 109 m 1,0,1
 40 197 40 197 40 365 c 0,2,3
 40 571 40 571 91.5 655.5 c 128,-1,4
 143 740 143 740 250 740 c 0,5,6
 326 740 326 740 374 698 c 1,7,-1
 404 758 l 1,8,-1
 476 722 l 1,9,-1
 425 621 l 1,10,11
 460 533 460 533 460 365 c 0,12,13
 460 159 460 159 408.5 74.5 c 128,-1,14
 357 -10 357 -10 250 -10 c 0,15,16
 174 -10 174 -10 126 32 c 1,17,-1
 96 -28 l 1,18,-1
 24 8 l 1,19,-1
 75 109 l 1,0,1
129 215 m 1,20,-1
 336 623 l 1,21,22
 306 668 306 668 250 668 c 0,23,24
 206 668 206 668 179 642.5 c 128,-1,25
 152 617 152 617 136 549 c 128,-1,26
 120 481 120 481 120 365 c 0,27,28
 120 275 120 275 129 215 c 1,20,-1
164 107 m 1,29,30
 194 62 194 62 250 62 c 0,31,32
 294 62 294 62 321 87.5 c 128,-1,33
 348 113 348 113 364 181 c 128,-1,34
 380 249 380 249 380 365 c 0,35,36
 380 455 380 455 371 515 c 1,37,-1
 164 107 l 1,29,30
EndSplineSet
EndChar

StartChar: Ugrave
Encoding: 217 217 155
Width: 500
GlyphClass: 2
Flags: HW
LayerCount: 2
Fore
SplineSet
250 -10 m 128,-1,1
 155 -10 155 -10 107.5 38.5 c 128,-1,2
 60 87 60 87 60 190 c 2,3,-1
 60 730 l 1,4,-1
 144 730 l 1,5,-1
 144 210 l 2,6,7
 144 129 144 129 170.5 95.5 c 128,-1,8
 197 62 197 62 252 62 c 128,-1,9
 307 62 307 62 333.5 95.5 c 128,-1,10
 360 129 360 129 360 210 c 2,11,-1
 360 730 l 1,12,-1
 440 730 l 1,13,-1
 440 190 l 2,14,15
 440 87 440 87 392.5 38.5 c 128,-1,0
 345 -10 345 -10 250 -10 c 128,-1,1
240 960 m 1,16,-1
 350 790 l 1,17,-1
 270 790 l 1,18,-1
 120 960 l 1,19,-1
 240 960 l 1,16,-1
EndSplineSet
EndChar

StartChar: Uacute
Encoding: 218 218 156
Width: 500
GlyphClass: 2
Flags: HW
LayerCount: 2
Fore
SplineSet
250 -10 m 128,-1,1
 155 -10 155 -10 107.5 38.5 c 128,-1,2
 60 87 60 87 60 190 c 2,3,-1
 60 730 l 1,4,-1
 144 730 l 1,5,-1
 144 210 l 2,6,7
 144 129 144 129 170.5 95.5 c 128,-1,8
 197 62 197 62 252 62 c 128,-1,9
 307 62 307 62 333.5 95.5 c 128,-1,10
 360 129 360 129 360 210 c 2,11,-1
 360 730 l 1,12,-1
 440 730 l 1,13,-1
 440 190 l 2,14,15
 440 87 440 87 392.5 38.5 c 128,-1,0
 345 -10 345 -10 250 -10 c 128,-1,1
260 960 m 1,16,-1
 380 960 l 1,17,-1
 230 790 l 1,18,-1
 150 790 l 1,19,-1
 260 960 l 1,16,-1
EndSplineSet
EndChar

StartChar: Ucircumflex
Encoding: 219 219 157
Width: 500
GlyphClass: 2
Flags: HW
LayerCount: 2
Fore
SplineSet
250 -10 m 128,-1,1
 155 -10 155 -10 107.5 38.5 c 128,-1,2
 60 87 60 87 60 190 c 2,3,-1
 60 730 l 1,4,-1
 144 730 l 1,5,-1
 144 210 l 2,6,7
 144 129 144 129 170.5 95.5 c 128,-1,8
 197 62 197 62 252 62 c 128,-1,9
 307 62 307 62 333.5 95.5 c 128,-1,10
 360 129 360 129 360 210 c 2,11,-1
 360 730 l 1,12,-1
 440 730 l 1,13,-1
 440 190 l 2,14,15
 440 87 440 87 392.5 38.5 c 128,-1,0
 345 -10 345 -10 250 -10 c 128,-1,1
249 920 m 1,16,-1
 168 790 l 1,17,-1
 60 790 l 1,18,-1
 190 960 l 1,19,-1
 310 960 l 1,20,-1
 440 790 l 1,21,-1
 332 790 l 1,22,-1
 251 920 l 1,23,-1
 249 920 l 1,16,-1
EndSplineSet
EndChar

StartChar: Udieresis
Encoding: 220 220 158
Width: 500
GlyphClass: 2
Flags: HW
LayerCount: 2
Fore
SplineSet
250 -10 m 128,-1,1
 155 -10 155 -10 107.5 38.5 c 128,-1,2
 60 87 60 87 60 190 c 2,3,-1
 60 730 l 1,4,-1
 144 730 l 1,5,-1
 144 210 l 2,6,7
 144 129 144 129 170.5 95.5 c 128,-1,8
 197 62 197 62 252 62 c 128,-1,9
 307 62 307 62 333.5 95.5 c 128,-1,10
 360 129 360 129 360 210 c 2,11,-1
 360 730 l 1,12,-1
 440 730 l 1,13,-1
 440 190 l 2,14,15
 440 87 440 87 392.5 38.5 c 128,-1,0
 345 -10 345 -10 250 -10 c 128,-1,1
290 810 m 1,16,-1
 290 940 l 1,17,-1
 370 940 l 1,18,-1
 370 810 l 1,19,-1
 290 810 l 1,16,-1
130 810 m 1,20,-1
 130 940 l 1,21,-1
 210 940 l 1,22,-1
 210 810 l 1,23,-1
 130 810 l 1,20,-1
EndSplineSet
EndChar

StartChar: Yacute
Encoding: 221 221 159
Width: 500
GlyphClass: 2
Flags: HW
LayerCount: 2
Fore
SplineSet
251 375 m 1,0,-1
 253 375 l 1,1,-1
 385 730 l 1,2,-1
 470 730 l 1,3,-1
 291 290 l 1,4,-1
 291 0 l 1,5,-1
 209 0 l 1,6,-1
 209 290 l 1,7,-1
 30 730 l 1,8,-1
 120 730 l 1,9,-1
 251 375 l 1,0,-1
260 960 m 1,10,-1
 380 960 l 1,11,-1
 230 790 l 1,12,-1
 150 790 l 1,13,-1
 260 960 l 1,10,-1
EndSplineSet
EndChar

StartChar: Thorn
Encoding: 222 222 160
Width: 500
GlyphClass: 2
Flags: HW
LayerCount: 2
Fore
SplineSet
75 730 m 1,0,-1
 157 730 l 1,1,-1
 157 605 l 1,2,-1
 235 605 l 2,3,4
 351 605 351 605 403 553 c 128,-1,5
 455 501 455 501 455 385 c 0,6,7
 455 277 455 277 400.5 226 c 128,-1,8
 346 175 346 175 237 175 c 2,9,-1
 157 175 l 1,10,-1
 157 0 l 1,11,-1
 75 0 l 1,12,-1
 75 730 l 1,0,-1
157 245 m 1,13,-1
 227 245 l 2,14,15
 311 245 311 245 343 274.5 c 128,-1,16
 375 304 375 304 375 385 c 0,17,18
 375 468 375 468 341.5 501.5 c 128,-1,19
 308 535 308 535 227 535 c 2,20,-1
 157 535 l 1,21,-1
 157 245 l 1,13,-1
EndSplineSet
EndChar

StartChar: germandbls
Encoding: 223 223 161
Width: 500
GlyphClass: 2
Flags: HW
LayerCount: 2
Fore
SplineSet
465 152 m 0,0,1
 465 72 465 72 425.5 31 c 128,-1,2
 386 -10 386 -10 312 -10 c 0,3,4
 258 -10 258 -10 192 8 c 1,5,-1
 201 78 l 1,6,7
 258 60 258 60 300 60 c 0,8,9
 380 60 380 60 380 152 c 0,10,11
 380 189 380 189 349.5 238.5 c 128,-1,12
 319 288 319 288 288.5 332 c 128,-1,13
 258 376 258 376 258 398 c 0,14,15
 258 422 258 422 305.5 502 c 128,-1,16
 353 582 353 582 353 620 c 0,17,18
 353 690 353 690 255 690 c 0,19,20
 193 690 193 690 170 660 c 128,-1,21
 147 630 147 630 147 540 c 2,22,-1
 147 0 l 1,23,-1
 65 0 l 1,24,-1
 65 538 l 2,25,26
 65 657 65 657 109 708.5 c 128,-1,27
 153 760 153 760 252 760 c 0,28,29
 340 760 340 760 387.5 722 c 128,-1,30
 435 684 435 684 435 615 c 0,31,32
 435 575 435 575 411.5 528 c 128,-1,33
 388 481 388 481 365 445.5 c 128,-1,34
 342 410 342 410 342 398 c 0,35,36
 342 387 342 387 361 359 c 128,-1,37
 380 331 380 331 403.5 301 c 128,-1,38
 427 271 427 271 446 229.5 c 128,-1,39
 465 188 465 188 465 152 c 0,0,1
EndSplineSet
EndChar

StartChar: agrave
Encoding: 224 224 162
Width: 500
GlyphClass: 2
Flags: HW
LayerCount: 2
Fore
SplineSet
255 530 m 0,0,1
 355 530 355 530 392.5 490 c 128,-1,2
 430 450 430 450 430 340 c 2,3,-1
 430 0 l 1,4,-1
 358 0 l 1,5,-1
 356 75 l 1,6,-1
 354 75 l 1,7,8
 307 -10 307 -10 205 -10 c 0,9,10
 140 -10 140 -10 100 31.5 c 128,-1,11
 60 73 60 73 60 145 c 0,12,13
 60 236 60 236 121.5 285.5 c 128,-1,14
 183 335 183 335 305 335 c 2,15,-1
 353 335 l 1,16,-1
 353 360 l 2,17,18
 353 417 353 417 331 440 c 128,-1,19
 309 463 309 463 255 463 c 0,20,21
 222 463 222 463 171 451 c 128,-1,22
 120 439 120 439 85 423 c 1,23,-1
 85 495 l 1,24,25
 120 510 120 510 170 520 c 128,-1,26
 220 530 220 530 255 530 c 0,0,1
240 760 m 1,27,-1
 350 590 l 1,28,-1
 270 590 l 1,29,-1
 120 760 l 1,30,-1
 240 760 l 1,27,-1
353 275 m 1,31,-1
 305 275 l 2,32,33
 135 275 135 275 135 150 c 0,34,35
 135 105 135 105 158 81 c 128,-1,36
 181 57 181 57 220 57 c 0,37,38
 279 57 279 57 316 105 c 128,-1,39
 353 153 353 153 353 240 c 2,40,-1
 353 275 l 1,31,-1
EndSplineSet
EndChar

StartChar: aacute
Encoding: 225 225 163
Width: 500
GlyphClass: 2
Flags: HW
LayerCount: 2
Fore
SplineSet
255 530 m 0,0,1
 355 530 355 530 392.5 490 c 128,-1,2
 430 450 430 450 430 340 c 2,3,-1
 430 0 l 1,4,-1
 358 0 l 1,5,-1
 356 75 l 1,6,-1
 354 75 l 1,7,8
 307 -10 307 -10 205 -10 c 0,9,10
 140 -10 140 -10 100 31.5 c 128,-1,11
 60 73 60 73 60 145 c 0,12,13
 60 236 60 236 121.5 285.5 c 128,-1,14
 183 335 183 335 305 335 c 2,15,-1
 353 335 l 1,16,-1
 353 360 l 2,17,18
 353 417 353 417 331 440 c 128,-1,19
 309 463 309 463 255 463 c 0,20,21
 222 463 222 463 171 451 c 128,-1,22
 120 439 120 439 85 423 c 1,23,-1
 85 495 l 1,24,25
 120 510 120 510 170 520 c 128,-1,26
 220 530 220 530 255 530 c 0,0,1
260 760 m 1,27,-1
 380 760 l 1,28,-1
 230 590 l 1,29,-1
 150 590 l 1,30,-1
 260 760 l 1,27,-1
353 275 m 1,31,-1
 305 275 l 2,32,33
 135 275 135 275 135 150 c 0,34,35
 135 105 135 105 158 81 c 128,-1,36
 181 57 181 57 220 57 c 0,37,38
 279 57 279 57 316 105 c 128,-1,39
 353 153 353 153 353 240 c 2,40,-1
 353 275 l 1,31,-1
EndSplineSet
EndChar

StartChar: acircumflex
Encoding: 226 226 164
Width: 500
GlyphClass: 2
Flags: HW
LayerCount: 2
Fore
SplineSet
255 530 m 0,0,1
 355 530 355 530 392.5 490 c 128,-1,2
 430 450 430 450 430 340 c 2,3,-1
 430 0 l 1,4,-1
 358 0 l 1,5,-1
 356 75 l 1,6,-1
 354 75 l 1,7,8
 307 -10 307 -10 205 -10 c 0,9,10
 140 -10 140 -10 100 31.5 c 128,-1,11
 60 73 60 73 60 145 c 0,12,13
 60 236 60 236 121.5 285.5 c 128,-1,14
 183 335 183 335 305 335 c 2,15,-1
 353 335 l 1,16,-1
 353 360 l 2,17,18
 353 417 353 417 331 440 c 128,-1,19
 309 463 309 463 255 463 c 0,20,21
 222 463 222 463 171 451 c 128,-1,22
 120 439 120 439 85 423 c 1,23,-1
 85 495 l 1,24,25
 120 510 120 510 170 520 c 128,-1,26
 220 530 220 530 255 530 c 0,0,1
249 720 m 1,27,-1
 168 590 l 1,28,-1
 60 590 l 1,29,-1
 190 760 l 1,30,-1
 310 760 l 1,31,-1
 440 590 l 1,32,-1
 332 590 l 1,33,-1
 251 720 l 1,34,-1
 249 720 l 1,27,-1
353 275 m 1,35,-1
 305 275 l 2,36,37
 135 275 135 275 135 150 c 0,38,39
 135 105 135 105 158 81 c 128,-1,40
 181 57 181 57 220 57 c 0,41,42
 279 57 279 57 316 105 c 128,-1,43
 353 153 353 153 353 240 c 2,44,-1
 353 275 l 1,35,-1
EndSplineSet
EndChar

StartChar: atilde
Encoding: 227 227 165
Width: 500
GlyphClass: 2
Flags: HW
LayerCount: 2
Fore
SplineSet
255 530 m 0,0,1
 355 530 355 530 392.5 490 c 128,-1,2
 430 450 430 450 430 340 c 2,3,-1
 430 0 l 1,4,-1
 358 0 l 1,5,-1
 356 75 l 1,6,-1
 354 75 l 1,7,8
 307 -10 307 -10 205 -10 c 0,9,10
 140 -10 140 -10 100 31.5 c 128,-1,11
 60 73 60 73 60 145 c 0,12,13
 60 236 60 236 121.5 285.5 c 128,-1,14
 183 335 183 335 305 335 c 2,15,-1
 353 335 l 1,16,-1
 353 360 l 2,17,18
 353 417 353 417 331 440 c 128,-1,19
 309 463 309 463 255 463 c 0,20,21
 222 463 222 463 171 451 c 128,-1,22
 120 439 120 439 85 423 c 1,23,-1
 85 495 l 1,24,25
 120 510 120 510 170 520 c 128,-1,26
 220 530 220 530 255 530 c 0,0,1
85 585 m 1,27,28
 85 672 85 672 101 706 c 128,-1,29
 117 740 117 740 152 740 c 0,30,31
 189 740 189 740 258 688 c 0,32,33
 308 650 308 650 325 650 c 0,34,35
 333 650 333 650 336.5 655 c 128,-1,36
 340 660 340 660 342.5 677.5 c 128,-1,37
 345 695 345 695 345 730 c 1,38,-1
 415 730 l 1,39,40
 415 643 415 643 399 609 c 128,-1,41
 383 575 383 575 348 575 c 0,42,43
 312 575 312 575 242 628 c 0,44,45
 194 665 194 665 175 665 c 0,46,47
 167 665 167 665 163.5 660 c 128,-1,48
 160 655 160 655 157.5 637.5 c 128,-1,49
 155 620 155 620 155 585 c 1,50,-1
 85 585 l 1,27,28
353 275 m 1,51,-1
 305 275 l 2,52,53
 135 275 135 275 135 150 c 0,54,55
 135 105 135 105 158 81 c 128,-1,56
 181 57 181 57 220 57 c 0,57,58
 279 57 279 57 316 105 c 128,-1,59
 353 153 353 153 353 240 c 2,60,-1
 353 275 l 1,51,-1
EndSplineSet
EndChar

StartChar: adieresis
Encoding: 228 228 166
Width: 500
GlyphClass: 2
Flags: HW
LayerCount: 2
Fore
SplineSet
255 530 m 0,0,1
 355 530 355 530 392.5 490 c 128,-1,2
 430 450 430 450 430 340 c 2,3,-1
 430 0 l 1,4,-1
 358 0 l 1,5,-1
 356 75 l 1,6,-1
 354 75 l 1,7,8
 307 -10 307 -10 205 -10 c 0,9,10
 140 -10 140 -10 100 31.5 c 128,-1,11
 60 73 60 73 60 145 c 0,12,13
 60 236 60 236 121.5 285.5 c 128,-1,14
 183 335 183 335 305 335 c 2,15,-1
 353 335 l 1,16,-1
 353 360 l 2,17,18
 353 417 353 417 331 440 c 128,-1,19
 309 463 309 463 255 463 c 0,20,21
 222 463 222 463 171 451 c 128,-1,22
 120 439 120 439 85 423 c 1,23,-1
 85 495 l 1,24,25
 120 510 120 510 170 520 c 128,-1,26
 220 530 220 530 255 530 c 0,0,1
290 610 m 1,27,-1
 290 740 l 1,28,-1
 370 740 l 1,29,-1
 370 610 l 1,30,-1
 290 610 l 1,27,-1
130 610 m 1,31,-1
 130 740 l 1,32,-1
 210 740 l 1,33,-1
 210 610 l 1,34,-1
 130 610 l 1,31,-1
353 275 m 1,35,-1
 305 275 l 2,36,37
 135 275 135 275 135 150 c 0,38,39
 135 105 135 105 157.5 81 c 128,-1,40
 180 57 180 57 220 57 c 0,41,42
 279 57 279 57 316 105 c 128,-1,43
 353 153 353 153 353 240 c 2,44,-1
 353 275 l 1,35,-1
EndSplineSet
EndChar

StartChar: aring
Encoding: 229 229 167
Width: 500
GlyphClass: 2
Flags: HW
LayerCount: 2
Fore
SplineSet
255 530 m 0,0,1
 355 530 355 530 392.5 490 c 128,-1,2
 430 450 430 450 430 340 c 2,3,-1
 430 0 l 1,4,-1
 358 0 l 1,5,-1
 356 75 l 1,6,-1
 354 75 l 1,7,8
 307 -10 307 -10 205 -10 c 0,9,10
 140 -10 140 -10 100 31.5 c 128,-1,11
 60 73 60 73 60 145 c 0,12,13
 60 236 60 236 121.5 285.5 c 128,-1,14
 183 335 183 335 305 335 c 2,15,-1
 353 335 l 1,16,-1
 353 360 l 2,17,18
 353 417 353 417 331 440 c 128,-1,19
 309 463 309 463 255 463 c 0,20,21
 222 463 222 463 171 451 c 128,-1,22
 120 439 120 439 85 423 c 1,23,-1
 85 495 l 1,24,25
 120 510 120 510 170 520 c 128,-1,26
 220 530 220 530 255 530 c 0,0,1
353 275 m 1,27,-1
 305 275 l 2,28,29
 135 275 135 275 135 150 c 0,30,31
 135 105 135 105 157.5 81 c 128,-1,32
 180 57 180 57 220 57 c 0,33,34
 279 57 279 57 316 105 c 128,-1,35
 353 153 353 153 353 240 c 2,36,-1
 353 275 l 1,27,-1
380 685 m 128,-1,38
 380 631 380 631 342 593 c 128,-1,39
 304 555 304 555 250 555 c 128,-1,40
 196 555 196 555 158 593 c 128,-1,41
 120 631 120 631 120 685 c 128,-1,42
 120 739 120 739 158 777 c 128,-1,43
 196 815 196 815 250 815 c 128,-1,44
 304 815 304 815 342 777 c 128,-1,37
 380 739 380 739 380 685 c 128,-1,38
320 685 m 128,-1,46
 320 714 320 714 299.5 734.5 c 128,-1,47
 279 755 279 755 250 755 c 128,-1,48
 221 755 221 755 200.5 734.5 c 128,-1,49
 180 714 180 714 180 685 c 128,-1,50
 180 656 180 656 200.5 635.5 c 128,-1,51
 221 615 221 615 250 615 c 128,-1,52
 279 615 279 615 299.5 635.5 c 128,-1,45
 320 656 320 656 320 685 c 128,-1,46
EndSplineSet
EndChar

StartChar: ae
Encoding: 230 230 168
Width: 500
GlyphClass: 2
Flags: HW
LayerCount: 2
Fore
SplineSet
293 234 m 1,0,1
 295 135 295 135 315 97 c 128,-1,2
 335 59 335 59 375 59 c 0,3,4
 417 59 417 59 465 88 c 1,5,-1
 465 15 l 1,6,7
 418 -10 418 -10 370 -10 c 0,8,9
 285 -10 285 -10 251 86 c 1,10,11
 233 34 233 34 203.5 12 c 128,-1,12
 174 -10 174 -10 130 -10 c 0,13,14
 81 -10 81 -10 50.5 30.5 c 128,-1,15
 20 71 20 71 20 145 c 0,16,17
 20 238 20 238 65 286.5 c 128,-1,18
 110 335 110 335 195 335 c 2,19,-1
 214 335 l 1,20,-1
 214 358 l 2,21,22
 214 420 214 420 201 441.5 c 128,-1,23
 188 463 188 463 155 463 c 0,24,25
 133 463 133 463 96.5 451.5 c 128,-1,26
 60 440 60 440 35 425 c 1,27,-1
 35 497 l 1,28,29
 60 510 60 510 96 520 c 128,-1,30
 132 530 132 530 155 530 c 0,31,32
 236 530 236 530 262 469 c 1,33,34
 295 530 295 530 360 530 c 0,35,36
 420 530 420 530 450 473 c 128,-1,37
 480 416 480 416 480 285 c 0,38,39
 480 249 480 249 478 234 c 1,40,-1
 293 234 l 1,0,1
293 300 m 1,41,-1
 412 300 l 1,42,43
 411 393 411 393 397.5 427 c 128,-1,44
 384 461 384 461 355 461 c 0,45,46
 327 461 327 461 311.5 425.5 c 128,-1,47
 296 390 296 390 293 300 c 1,41,-1
214 275 m 1,48,-1
 195 275 l 2,49,50
 145 275 145 275 117.5 243 c 128,-1,51
 90 211 90 211 90 150 c 0,52,53
 90 105 90 105 104.5 81 c 128,-1,54
 119 57 119 57 142 57 c 0,55,56
 179 57 179 57 196 101.5 c 128,-1,57
 213 146 213 146 214 275 c 1,48,-1
EndSplineSet
EndChar

StartChar: ccedilla
Encoding: 231 231 169
Width: 500
GlyphClass: 2
Flags: HW
LayerCount: 2
Fore
SplineSet
80 260 m 0,0,1
 80 394 80 394 135 462 c 128,-1,2
 190 530 190 530 290 530 c 0,3,4
 351 530 351 530 415 505 c 1,5,-1
 415 425 l 1,6,7
 355 458 355 458 295 458 c 0,8,9
 232 458 232 458 197 408 c 128,-1,10
 162 358 162 358 162 260 c 0,11,12
 162 159 162 159 199 109 c 128,-1,13
 236 59 236 59 300 59 c 0,14,15
 359 59 359 59 420 95 c 1,16,-1
 420 15 l 1,17,18
 381 0 381 0 340 -6 c 1,19,20
 368 -51 368 -51 368 -100 c 0,21,22
 368 -151 368 -151 332 -185.5 c 128,-1,23
 296 -220 296 -220 220 -220 c 0,24,25
 167 -220 167 -220 118 -201 c 1,26,-1
 118 -128 l 1,27,28
 160 -150 160 -150 210 -150 c 0,29,30
 247 -150 247 -150 268.5 -131 c 128,-1,31
 290 -112 290 -112 290 -80 c 0,32,33
 290 -43 290 -43 266 -9 c 1,34,35
 177 0 177 0 128.5 67.5 c 128,-1,36
 80 135 80 135 80 260 c 0,0,1
EndSplineSet
EndChar

StartChar: egrave
Encoding: 232 232 170
Width: 500
GlyphClass: 2
Flags: HW
LayerCount: 2
Fore
SplineSet
240 760 m 1,0,-1
 350 590 l 1,1,-1
 270 590 l 1,2,-1
 120 760 l 1,3,-1
 240 760 l 1,0,-1
138 234 m 1,4,5
 142 141 142 141 176 100 c 128,-1,6
 210 59 210 59 275 59 c 0,7,8
 336 59 336 59 410 95 c 1,9,-1
 410 15 l 1,10,11
 336 -10 336 -10 270 -10 c 0,12,13
 55 -10 55 -10 55 260 c 0,14,15
 55 401 55 401 105 465.5 c 128,-1,16
 155 530 155 530 255 530 c 0,17,18
 346 530 346 530 390.5 468 c 128,-1,19
 435 406 435 406 435 265 c 0,20,21
 435 254 435 254 433 234 c 1,22,-1
 138 234 l 1,4,5
138 300 m 1,23,-1
 356 300 l 1,24,25
 355 461 355 461 255 461 c 0,26,27
 198 461 198 461 170 425 c 128,-1,28
 142 389 142 389 138 300 c 1,23,-1
EndSplineSet
EndChar

StartChar: eacute
Encoding: 233 233 171
Width: 500
GlyphClass: 2
Flags: HW
LayerCount: 2
Fore
SplineSet
260 760 m 1,0,-1
 380 760 l 1,1,-1
 230 590 l 1,2,-1
 150 590 l 1,3,-1
 260 760 l 1,0,-1
138 234 m 1,4,5
 142 141 142 141 176 100 c 128,-1,6
 210 59 210 59 275 59 c 0,7,8
 336 59 336 59 410 95 c 1,9,-1
 410 15 l 1,10,11
 336 -10 336 -10 270 -10 c 0,12,13
 55 -10 55 -10 55 260 c 0,14,15
 55 401 55 401 105 465.5 c 128,-1,16
 155 530 155 530 255 530 c 0,17,18
 346 530 346 530 390.5 468 c 128,-1,19
 435 406 435 406 435 265 c 0,20,21
 435 254 435 254 433 234 c 1,22,-1
 138 234 l 1,4,5
138 300 m 1,23,-1
 356 300 l 1,24,25
 355 461 355 461 255 461 c 0,26,27
 198 461 198 461 170 425 c 128,-1,28
 142 389 142 389 138 300 c 1,23,-1
EndSplineSet
EndChar

StartChar: ecircumflex
Encoding: 234 234 172
Width: 500
GlyphClass: 2
Flags: HW
LayerCount: 2
Fore
SplineSet
249 720 m 1,0,-1
 168 590 l 1,1,-1
 60 590 l 1,2,-1
 190 760 l 1,3,-1
 310 760 l 1,4,-1
 440 590 l 1,5,-1
 332 590 l 1,6,-1
 251 720 l 1,7,-1
 249 720 l 1,0,-1
138 234 m 1,8,9
 142 141 142 141 176 100 c 128,-1,10
 210 59 210 59 275 59 c 0,11,12
 336 59 336 59 410 95 c 1,13,-1
 410 15 l 1,14,15
 336 -10 336 -10 270 -10 c 0,16,17
 55 -10 55 -10 55 260 c 0,18,19
 55 401 55 401 105 465.5 c 128,-1,20
 155 530 155 530 255 530 c 0,21,22
 346 530 346 530 390.5 468 c 128,-1,23
 435 406 435 406 435 265 c 0,24,25
 435 254 435 254 433 234 c 1,26,-1
 138 234 l 1,8,9
138 300 m 1,27,-1
 356 300 l 1,28,29
 355 461 355 461 255 461 c 0,30,31
 198 461 198 461 170 425 c 128,-1,32
 142 389 142 389 138 300 c 1,27,-1
EndSplineSet
EndChar

StartChar: edieresis
Encoding: 235 235 173
Width: 500
GlyphClass: 2
Flags: HW
LayerCount: 2
Fore
SplineSet
290 610 m 1,0,-1
 290 740 l 1,1,-1
 370 740 l 1,2,-1
 370 610 l 1,3,-1
 290 610 l 1,0,-1
130 610 m 1,4,-1
 130 740 l 1,5,-1
 210 740 l 1,6,-1
 210 610 l 1,7,-1
 130 610 l 1,4,-1
138 234 m 1,8,9
 142 141 142 141 176 100 c 128,-1,10
 210 59 210 59 275 59 c 0,11,12
 336 59 336 59 410 95 c 1,13,-1
 410 15 l 1,14,15
 336 -10 336 -10 270 -10 c 0,16,17
 55 -10 55 -10 55 260 c 0,18,19
 55 401 55 401 105 465.5 c 128,-1,20
 155 530 155 530 255 530 c 0,21,22
 346 530 346 530 390.5 468 c 128,-1,23
 435 406 435 406 435 265 c 0,24,25
 435 254 435 254 433 234 c 1,26,-1
 138 234 l 1,8,9
138 300 m 1,27,-1
 356 300 l 1,28,29
 355 461 355 461 255 461 c 0,30,31
 198 461 198 461 170 425 c 128,-1,32
 142 389 142 389 138 300 c 1,27,-1
EndSplineSet
EndChar

StartChar: igrave
Encoding: 236 236 174
Width: 500
GlyphClass: 2
Flags: HW
LayerCount: 2
Fore
SplineSet
316 520 m 1,0,-1
 316 68 l 1,1,-1
 425 68 l 1,2,-1
 425 0 l 1,3,-1
 95 0 l 1,4,-1
 95 68 l 1,5,-1
 234 68 l 1,6,-1
 234 452 l 1,7,-1
 125 452 l 1,8,-1
 125 520 l 1,9,-1
 316 520 l 1,0,-1
240 760 m 1,10,-1
 350 590 l 1,11,-1
 270 590 l 1,12,-1
 120 760 l 1,13,-1
 240 760 l 1,10,-1
EndSplineSet
EndChar

StartChar: iacute
Encoding: 237 237 175
Width: 500
GlyphClass: 2
Flags: HW
LayerCount: 2
Fore
SplineSet
316 520 m 1,0,-1
 316 68 l 1,1,-1
 425 68 l 1,2,-1
 425 0 l 1,3,-1
 95 0 l 1,4,-1
 95 68 l 1,5,-1
 234 68 l 1,6,-1
 234 452 l 1,7,-1
 125 452 l 1,8,-1
 125 520 l 1,9,-1
 316 520 l 1,0,-1
260 760 m 1,10,-1
 380 760 l 1,11,-1
 230 590 l 1,12,-1
 150 590 l 1,13,-1
 260 760 l 1,10,-1
EndSplineSet
EndChar

StartChar: icircumflex
Encoding: 238 238 176
Width: 500
GlyphClass: 2
Flags: HW
LayerCount: 2
Fore
SplineSet
316 520 m 1,0,-1
 316 68 l 1,1,-1
 425 68 l 1,2,-1
 425 0 l 1,3,-1
 95 0 l 1,4,-1
 95 68 l 1,5,-1
 234 68 l 1,6,-1
 234 452 l 1,7,-1
 125 452 l 1,8,-1
 125 520 l 1,9,-1
 316 520 l 1,0,-1
249 720 m 1,10,-1
 168 590 l 1,11,-1
 60 590 l 1,12,-1
 190 760 l 1,13,-1
 310 760 l 1,14,-1
 440 590 l 1,15,-1
 332 590 l 1,16,-1
 251 720 l 1,17,-1
 249 720 l 1,10,-1
EndSplineSet
EndChar

StartChar: idieresis
Encoding: 239 239 177
Width: 500
GlyphClass: 2
Flags: HW
LayerCount: 2
Fore
SplineSet
316 520 m 1,0,-1
 316 68 l 1,1,-1
 425 68 l 1,2,-1
 425 0 l 1,3,-1
 95 0 l 1,4,-1
 95 68 l 1,5,-1
 234 68 l 1,6,-1
 234 452 l 1,7,-1
 125 452 l 1,8,-1
 125 520 l 1,9,-1
 316 520 l 1,0,-1
290 610 m 1,10,-1
 290 740 l 1,11,-1
 370 740 l 1,12,-1
 370 610 l 1,13,-1
 290 610 l 1,10,-1
130 610 m 1,14,-1
 130 740 l 1,15,-1
 210 740 l 1,16,-1
 210 610 l 1,17,-1
 130 610 l 1,14,-1
EndSplineSet
EndChar

StartChar: eth
Encoding: 240 240 178
Width: 500
GlyphClass: 2
Flags: HW
LayerCount: 2
Fore
SplineSet
250 59 m 128,-1,1
 311 59 311 59 339.5 104.5 c 128,-1,2
 368 150 368 150 368 260 c 128,-1,3
 368 370 368 370 339.5 415.5 c 128,-1,4
 311 461 311 461 250 461 c 128,-1,5
 189 461 189 461 160.5 415.5 c 128,-1,6
 132 370 132 370 132 260 c 128,-1,7
 132 150 132 150 160.5 104.5 c 128,-1,0
 189 59 189 59 250 59 c 128,-1,1
250 -10 m 128,-1,9
 50 -10 50 -10 50 260 c 128,-1,10
 50 530 50 530 250 530 c 0,11,12
 277 530 277 530 309 522 c 1,13,-1
 310 524 l 1,14,15
 289 569 289 569 258 597 c 1,16,-1
 99 526 l 1,17,-1
 71 589 l 1,18,-1
 189 642 l 1,19,20
 144 661 144 661 105 665 c 1,21,-1
 105 740 l 1,22,23
 202 728 202 728 274 680 c 1,24,-1
 406 739 l 1,25,-1
 434 676 l 1,26,-1
 333 630 l 1,27,28
 450 505 450 505 450 260 c 0,29,8
 450 -10 450 -10 250 -10 c 128,-1,9
EndSplineSet
EndChar

StartChar: ntilde
Encoding: 241 241 179
Width: 500
GlyphClass: 2
Flags: HW
LayerCount: 2
Fore
SplineSet
440 0 m 1,0,-1
 363 0 l 1,1,-1
 363 312 l 2,2,3
 363 400 363 400 343 429.5 c 128,-1,4
 323 459 323 459 270 459 c 0,5,6
 220 459 220 459 184.5 403 c 128,-1,7
 149 347 149 347 149 252 c 2,8,-1
 149 0 l 1,9,-1
 70 0 l 1,10,-1
 70 520 l 1,11,-1
 144 520 l 1,12,-1
 146 445 l 1,13,-1
 148 445 l 1,14,15
 167 483 167 483 206 506.5 c 128,-1,16
 245 530 245 530 290 530 c 0,17,18
 369 530 369 530 404.5 484.5 c 128,-1,19
 440 439 440 439 440 330 c 2,20,-1
 440 0 l 1,0,-1
85 585 m 1,21,22
 85 672 85 672 101 706 c 128,-1,23
 117 740 117 740 152 740 c 0,24,25
 189 740 189 740 258 688 c 0,26,27
 308 650 308 650 325 650 c 0,28,29
 333 650 333 650 336.5 655 c 128,-1,30
 340 660 340 660 342.5 677.5 c 128,-1,31
 345 695 345 695 345 730 c 1,32,-1
 415 730 l 1,33,34
 415 643 415 643 399 609 c 128,-1,35
 383 575 383 575 348 575 c 0,36,37
 312 575 312 575 242 628 c 0,38,39
 194 665 194 665 175 665 c 0,40,41
 167 665 167 665 163.5 660 c 128,-1,42
 160 655 160 655 157.5 637.5 c 128,-1,43
 155 620 155 620 155 585 c 1,44,-1
 85 585 l 1,21,22
EndSplineSet
EndChar

StartChar: ograve
Encoding: 242 242 180
Width: 500
GlyphClass: 2
Flags: HW
LayerCount: 2
Fore
SplineSet
250 530 m 128,-1,1
 450 530 450 530 450 260 c 128,-1,2
 450 -10 450 -10 250 -10 c 128,-1,3
 50 -10 50 -10 50 260 c 128,-1,0
 50 530 50 530 250 530 c 128,-1,1
240 760 m 1,4,-1
 350 590 l 1,5,-1
 270 590 l 1,6,-1
 120 760 l 1,7,-1
 240 760 l 1,4,-1
250 59 m 128,-1,9
 311 59 311 59 339.5 104.5 c 128,-1,10
 368 150 368 150 368 260 c 128,-1,11
 368 370 368 370 339.5 415.5 c 128,-1,12
 311 461 311 461 250 461 c 128,-1,13
 189 461 189 461 160.5 415.5 c 128,-1,14
 132 370 132 370 132 260 c 128,-1,15
 132 150 132 150 160.5 104.5 c 128,-1,8
 189 59 189 59 250 59 c 128,-1,9
EndSplineSet
EndChar

StartChar: oacute
Encoding: 243 243 181
Width: 500
GlyphClass: 2
Flags: HW
LayerCount: 2
Fore
SplineSet
250 530 m 128,-1,1
 450 530 450 530 450 260 c 128,-1,2
 450 -10 450 -10 250 -10 c 128,-1,3
 50 -10 50 -10 50 260 c 128,-1,0
 50 530 50 530 250 530 c 128,-1,1
260 760 m 1,4,-1
 380 760 l 1,5,-1
 230 590 l 1,6,-1
 150 590 l 1,7,-1
 260 760 l 1,4,-1
250 59 m 128,-1,9
 311 59 311 59 339.5 104.5 c 128,-1,10
 368 150 368 150 368 260 c 128,-1,11
 368 370 368 370 339.5 415.5 c 128,-1,12
 311 461 311 461 250 461 c 128,-1,13
 189 461 189 461 160.5 415.5 c 128,-1,14
 132 370 132 370 132 260 c 128,-1,15
 132 150 132 150 160.5 104.5 c 128,-1,8
 189 59 189 59 250 59 c 128,-1,9
EndSplineSet
EndChar

StartChar: ocircumflex
Encoding: 244 244 182
Width: 500
GlyphClass: 2
Flags: HW
LayerCount: 2
Fore
SplineSet
250 530 m 128,-1,1
 450 530 450 530 450 260 c 128,-1,2
 450 -10 450 -10 250 -10 c 128,-1,3
 50 -10 50 -10 50 260 c 128,-1,0
 50 530 50 530 250 530 c 128,-1,1
249 720 m 1,4,-1
 168 590 l 1,5,-1
 60 590 l 1,6,-1
 190 760 l 1,7,-1
 310 760 l 1,8,-1
 440 590 l 1,9,-1
 332 590 l 1,10,-1
 251 720 l 1,11,-1
 249 720 l 1,4,-1
250 59 m 128,-1,13
 311 59 311 59 339.5 104.5 c 128,-1,14
 368 150 368 150 368 260 c 128,-1,15
 368 370 368 370 339.5 415.5 c 128,-1,16
 311 461 311 461 250 461 c 128,-1,17
 189 461 189 461 160.5 415.5 c 128,-1,18
 132 370 132 370 132 260 c 128,-1,19
 132 150 132 150 160.5 104.5 c 128,-1,12
 189 59 189 59 250 59 c 128,-1,13
EndSplineSet
EndChar

StartChar: otilde
Encoding: 245 245 183
Width: 500
GlyphClass: 2
Flags: HW
LayerCount: 2
Fore
SplineSet
250 530 m 128,-1,1
 450 530 450 530 450 260 c 128,-1,2
 450 -10 450 -10 250 -10 c 128,-1,3
 50 -10 50 -10 50 260 c 128,-1,0
 50 530 50 530 250 530 c 128,-1,1
85 585 m 1,4,5
 85 672 85 672 101 706 c 128,-1,6
 117 740 117 740 152 740 c 0,7,8
 189 740 189 740 258 688 c 0,9,10
 308 650 308 650 325 650 c 0,11,12
 333 650 333 650 336.5 655 c 128,-1,13
 340 660 340 660 342.5 677.5 c 128,-1,14
 345 695 345 695 345 730 c 1,15,-1
 415 730 l 1,16,17
 415 643 415 643 399 609 c 128,-1,18
 383 575 383 575 348 575 c 0,19,20
 312 575 312 575 242 628 c 0,21,22
 194 665 194 665 175 665 c 0,23,24
 167 665 167 665 163.5 660 c 128,-1,25
 160 655 160 655 157.5 637.5 c 128,-1,26
 155 620 155 620 155 585 c 1,27,-1
 85 585 l 1,4,5
250 59 m 128,-1,29
 311 59 311 59 339.5 104.5 c 128,-1,30
 368 150 368 150 368 260 c 128,-1,31
 368 370 368 370 339.5 415.5 c 128,-1,32
 311 461 311 461 250 461 c 128,-1,33
 189 461 189 461 160.5 415.5 c 128,-1,34
 132 370 132 370 132 260 c 128,-1,35
 132 150 132 150 160.5 104.5 c 128,-1,28
 189 59 189 59 250 59 c 128,-1,29
EndSplineSet
EndChar

StartChar: odieresis
Encoding: 246 246 184
Width: 500
GlyphClass: 2
Flags: HW
LayerCount: 2
Fore
SplineSet
250 530 m 128,-1,1
 450 530 450 530 450 260 c 128,-1,2
 450 -10 450 -10 250 -10 c 128,-1,3
 50 -10 50 -10 50 260 c 128,-1,0
 50 530 50 530 250 530 c 128,-1,1
290 610 m 1,4,-1
 290 740 l 1,5,-1
 370 740 l 1,6,-1
 370 610 l 1,7,-1
 290 610 l 1,4,-1
130 610 m 1,8,-1
 130 740 l 1,9,-1
 210 740 l 1,10,-1
 210 610 l 1,11,-1
 130 610 l 1,8,-1
250 59 m 128,-1,13
 311 59 311 59 339.5 104.5 c 128,-1,14
 368 150 368 150 368 260 c 128,-1,15
 368 370 368 370 339.5 415.5 c 128,-1,16
 311 461 311 461 250 461 c 128,-1,17
 189 461 189 461 160.5 415.5 c 128,-1,18
 132 370 132 370 132 260 c 128,-1,19
 132 150 132 150 160.5 104.5 c 128,-1,12
 189 59 189 59 250 59 c 128,-1,13
EndSplineSet
EndChar

StartChar: divide
Encoding: 247 247 185
Width: 1000
GlyphClass: 2
Flags: HW
LayerCount: 2
Fore
SplineSet
500 224 m 0,0,1
 558 224 558 224 560 165 c 1,2,3
 560 106 560 106 500 106 c 0,4,5
 443 106 443 106 441 165 c 1,6,7
 441 224 441 224 500 224 c 0,0,1
500 654 m 0,8,9
 558 654 558 654 560 595 c 1,10,11
 560 536 560 536 500 536 c 0,12,13
 443 536 443 536 441 595 c 1,14,15
 441 654 441 654 500 654 c 0,8,9
157 416 m 1,16,-1
 843 416 l 1,17,-1
 843 344 l 1,18,-1
 157 344 l 1,19,-1
 157 416 l 1,16,-1
EndSplineSet
EndChar

StartChar: oslash
Encoding: 248 248 186
Width: 500
GlyphClass: 2
Flags: HW
LayerCount: 2
Fore
SplineSet
250 59 m 0,0,1
 311 59 311 59 339.5 104.5 c 128,-1,2
 368 150 368 150 368 260 c 0,3,4
 368 314 368 314 360 356 c 1,5,-1
 172 89 l 1,6,7
 199 59 199 59 250 59 c 0,0,1
250 -10 m 0,8,9
 176 -10 176 -10 129 27 c 1,10,-1
 89 -30 l 1,11,-1
 31 10 l 1,12,-1
 83 84 l 1,13,14
 50 148 50 148 50 260 c 0,15,16
 50 530 50 530 250 530 c 0,17,18
 324 530 324 530 371 493 c 1,19,-1
 411 550 l 1,20,-1
 469 510 l 1,21,-1
 417 436 l 1,22,23
 450 372 450 372 450 260 c 0,24,25
 450 -10 450 -10 250 -10 c 0,8,9
140 164 m 1,26,-1
 328 431 l 1,27,28
 301 461 301 461 250 461 c 0,29,30
 189 461 189 461 160.5 415.5 c 128,-1,31
 132 370 132 370 132 260 c 0,32,33
 132 206 132 206 140 164 c 1,26,-1
EndSplineSet
EndChar

StartChar: ugrave
Encoding: 249 249 187
Width: 500
GlyphClass: 2
Flags: HW
LayerCount: 2
Fore
SplineSet
65 520 m 1,0,-1
 142 520 l 1,1,-1
 142 198 l 2,2,3
 142 115 142 115 160.5 88 c 128,-1,4
 179 61 179 61 230 61 c 0,5,6
 279 61 279 61 312.5 116 c 128,-1,7
 346 171 346 171 346 268 c 2,8,-1
 346 520 l 1,9,-1
 425 520 l 1,10,-1
 425 0 l 1,11,-1
 351 0 l 1,12,-1
 349 75 l 1,13,-1
 347 75 l 1,14,15
 328 35 328 35 291 12.5 c 128,-1,16
 254 -10 254 -10 210 -10 c 0,17,18
 133 -10 133 -10 99 33 c 128,-1,19
 65 76 65 76 65 180 c 2,20,-1
 65 520 l 1,0,-1
240 760 m 1,21,-1
 350 590 l 1,22,-1
 270 590 l 1,23,-1
 120 760 l 1,24,-1
 240 760 l 1,21,-1
EndSplineSet
EndChar

StartChar: uacute
Encoding: 250 250 188
Width: 500
GlyphClass: 2
Flags: HW
LayerCount: 2
Fore
SplineSet
65 520 m 1,0,-1
 142 520 l 1,1,-1
 142 198 l 2,2,3
 142 115 142 115 160.5 88 c 128,-1,4
 179 61 179 61 230 61 c 0,5,6
 279 61 279 61 312.5 116 c 128,-1,7
 346 171 346 171 346 268 c 2,8,-1
 346 520 l 1,9,-1
 425 520 l 1,10,-1
 425 0 l 1,11,-1
 351 0 l 1,12,-1
 349 75 l 1,13,-1
 347 75 l 1,14,15
 328 35 328 35 291 12.5 c 128,-1,16
 254 -10 254 -10 210 -10 c 0,17,18
 133 -10 133 -10 99 33 c 128,-1,19
 65 76 65 76 65 180 c 2,20,-1
 65 520 l 1,0,-1
260 760 m 1,21,-1
 380 760 l 1,22,-1
 230 590 l 1,23,-1
 150 590 l 1,24,-1
 260 760 l 1,21,-1
EndSplineSet
EndChar

StartChar: ucircumflex
Encoding: 251 251 189
Width: 500
GlyphClass: 2
Flags: HW
LayerCount: 2
Fore
SplineSet
65 520 m 1,0,-1
 142 520 l 1,1,-1
 142 198 l 2,2,3
 142 115 142 115 160.5 88 c 128,-1,4
 179 61 179 61 230 61 c 0,5,6
 279 61 279 61 312.5 116 c 128,-1,7
 346 171 346 171 346 268 c 2,8,-1
 346 520 l 1,9,-1
 425 520 l 1,10,-1
 425 0 l 1,11,-1
 351 0 l 1,12,-1
 349 75 l 1,13,-1
 347 75 l 1,14,15
 328 35 328 35 291 12.5 c 128,-1,16
 254 -10 254 -10 210 -10 c 0,17,18
 133 -10 133 -10 99 33 c 128,-1,19
 65 76 65 76 65 180 c 2,20,-1
 65 520 l 1,0,-1
249 720 m 1,21,-1
 168 590 l 1,22,-1
 60 590 l 1,23,-1
 190 760 l 1,24,-1
 310 760 l 1,25,-1
 440 590 l 1,26,-1
 332 590 l 1,27,-1
 251 720 l 1,28,-1
 249 720 l 1,21,-1
EndSplineSet
EndChar

StartChar: udieresis
Encoding: 252 252 190
Width: 500
GlyphClass: 2
Flags: HW
LayerCount: 2
Fore
SplineSet
65 520 m 1,0,-1
 142 520 l 1,1,-1
 142 198 l 2,2,3
 142 115 142 115 160.5 88 c 128,-1,4
 179 61 179 61 230 61 c 0,5,6
 279 61 279 61 312.5 116 c 128,-1,7
 346 171 346 171 346 268 c 2,8,-1
 346 520 l 1,9,-1
 425 520 l 1,10,-1
 425 0 l 1,11,-1
 351 0 l 1,12,-1
 349 75 l 1,13,-1
 347 75 l 1,14,15
 328 35 328 35 291 12.5 c 128,-1,16
 254 -10 254 -10 210 -10 c 0,17,18
 133 -10 133 -10 99 33 c 128,-1,19
 65 76 65 76 65 180 c 2,20,-1
 65 520 l 1,0,-1
290 610 m 1,21,-1
 290 740 l 1,22,-1
 370 740 l 1,23,-1
 370 610 l 1,24,-1
 290 610 l 1,21,-1
130 610 m 1,25,-1
 130 740 l 1,26,-1
 210 740 l 1,27,-1
 210 610 l 1,28,-1
 130 610 l 1,25,-1
EndSplineSet
EndChar

StartChar: yacute
Encoding: 253 253 191
Width: 500
GlyphClass: 2
Flags: HW
LayerCount: 2
Fore
SplineSet
260 760 m 1,0,-1
 380 760 l 1,1,-1
 230 590 l 1,2,-1
 150 590 l 1,3,-1
 260 760 l 1,0,-1
133 520 m 1,4,-1
 264 110 l 1,5,-1
 266 110 l 1,6,-1
 378 520 l 1,7,-1
 465 520 l 1,8,-1
 305 0 l 2,9,10
 274 -101 274 -101 244.5 -148.5 c 128,-1,11
 215 -196 215 -196 176 -213 c 128,-1,12
 137 -230 137 -230 65 -230 c 1,13,-1
 65 -160 l 1,14,15
 106 -160 106 -160 125.5 -156.5 c 128,-1,16
 145 -153 145 -153 164 -135 c 128,-1,17
 183 -117 183 -117 194.5 -88.5 c 128,-1,18
 206 -60 206 -60 225 0 c 1,19,-1
 45 520 l 1,20,-1
 133 520 l 1,4,-1
EndSplineSet
EndChar

StartChar: thorn
Encoding: 254 254 192
Width: 500
GlyphClass: 2
Flags: HW
LayerCount: 2
Fore
SplineSet
144 750 m 1,0,-1
 144 445 l 1,1,-1
 146 445 l 1,2,3
 189 530 189 530 285 530 c 0,4,5
 460 530 460 530 460 260 c 0,6,7
 460 125 460 125 412 57.5 c 128,-1,8
 364 -10 364 -10 285 -10 c 0,9,10
 194 -10 194 -10 151 75 c 1,11,-1
 149 75 l 1,12,-1
 149 -220 l 1,13,-1
 70 -220 l 1,14,-1
 70 750 l 1,15,-1
 144 750 l 1,0,-1
381 260 m 0,16,17
 381 455 381 455 265 455 c 0,18,19
 214 455 214 455 181.5 405.5 c 128,-1,20
 149 356 149 356 149 265 c 2,21,-1
 149 255 l 2,22,23
 149 164 149 164 181.5 114.5 c 128,-1,24
 214 65 214 65 265 65 c 0,25,26
 318 65 318 65 349.5 113.5 c 128,-1,27
 381 162 381 162 381 260 c 0,16,17
EndSplineSet
EndChar

StartChar: ydieresis
Encoding: 255 255 193
Width: 500
GlyphClass: 2
Flags: HW
LayerCount: 2
Fore
SplineSet
290 610 m 1,0,-1
 290 740 l 1,1,-1
 370 740 l 1,2,-1
 370 610 l 1,3,-1
 290 610 l 1,0,-1
130 610 m 1,4,-1
 130 740 l 1,5,-1
 210 740 l 1,6,-1
 210 610 l 1,7,-1
 130 610 l 1,4,-1
133 520 m 1,8,-1
 264 110 l 1,9,-1
 266 110 l 1,10,-1
 378 520 l 1,11,-1
 465 520 l 1,12,-1
 305 0 l 2,13,14
 274 -101 274 -101 244.5 -148.5 c 128,-1,15
 215 -196 215 -196 176 -213 c 128,-1,16
 137 -230 137 -230 65 -230 c 1,17,-1
 65 -160 l 1,18,19
 106 -160 106 -160 125.5 -156.5 c 128,-1,20
 145 -153 145 -153 164 -135 c 128,-1,21
 183 -117 183 -117 194.5 -88.5 c 128,-1,22
 206 -60 206 -60 225 0 c 1,23,-1
 45 520 l 1,24,-1
 133 520 l 1,8,-1
EndSplineSet
EndChar

StartChar: Amacron
Encoding: 256 256 194
Width: 500
GlyphClass: 2
Flags: HW
LayerCount: 2
Fore
SplineSet
100 850 m 1,0,-1
 100 910 l 1,1,-1
 400 910 l 1,2,-1
 400 850 l 1,3,-1
 100 850 l 1,0,-1
249 660 m 1,4,-1
 247 660 l 1,5,-1
 164 280 l 1,6,-1
 332 280 l 1,7,-1
 249 660 l 1,4,-1
348 210 m 1,8,-1
 148 210 l 1,9,-1
 102 0 l 1,10,-1
 20 0 l 1,11,-1
 200 730 l 1,12,-1
 300 730 l 1,13,-1
 480 0 l 1,14,-1
 394 0 l 1,15,-1
 348 210 l 1,8,-1
EndSplineSet
EndChar

StartChar: amacron
Encoding: 257 257 195
Width: 500
GlyphClass: 2
Flags: HW
LayerCount: 2
Fore
SplineSet
100 640 m 1,0,-1
 100 700 l 1,1,-1
 400 700 l 1,2,-1
 400 640 l 1,3,-1
 100 640 l 1,0,-1
255 530 m 0,4,5
 355 530 355 530 392.5 490 c 128,-1,6
 430 450 430 450 430 340 c 2,7,-1
 430 0 l 1,8,-1
 358 0 l 1,9,-1
 356 75 l 1,10,-1
 354 75 l 1,11,12
 307 -10 307 -10 205 -10 c 0,13,14
 140 -10 140 -10 100 31.5 c 128,-1,15
 60 73 60 73 60 145 c 0,16,17
 60 236 60 236 121.5 285.5 c 128,-1,18
 183 335 183 335 305 335 c 2,19,-1
 353 335 l 1,20,-1
 353 360 l 2,21,22
 353 417 353 417 331 440 c 128,-1,23
 309 463 309 463 255 463 c 0,24,25
 222 463 222 463 171 451 c 128,-1,26
 120 439 120 439 85 423 c 1,27,-1
 85 495 l 1,28,29
 120 510 120 510 170 520 c 128,-1,30
 220 530 220 530 255 530 c 0,4,5
353 275 m 1,31,-1
 305 275 l 2,32,33
 135 275 135 275 135 150 c 0,34,35
 135 105 135 105 158 81 c 128,-1,36
 181 57 181 57 220 57 c 0,37,38
 279 57 279 57 316 105 c 128,-1,39
 353 153 353 153 353 240 c 2,40,-1
 353 275 l 1,31,-1
EndSplineSet
EndChar

StartChar: Abreve
Encoding: 258 258 196
Width: 500
GlyphClass: 2
Flags: HW
LayerCount: 2
Fore
SplineSet
250 785 m 128,-1,1
 172 785 172 785 126 828 c 128,-1,2
 80 871 80 871 80 945 c 1,3,-1
 155 945 l 1,4,5
 157 902 157 902 182.5 878.5 c 128,-1,6
 208 855 208 855 250 855 c 128,-1,7
 292 855 292 855 317.5 878.5 c 128,-1,8
 343 902 343 902 345 945 c 1,9,-1
 420 945 l 1,10,11
 420 871 420 871 374 828 c 128,-1,0
 328 785 328 785 250 785 c 128,-1,1
249 660 m 1,12,-1
 247 660 l 1,13,-1
 164 280 l 1,14,-1
 332 280 l 1,15,-1
 249 660 l 1,12,-1
348 210 m 1,16,-1
 148 210 l 1,17,-1
 102 0 l 1,18,-1
 20 0 l 1,19,-1
 200 730 l 1,20,-1
 300 730 l 1,21,-1
 480 0 l 1,22,-1
 394 0 l 1,23,-1
 348 210 l 1,16,-1
EndSplineSet
EndChar

StartChar: abreve
Encoding: 259 259 197
Width: 500
GlyphClass: 2
Flags: HW
LayerCount: 2
Fore
SplineSet
250 585 m 128,-1,1
 172 585 172 585 126 628 c 128,-1,2
 80 671 80 671 80 745 c 1,3,-1
 155 745 l 1,4,5
 157 702 157 702 182.5 678.5 c 128,-1,6
 208 655 208 655 250 655 c 128,-1,7
 292 655 292 655 317.5 678.5 c 128,-1,8
 343 702 343 702 345 745 c 1,9,-1
 420 745 l 1,10,11
 420 671 420 671 374 628 c 128,-1,0
 328 585 328 585 250 585 c 128,-1,1
255 530 m 0,12,13
 355 530 355 530 392.5 490 c 128,-1,14
 430 450 430 450 430 340 c 2,15,-1
 430 0 l 1,16,-1
 358 0 l 1,17,-1
 356 75 l 1,18,-1
 354 75 l 1,19,20
 307 -10 307 -10 205 -10 c 0,21,22
 140 -10 140 -10 100 31.5 c 128,-1,23
 60 73 60 73 60 145 c 0,24,25
 60 236 60 236 121.5 285.5 c 128,-1,26
 183 335 183 335 305 335 c 2,27,-1
 353 335 l 1,28,-1
 353 360 l 2,29,30
 353 417 353 417 331 440 c 128,-1,31
 309 463 309 463 255 463 c 0,32,33
 222 463 222 463 171 451 c 128,-1,34
 120 439 120 439 85 423 c 1,35,-1
 85 495 l 1,36,37
 120 510 120 510 170 520 c 128,-1,38
 220 530 220 530 255 530 c 0,12,13
353 275 m 1,39,-1
 305 275 l 2,40,41
 135 275 135 275 135 150 c 0,42,43
 135 105 135 105 158 81 c 128,-1,44
 181 57 181 57 220 57 c 0,45,46
 279 57 279 57 316 105 c 128,-1,47
 353 153 353 153 353 240 c 2,48,-1
 353 275 l 1,39,-1
EndSplineSet
EndChar

StartChar: Aogonek
Encoding: 260 260 198
Width: 500
GlyphClass: 2
Flags: HW
LayerCount: 2
Fore
SplineSet
249 660 m 1,0,-1
 247 660 l 1,1,-1
 164 280 l 1,2,-1
 332 280 l 1,3,-1
 249 660 l 1,0,-1
385 42 m 1,4,-1
 348 210 l 1,5,-1
 148 210 l 1,6,-1
 102 0 l 1,7,-1
 20 0 l 1,8,-1
 200 730 l 1,9,-1
 300 730 l 1,10,-1
 480 0 l 1,11,12
 402 -6 402 -6 358.5 -32.5 c 128,-1,13
 315 -59 315 -59 315 -92 c 0,14,15
 315 -150 315 -150 395 -150 c 0,16,17
 446 -150 446 -150 488 -128 c 1,18,-1
 488 -201 l 1,19,20
 439 -220 439 -220 385 -220 c 0,21,22
 314 -220 314 -220 276 -190 c 128,-1,23
 238 -160 238 -160 238 -105 c 0,24,25
 238 -57 238 -57 275.5 -18 c 128,-1,26
 313 21 313 21 385 42 c 1,4,-1
EndSplineSet
EndChar

StartChar: aogonek
Encoding: 261 261 199
Width: 500
GlyphClass: 2
Flags: HW
LayerCount: 2
Fore
SplineSet
255 530 m 0,0,1
 355 530 355 530 392.5 490 c 128,-1,2
 430 450 430 450 430 340 c 2,3,-1
 430 0 l 1,4,5
 315 -30 315 -30 315 -92 c 0,6,7
 315 -150 315 -150 395 -150 c 0,8,9
 446 -150 446 -150 488 -128 c 1,10,-1
 488 -201 l 1,11,12
 439 -220 439 -220 385 -220 c 0,13,14
 314 -220 314 -220 276 -191 c 128,-1,15
 238 -162 238 -162 238 -110 c 0,16,17
 238 -29 238 -29 357 19 c 1,18,-1
 356 75 l 1,19,-1
 354 75 l 1,20,21
 307 -10 307 -10 205 -10 c 0,22,23
 140 -10 140 -10 100 31.5 c 128,-1,24
 60 73 60 73 60 145 c 0,25,26
 60 236 60 236 121.5 285.5 c 128,-1,27
 183 335 183 335 305 335 c 2,28,-1
 353 335 l 1,29,-1
 353 360 l 2,30,31
 353 417 353 417 331 440 c 128,-1,32
 309 463 309 463 255 463 c 0,33,34
 222 463 222 463 171 451 c 128,-1,35
 120 439 120 439 85 423 c 1,36,-1
 85 495 l 1,37,38
 120 510 120 510 170 520 c 128,-1,39
 220 530 220 530 255 530 c 0,0,1
353 275 m 1,40,-1
 305 275 l 2,41,42
 135 275 135 275 135 150 c 0,43,44
 135 105 135 105 157.5 81 c 128,-1,45
 180 57 180 57 220 57 c 0,46,47
 279 57 279 57 316 105 c 128,-1,48
 353 153 353 153 353 240 c 2,49,-1
 353 275 l 1,40,-1
EndSplineSet
EndChar

StartChar: Cacute
Encoding: 262 262 200
Width: 500
GlyphClass: 2
Flags: HW
LayerCount: 2
Fore
SplineSet
260 960 m 1,0,-1
 380 960 l 1,1,-1
 230 790 l 1,2,-1
 150 790 l 1,3,-1
 260 960 l 1,0,-1
55 365 m 0,4,5
 55 562 55 562 115.5 651 c 128,-1,6
 176 740 176 740 295 740 c 0,7,8
 361 740 361 740 420 710 c 1,9,-1
 420 635 l 1,10,11
 360 668 360 668 300 668 c 0,12,13
 135 668 135 668 135 365 c 0,14,15
 135 201 135 201 177 131.5 c 128,-1,16
 219 62 219 62 300 62 c 0,17,18
 362 62 362 62 425 100 c 1,19,-1
 425 20 l 1,20,21
 366 -10 366 -10 295 -10 c 0,22,23
 173 -10 173 -10 114 76 c 128,-1,24
 55 162 55 162 55 365 c 0,4,5
EndSplineSet
EndChar

StartChar: cacute
Encoding: 263 263 201
Width: 500
GlyphClass: 2
Flags: HW
LayerCount: 2
Fore
SplineSet
260 760 m 1,0,-1
 380 760 l 1,1,-1
 230 590 l 1,2,-1
 150 590 l 1,3,-1
 260 760 l 1,0,-1
80 260 m 0,4,5
 80 394 80 394 135 462 c 128,-1,6
 190 530 190 530 290 530 c 0,7,8
 351 530 351 530 415 505 c 1,9,-1
 415 425 l 1,10,11
 355 458 355 458 295 458 c 0,12,13
 232 458 232 458 197 408 c 128,-1,14
 162 358 162 358 162 260 c 0,15,16
 162 159 162 159 199 109 c 128,-1,17
 236 59 236 59 300 59 c 0,18,19
 359 59 359 59 420 95 c 1,20,-1
 420 15 l 1,21,22
 356 -10 356 -10 295 -10 c 0,23,24
 193 -10 193 -10 136.5 57.5 c 128,-1,25
 80 125 80 125 80 260 c 0,4,5
EndSplineSet
EndChar

StartChar: Ccircumflex
Encoding: 264 264 202
Width: 500
GlyphClass: 2
Flags: HW
LayerCount: 2
Fore
SplineSet
249 920 m 1,0,-1
 168 790 l 1,1,-1
 60 790 l 1,2,-1
 190 960 l 1,3,-1
 310 960 l 1,4,-1
 440 790 l 1,5,-1
 332 790 l 1,6,-1
 251 920 l 1,7,-1
 249 920 l 1,0,-1
55 365 m 0,8,9
 55 562 55 562 115.5 651 c 128,-1,10
 176 740 176 740 295 740 c 0,11,12
 361 740 361 740 420 710 c 1,13,-1
 420 635 l 1,14,15
 360 668 360 668 300 668 c 0,16,17
 135 668 135 668 135 365 c 0,18,19
 135 201 135 201 177 131.5 c 128,-1,20
 219 62 219 62 300 62 c 0,21,22
 362 62 362 62 425 100 c 1,23,-1
 425 20 l 1,24,25
 366 -10 366 -10 295 -10 c 0,26,27
 173 -10 173 -10 114 76 c 128,-1,28
 55 162 55 162 55 365 c 0,8,9
EndSplineSet
EndChar

StartChar: ccircumflex
Encoding: 265 265 203
Width: 500
GlyphClass: 2
Flags: HW
LayerCount: 2
Fore
SplineSet
249 720 m 1,0,-1
 168 590 l 1,1,-1
 60 590 l 1,2,-1
 190 760 l 1,3,-1
 310 760 l 1,4,-1
 440 590 l 1,5,-1
 332 590 l 1,6,-1
 251 720 l 1,7,-1
 249 720 l 1,0,-1
80 260 m 0,8,9
 80 394 80 394 135 462 c 128,-1,10
 190 530 190 530 290 530 c 0,11,12
 351 530 351 530 415 505 c 1,13,-1
 415 425 l 1,14,15
 355 458 355 458 295 458 c 0,16,17
 232 458 232 458 197 408 c 128,-1,18
 162 358 162 358 162 260 c 0,19,20
 162 159 162 159 199 109 c 128,-1,21
 236 59 236 59 300 59 c 0,22,23
 359 59 359 59 420 95 c 1,24,-1
 420 15 l 1,25,26
 356 -10 356 -10 295 -10 c 0,27,28
 193 -10 193 -10 136.5 57.5 c 128,-1,29
 80 125 80 125 80 260 c 0,8,9
EndSplineSet
EndChar

StartChar: Cdotaccent
Encoding: 266 266 204
Width: 500
GlyphClass: 2
Flags: HW
LayerCount: 2
Fore
SplineSet
208 810 m 1,0,-1
 208 940 l 1,1,-1
 292 940 l 1,2,-1
 292 810 l 1,3,-1
 208 810 l 1,0,-1
55 365 m 0,4,5
 55 562 55 562 115.5 651 c 128,-1,6
 176 740 176 740 295 740 c 0,7,8
 361 740 361 740 420 710 c 1,9,-1
 420 635 l 1,10,11
 360 668 360 668 300 668 c 0,12,13
 135 668 135 668 135 365 c 0,14,15
 135 201 135 201 177 131.5 c 128,-1,16
 219 62 219 62 300 62 c 0,17,18
 362 62 362 62 425 100 c 1,19,-1
 425 20 l 1,20,21
 366 -10 366 -10 295 -10 c 0,22,23
 173 -10 173 -10 114 76 c 128,-1,24
 55 162 55 162 55 365 c 0,4,5
EndSplineSet
EndChar

StartChar: cdotaccent
Encoding: 267 267 205
Width: 500
GlyphClass: 2
Flags: HW
LayerCount: 2
Fore
SplineSet
208 610 m 1,0,-1
 208 740 l 1,1,-1
 292 740 l 1,2,-1
 292 610 l 1,3,-1
 208 610 l 1,0,-1
80 260 m 0,4,5
 80 394 80 394 135 462 c 128,-1,6
 190 530 190 530 290 530 c 0,7,8
 351 530 351 530 415 505 c 1,9,-1
 415 425 l 1,10,11
 355 458 355 458 295 458 c 0,12,13
 232 458 232 458 197 408 c 128,-1,14
 162 358 162 358 162 260 c 0,15,16
 162 159 162 159 199 109 c 128,-1,17
 236 59 236 59 300 59 c 0,18,19
 359 59 359 59 420 95 c 1,20,-1
 420 15 l 1,21,22
 356 -10 356 -10 295 -10 c 0,23,24
 193 -10 193 -10 136.5 57.5 c 128,-1,25
 80 125 80 125 80 260 c 0,4,5
EndSplineSet
EndChar

StartChar: Ccaron
Encoding: 268 268 206
Width: 500
GlyphClass: 2
Flags: HW
LayerCount: 2
Fore
SplineSet
249 830 m 1,0,-1
 251 830 l 1,1,-1
 332 960 l 1,2,-1
 440 960 l 1,3,-1
 310 790 l 1,4,-1
 190 790 l 1,5,-1
 60 960 l 1,6,-1
 168 960 l 1,7,-1
 249 830 l 1,0,-1
55 365 m 0,8,9
 55 562 55 562 115.5 651 c 128,-1,10
 176 740 176 740 295 740 c 0,11,12
 361 740 361 740 420 710 c 1,13,-1
 420 635 l 1,14,15
 360 668 360 668 300 668 c 0,16,17
 135 668 135 668 135 365 c 0,18,19
 135 201 135 201 177 131.5 c 128,-1,20
 219 62 219 62 300 62 c 0,21,22
 362 62 362 62 425 100 c 1,23,-1
 425 20 l 1,24,25
 366 -10 366 -10 295 -10 c 0,26,27
 173 -10 173 -10 114 76 c 128,-1,28
 55 162 55 162 55 365 c 0,8,9
EndSplineSet
EndChar

StartChar: ccaron
Encoding: 269 269 207
Width: 500
GlyphClass: 2
Flags: HW
LayerCount: 2
Fore
SplineSet
249 630 m 1,0,-1
 251 630 l 1,1,-1
 332 760 l 1,2,-1
 440 760 l 1,3,-1
 310 590 l 1,4,-1
 190 590 l 1,5,-1
 60 760 l 1,6,-1
 168 760 l 1,7,-1
 249 630 l 1,0,-1
80 260 m 0,8,9
 80 394 80 394 135 462 c 128,-1,10
 190 530 190 530 290 530 c 0,11,12
 351 530 351 530 415 505 c 1,13,-1
 415 425 l 1,14,15
 355 458 355 458 295 458 c 0,16,17
 232 458 232 458 197 408 c 128,-1,18
 162 358 162 358 162 260 c 0,19,20
 162 159 162 159 199 109 c 128,-1,21
 236 59 236 59 300 59 c 0,22,23
 359 59 359 59 420 95 c 1,24,-1
 420 15 l 1,25,26
 356 -10 356 -10 295 -10 c 0,27,28
 193 -10 193 -10 136.5 57.5 c 128,-1,29
 80 125 80 125 80 260 c 0,8,9
EndSplineSet
EndChar

StartChar: Dcaron
Encoding: 270 270 208
Width: 500
GlyphClass: 2
Flags: HW
LayerCount: 2
Fore
SplineSet
249 830 m 1,0,-1
 251 830 l 1,1,-1
 332 960 l 1,2,-1
 440 960 l 1,3,-1
 310 790 l 1,4,-1
 190 790 l 1,5,-1
 60 960 l 1,6,-1
 168 960 l 1,7,-1
 249 830 l 1,0,-1
147 72 m 1,8,-1
 202 72 l 2,9,10
 269 72 269 72 306.5 95 c 128,-1,11
 344 118 344 118 363.5 182.5 c 128,-1,12
 383 247 383 247 383 365 c 128,-1,13
 383 483 383 483 365 546 c 128,-1,14
 347 609 347 609 309.5 633.5 c 128,-1,15
 272 658 272 658 202 658 c 2,16,-1
 147 658 l 1,17,-1
 147 72 l 1,8,-1
147 0 m 1,18,-1
 65 0 l 1,19,-1
 65 730 l 1,20,-1
 202 730 l 2,21,22
 300 730 300 730 355.5 697.5 c 128,-1,23
 411 665 411 665 438 585.5 c 128,-1,24
 465 506 465 506 465 365 c 0,25,26
 465 228 465 228 436 147 c 128,-1,27
 407 66 407 66 350.5 33 c 128,-1,28
 294 0 294 0 202 0 c 2,29,-1
 147 0 l 1,18,-1
EndSplineSet
EndChar

StartChar: dcaron
Encoding: 271 271 209
Width: 500
GlyphClass: 2
Flags: HW
LayerCount: 2
Fore
SplineSet
408 960 m 1,0,-1
 488 960 l 1,1,-1
 455 720 l 1,2,-1
 425 720 l 1,3,-1
 425 0 l 1,4,-1
 351 0 l 1,5,-1
 349 75 l 1,6,-1
 347 75 l 1,7,8
 294 -10 294 -10 210 -10 c 0,9,10
 131 -10 131 -10 83 57.5 c 128,-1,11
 35 125 35 125 35 260 c 0,12,13
 35 530 35 530 210 530 c 0,14,15
 301 530 301 530 344 445 c 1,16,-1
 346 445 l 1,17,-1
 346 750 l 1,18,-1
 394 750 l 1,19,-1
 408 960 l 1,0,-1
114 260 m 0,20,21
 114 162 114 162 145.5 113.5 c 128,-1,22
 177 65 177 65 230 65 c 0,23,24
 281 65 281 65 313.5 114.5 c 128,-1,25
 346 164 346 164 346 255 c 2,26,-1
 346 265 l 2,27,28
 346 356 346 356 313.5 405.5 c 128,-1,29
 281 455 281 455 230 455 c 0,30,31
 114 455 114 455 114 260 c 0,20,21
EndSplineSet
EndChar

StartChar: Dcroat
Encoding: 272 272 210
Width: 500
GlyphClass: 2
Flags: HW
LayerCount: 2
Fore
SplineSet
15 345 m 1,0,-1
 15 412 l 1,1,-1
 90 412 l 1,2,-1
 90 730 l 1,3,-1
 227 730 l 2,4,5
 315 730 315 730 366.5 697.5 c 128,-1,6
 418 665 418 665 444 585 c 128,-1,7
 470 505 470 505 470 365 c 0,8,9
 470 164 470 164 410.5 82 c 128,-1,10
 351 0 351 0 227 0 c 2,11,-1
 172 0 l 1,12,-1
 90 0 l 1,13,-1
 90 345 l 1,14,-1
 15 345 l 1,0,-1
172 345 m 1,15,-1
 172 72 l 1,16,-1
 227 72 l 2,17,18
 284 72 284 72 317.5 95 c 128,-1,19
 351 118 351 118 369.5 183 c 128,-1,20
 388 248 388 248 388 365 c 128,-1,21
 388 482 388 482 371 546 c 128,-1,22
 354 610 354 610 320.5 634 c 128,-1,23
 287 658 287 658 227 658 c 2,24,-1
 172 658 l 1,25,-1
 172 412 l 1,26,-1
 295 412 l 1,27,-1
 295 345 l 1,28,-1
 172 345 l 1,15,-1
EndSplineSet
EndChar

StartChar: dcroat
Encoding: 273 273 211
Width: 500
GlyphClass: 2
Flags: HW
LayerCount: 2
Fore
SplineSet
140 583 m 1,0,-1
 140 650 l 1,1,-1
 341 650 l 1,2,-1
 341 750 l 1,3,-1
 420 750 l 1,4,-1
 420 650 l 1,5,-1
 485 650 l 1,6,-1
 485 583 l 1,7,-1
 420 583 l 1,8,-1
 420 0 l 1,9,-1
 346 0 l 1,10,-1
 344 75 l 1,11,-1
 342 75 l 1,12,13
 289 -10 289 -10 205 -10 c 0,14,15
 126 -10 126 -10 78 57.5 c 128,-1,16
 30 125 30 125 30 260 c 0,17,18
 30 530 30 530 205 530 c 0,19,20
 296 530 296 530 339 445 c 1,21,-1
 341 445 l 1,22,-1
 341 583 l 1,23,-1
 140 583 l 1,0,-1
109 260 m 0,24,25
 109 162 109 162 140.5 113.5 c 128,-1,26
 172 65 172 65 225 65 c 0,27,28
 276 65 276 65 308.5 114.5 c 128,-1,29
 341 164 341 164 341 255 c 2,30,-1
 341 265 l 2,31,32
 341 356 341 356 308.5 405.5 c 128,-1,33
 276 455 276 455 225 455 c 0,34,35
 109 455 109 455 109 260 c 0,24,25
EndSplineSet
EndChar

StartChar: Emacron
Encoding: 274 274 212
Width: 500
GlyphClass: 2
Flags: HW
LayerCount: 2
Fore
SplineSet
162 658 m 1,0,-1
 162 430 l 1,1,-1
 410 430 l 1,2,-1
 410 360 l 1,3,-1
 162 360 l 1,4,-1
 162 72 l 1,5,-1
 420 72 l 1,6,-1
 420 0 l 1,7,-1
 80 0 l 1,8,-1
 80 730 l 1,9,-1
 420 730 l 1,10,-1
 420 658 l 1,11,-1
 162 658 l 1,0,-1
100 850 m 1,12,-1
 100 910 l 1,13,-1
 400 910 l 1,14,-1
 400 850 l 1,15,-1
 100 850 l 1,12,-1
EndSplineSet
EndChar

StartChar: emacron
Encoding: 275 275 213
Width: 500
GlyphClass: 2
Flags: HW
LayerCount: 2
Fore
SplineSet
100 640 m 1,0,-1
 100 700 l 1,1,-1
 400 700 l 1,2,-1
 400 640 l 1,3,-1
 100 640 l 1,0,-1
138 234 m 1,4,5
 142 141 142 141 176 100 c 128,-1,6
 210 59 210 59 275 59 c 0,7,8
 336 59 336 59 410 95 c 1,9,-1
 410 15 l 1,10,11
 336 -10 336 -10 270 -10 c 0,12,13
 55 -10 55 -10 55 260 c 0,14,15
 55 401 55 401 105 465.5 c 128,-1,16
 155 530 155 530 255 530 c 0,17,18
 346 530 346 530 390.5 468 c 128,-1,19
 435 406 435 406 435 265 c 0,20,21
 435 254 435 254 433 234 c 1,22,-1
 138 234 l 1,4,5
138 300 m 1,23,-1
 356 300 l 1,24,25
 355 461 355 461 255 461 c 0,26,27
 198 461 198 461 170 425 c 128,-1,28
 142 389 142 389 138 300 c 1,23,-1
EndSplineSet
EndChar

StartChar: Ebreve
Encoding: 276 276 214
Width: 500
GlyphClass: 2
Flags: HW
LayerCount: 2
Fore
SplineSet
162 658 m 1,0,-1
 162 430 l 1,1,-1
 410 430 l 1,2,-1
 410 360 l 1,3,-1
 162 360 l 1,4,-1
 162 72 l 1,5,-1
 420 72 l 1,6,-1
 420 0 l 1,7,-1
 80 0 l 1,8,-1
 80 730 l 1,9,-1
 420 730 l 1,10,-1
 420 658 l 1,11,-1
 162 658 l 1,0,-1
250 785 m 128,-1,13
 172 785 172 785 126 828 c 128,-1,14
 80 871 80 871 80 945 c 1,15,-1
 155 945 l 1,16,17
 157 902 157 902 182.5 878.5 c 128,-1,18
 208 855 208 855 250 855 c 128,-1,19
 292 855 292 855 317.5 878.5 c 128,-1,20
 343 902 343 902 345 945 c 1,21,-1
 420 945 l 1,22,23
 420 871 420 871 374 828 c 128,-1,12
 328 785 328 785 250 785 c 128,-1,13
EndSplineSet
EndChar

StartChar: ebreve
Encoding: 277 277 215
Width: 500
GlyphClass: 2
Flags: HW
LayerCount: 2
Fore
SplineSet
250 585 m 128,-1,1
 172 585 172 585 126 628 c 128,-1,2
 80 671 80 671 80 745 c 1,3,-1
 155 745 l 1,4,5
 157 702 157 702 182.5 678.5 c 128,-1,6
 208 655 208 655 250 655 c 128,-1,7
 292 655 292 655 317.5 678.5 c 128,-1,8
 343 702 343 702 345 745 c 1,9,-1
 420 745 l 1,10,11
 420 671 420 671 374 628 c 128,-1,0
 328 585 328 585 250 585 c 128,-1,1
138 234 m 1,12,13
 142 141 142 141 176 100 c 128,-1,14
 210 59 210 59 275 59 c 0,15,16
 336 59 336 59 410 95 c 1,17,-1
 410 15 l 1,18,19
 336 -10 336 -10 270 -10 c 0,20,21
 55 -10 55 -10 55 260 c 0,22,23
 55 401 55 401 105 465.5 c 128,-1,24
 155 530 155 530 255 530 c 0,25,26
 346 530 346 530 390.5 468 c 128,-1,27
 435 406 435 406 435 265 c 0,28,29
 435 254 435 254 433 234 c 1,30,-1
 138 234 l 1,12,13
138 300 m 1,31,-1
 356 300 l 1,32,33
 355 461 355 461 255 461 c 0,34,35
 198 461 198 461 170 425 c 128,-1,36
 142 389 142 389 138 300 c 1,31,-1
EndSplineSet
EndChar

StartChar: Edotaccent
Encoding: 278 278 216
Width: 500
GlyphClass: 2
Flags: HW
LayerCount: 2
Fore
SplineSet
162 658 m 1,0,-1
 162 430 l 1,1,-1
 410 430 l 1,2,-1
 410 360 l 1,3,-1
 162 360 l 1,4,-1
 162 72 l 1,5,-1
 420 72 l 1,6,-1
 420 0 l 1,7,-1
 80 0 l 1,8,-1
 80 730 l 1,9,-1
 420 730 l 1,10,-1
 420 658 l 1,11,-1
 162 658 l 1,0,-1
208 810 m 1,12,-1
 208 940 l 1,13,-1
 292 940 l 1,14,-1
 292 810 l 1,15,-1
 208 810 l 1,12,-1
EndSplineSet
EndChar

StartChar: edotaccent
Encoding: 279 279 217
Width: 500
GlyphClass: 2
Flags: HW
LayerCount: 2
Fore
SplineSet
208 610 m 1,0,-1
 208 740 l 1,1,-1
 292 740 l 1,2,-1
 292 610 l 1,3,-1
 208 610 l 1,0,-1
138 234 m 1,4,5
 142 141 142 141 176 100 c 128,-1,6
 210 59 210 59 275 59 c 0,7,8
 336 59 336 59 410 95 c 1,9,-1
 410 15 l 1,10,11
 336 -10 336 -10 270 -10 c 0,12,13
 55 -10 55 -10 55 260 c 0,14,15
 55 401 55 401 105 465.5 c 128,-1,16
 155 530 155 530 255 530 c 0,17,18
 346 530 346 530 390.5 468 c 128,-1,19
 435 406 435 406 435 265 c 0,20,21
 435 254 435 254 433 234 c 1,22,-1
 138 234 l 1,4,5
138 300 m 1,23,-1
 356 300 l 1,24,25
 355 461 355 461 255 461 c 0,26,27
 198 461 198 461 170 425 c 128,-1,28
 142 389 142 389 138 300 c 1,23,-1
EndSplineSet
EndChar

StartChar: Eogonek
Encoding: 280 280 218
Width: 500
GlyphClass: 2
Flags: HW
LayerCount: 2
Fore
SplineSet
162 658 m 1,0,-1
 162 430 l 1,1,-1
 410 430 l 1,2,-1
 410 360 l 1,3,-1
 162 360 l 1,4,-1
 162 72 l 1,5,-1
 420 72 l 1,6,-1
 420 0 l 1,7,-1
 240 0 l 1,8,9
 210 -35 210 -35 210 -80 c 0,10,11
 210 -112 210 -112 231.5 -131 c 128,-1,12
 253 -150 253 -150 290 -150 c 0,13,14
 340 -150 340 -150 382 -128 c 1,15,-1
 382 -201 l 1,16,17
 333 -220 333 -220 280 -220 c 0,18,19
 204 -220 204 -220 168 -185.5 c 128,-1,20
 132 -151 132 -151 132 -100 c 0,21,22
 132 -47 132 -47 164 0 c 1,23,-1
 80 0 l 1,24,-1
 80 730 l 1,25,-1
 420 730 l 1,26,-1
 420 658 l 1,27,-1
 162 658 l 1,0,-1
EndSplineSet
EndChar

StartChar: eogonek
Encoding: 281 281 219
Width: 500
GlyphClass: 2
Flags: HW
LayerCount: 2
Fore
SplineSet
234 -8 m 1,0,1
 210 -42 210 -42 210 -80 c 0,2,3
 210 -112 210 -112 231.5 -131 c 128,-1,4
 253 -150 253 -150 290 -150 c 0,5,6
 340 -150 340 -150 382 -128 c 1,7,-1
 382 -201 l 1,8,9
 333 -220 333 -220 280 -220 c 0,10,11
 204 -220 204 -220 168 -185.5 c 128,-1,12
 132 -151 132 -151 132 -100 c 0,13,14
 132 -40 132 -40 171 9 c 1,15,16
 55 62 55 62 55 260 c 0,17,18
 55 401 55 401 105 465.5 c 128,-1,19
 155 530 155 530 255 530 c 0,20,21
 346 530 346 530 390.5 468 c 128,-1,22
 435 406 435 406 435 265 c 0,23,24
 435 254 435 254 433 234 c 1,25,-1
 138 234 l 1,26,27
 142 141 142 141 176 100 c 128,-1,28
 210 59 210 59 275 59 c 0,29,30
 336 59 336 59 410 95 c 1,31,-1
 410 15 l 1,32,33
 336 -10 336 -10 270 -10 c 0,34,35
 256 -10 256 -10 234 -8 c 1,0,1
138 300 m 1,36,-1
 356 300 l 1,37,38
 355 461 355 461 255 461 c 0,39,40
 198 461 198 461 170 425 c 128,-1,41
 142 389 142 389 138 300 c 1,36,-1
EndSplineSet
EndChar

StartChar: Ecaron
Encoding: 282 282 220
Width: 500
GlyphClass: 2
Flags: HW
LayerCount: 2
Fore
SplineSet
162 658 m 1,0,-1
 162 430 l 1,1,-1
 410 430 l 1,2,-1
 410 360 l 1,3,-1
 162 360 l 1,4,-1
 162 72 l 1,5,-1
 420 72 l 1,6,-1
 420 0 l 1,7,-1
 80 0 l 1,8,-1
 80 730 l 1,9,-1
 420 730 l 1,10,-1
 420 658 l 1,11,-1
 162 658 l 1,0,-1
249 830 m 1,12,-1
 251 830 l 1,13,-1
 332 960 l 1,14,-1
 440 960 l 1,15,-1
 310 790 l 1,16,-1
 190 790 l 1,17,-1
 60 960 l 1,18,-1
 168 960 l 1,19,-1
 249 830 l 1,12,-1
EndSplineSet
EndChar

StartChar: ecaron
Encoding: 283 283 221
Width: 500
GlyphClass: 2
Flags: HW
LayerCount: 2
Fore
SplineSet
249 630 m 1,0,-1
 251 630 l 1,1,-1
 332 760 l 1,2,-1
 440 760 l 1,3,-1
 310 590 l 1,4,-1
 190 590 l 1,5,-1
 60 760 l 1,6,-1
 168 760 l 1,7,-1
 249 630 l 1,0,-1
138 234 m 1,8,9
 142 141 142 141 176 100 c 128,-1,10
 210 59 210 59 275 59 c 0,11,12
 336 59 336 59 410 95 c 1,13,-1
 410 15 l 1,14,15
 336 -10 336 -10 270 -10 c 0,16,17
 55 -10 55 -10 55 260 c 0,18,19
 55 401 55 401 105 465.5 c 128,-1,20
 155 530 155 530 255 530 c 0,21,22
 346 530 346 530 390.5 468 c 128,-1,23
 435 406 435 406 435 265 c 0,24,25
 435 254 435 254 433 234 c 1,26,-1
 138 234 l 1,8,9
138 300 m 1,27,-1
 356 300 l 1,28,29
 355 461 355 461 255 461 c 0,30,31
 198 461 198 461 170 425 c 128,-1,32
 142 389 142 389 138 300 c 1,27,-1
EndSplineSet
EndChar

StartChar: Gcircumflex
Encoding: 284 284 222
Width: 500
GlyphClass: 2
Flags: HW
LayerCount: 2
Fore
SplineSet
370 85 m 1,0,-1
 370 360 l 1,1,-1
 215 360 l 1,2,-1
 215 430 l 1,3,-1
 450 430 l 1,4,-1
 450 30 l 1,5,6
 370 -10 370 -10 280 -10 c 0,7,8
 162 -10 162 -10 101 79 c 128,-1,9
 40 168 40 168 40 365 c 0,10,11
 40 561 40 561 103.5 650.5 c 128,-1,12
 167 740 167 740 295 740 c 0,13,14
 354 740 354 740 425 715 c 1,15,-1
 425 638 l 1,16,17
 359 668 359 668 295 668 c 0,18,19
 208 668 208 668 163 596 c 128,-1,20
 118 524 118 524 118 365 c 0,21,22
 118 62 118 62 285 62 c 0,23,24
 330 62 330 62 370 85 c 1,0,-1
249 920 m 1,25,-1
 168 790 l 1,26,-1
 60 790 l 1,27,-1
 190 960 l 1,28,-1
 310 960 l 1,29,-1
 440 790 l 1,30,-1
 332 790 l 1,31,-1
 251 920 l 1,32,-1
 249 920 l 1,25,-1
EndSplineSet
EndChar

StartChar: gcircumflex
Encoding: 285 285 223
Width: 500
GlyphClass: 2
Flags: HW
LayerCount: 2
Fore
SplineSet
249 720 m 1,0,-1
 168 590 l 1,1,-1
 60 590 l 1,2,-1
 190 760 l 1,3,-1
 310 760 l 1,4,-1
 440 590 l 1,5,-1
 332 590 l 1,6,-1
 251 720 l 1,7,-1
 249 720 l 1,0,-1
235 -163 m 0,8,9
 301 -163 301 -163 338.5 -141 c 128,-1,10
 376 -119 376 -119 376 -85 c 0,11,12
 376 -50 376 -50 344 -31 c 128,-1,13
 312 -12 312 -12 230 -4 c 0,14,15
 85 9 85 9 85 95 c 0,16,17
 85 137 85 137 127 189 c 1,18,19
 60 239 60 239 60 340 c 0,20,21
 60 429 60 429 106 479.5 c 128,-1,22
 152 530 152 530 230 530 c 0,23,24
 320 530 320 530 367 455 c 1,25,-1
 369 455 l 1,26,-1
 371 520 l 1,27,-1
 445 520 l 1,28,-1
 445 338 l 2,29,30
 445 249 445 249 395 200.5 c 128,-1,31
 345 152 345 152 255 152 c 0,32,33
 228 152 228 152 197 159 c 1,34,35
 167 131 167 131 167 110 c 0,36,37
 167 88 167 88 187.5 76 c 128,-1,38
 208 64 208 64 260 60 c 0,39,40
 367 51 367 51 411 17 c 128,-1,41
 455 -17 455 -17 455 -85 c 0,42,43
 455 -154 455 -154 399 -192 c 128,-1,44
 343 -230 343 -230 235 -230 c 0,45,46
 140 -230 140 -230 55 -190 c 1,47,-1
 55 -113 l 1,48,49
 149 -163 149 -163 235 -163 c 0,8,9
139 340 m 0,50,51
 139 278 139 278 169 246.5 c 128,-1,52
 199 215 199 215 255 215 c 0,53,54
 307 215 307 215 336.5 246.5 c 128,-1,55
 366 278 366 278 366 338 c 0,56,57
 366 395 366 395 334.5 429 c 128,-1,58
 303 463 303 463 255 463 c 0,59,60
 200 463 200 463 169.5 431.5 c 128,-1,61
 139 400 139 400 139 340 c 0,50,51
EndSplineSet
EndChar

StartChar: Gbreve
Encoding: 286 286 224
Width: 500
GlyphClass: 2
Flags: HW
LayerCount: 2
Fore
SplineSet
250 785 m 128,-1,1
 172 785 172 785 126 828 c 128,-1,2
 80 871 80 871 80 945 c 1,3,-1
 155 945 l 1,4,5
 157 902 157 902 182.5 878.5 c 128,-1,6
 208 855 208 855 250 855 c 128,-1,7
 292 855 292 855 317.5 878.5 c 128,-1,8
 343 902 343 902 345 945 c 1,9,-1
 420 945 l 1,10,11
 420 871 420 871 374 828 c 128,-1,0
 328 785 328 785 250 785 c 128,-1,1
370 85 m 1,12,-1
 370 360 l 1,13,-1
 215 360 l 1,14,-1
 215 430 l 1,15,-1
 450 430 l 1,16,-1
 450 30 l 1,17,18
 370 -10 370 -10 280 -10 c 0,19,20
 162 -10 162 -10 101 79 c 128,-1,21
 40 168 40 168 40 365 c 0,22,23
 40 561 40 561 103.5 650.5 c 128,-1,24
 167 740 167 740 295 740 c 0,25,26
 354 740 354 740 425 715 c 1,27,-1
 425 638 l 1,28,29
 359 668 359 668 295 668 c 0,30,31
 208 668 208 668 163 596 c 128,-1,32
 118 524 118 524 118 365 c 0,33,34
 118 62 118 62 285 62 c 0,35,36
 330 62 330 62 370 85 c 1,12,-1
EndSplineSet
EndChar

StartChar: gbreve
Encoding: 287 287 225
Width: 500
GlyphClass: 2
Flags: HW
LayerCount: 2
Fore
SplineSet
250 585 m 128,-1,1
 172 585 172 585 126 628 c 128,-1,2
 80 671 80 671 80 745 c 1,3,-1
 155 745 l 1,4,5
 157 702 157 702 182.5 678.5 c 128,-1,6
 208 655 208 655 250 655 c 128,-1,7
 292 655 292 655 317.5 678.5 c 128,-1,8
 343 702 343 702 345 745 c 1,9,-1
 420 745 l 1,10,11
 420 671 420 671 374 628 c 128,-1,0
 328 585 328 585 250 585 c 128,-1,1
235 -163 m 0,12,13
 301 -163 301 -163 338.5 -141 c 128,-1,14
 376 -119 376 -119 376 -85 c 0,15,16
 376 -50 376 -50 344 -31 c 128,-1,17
 312 -12 312 -12 230 -4 c 0,18,19
 85 9 85 9 85 95 c 0,20,21
 85 137 85 137 127 189 c 1,22,23
 60 239 60 239 60 340 c 0,24,25
 60 429 60 429 106 479.5 c 128,-1,26
 152 530 152 530 230 530 c 0,27,28
 320 530 320 530 367 455 c 1,29,-1
 369 455 l 1,30,-1
 371 520 l 1,31,-1
 445 520 l 1,32,-1
 445 338 l 2,33,34
 445 249 445 249 395 200.5 c 128,-1,35
 345 152 345 152 255 152 c 0,36,37
 228 152 228 152 197 159 c 1,38,39
 167 131 167 131 167 110 c 0,40,41
 167 88 167 88 187.5 76 c 128,-1,42
 208 64 208 64 260 60 c 0,43,44
 367 51 367 51 411 17 c 128,-1,45
 455 -17 455 -17 455 -85 c 0,46,47
 455 -154 455 -154 399 -192 c 128,-1,48
 343 -230 343 -230 235 -230 c 0,49,50
 140 -230 140 -230 55 -190 c 1,51,-1
 55 -113 l 1,52,53
 149 -163 149 -163 235 -163 c 0,12,13
139 340 m 0,54,55
 139 278 139 278 169 246.5 c 128,-1,56
 199 215 199 215 255 215 c 0,57,58
 307 215 307 215 336.5 246.5 c 128,-1,59
 366 278 366 278 366 338 c 0,60,61
 366 395 366 395 334.5 429 c 128,-1,62
 303 463 303 463 255 463 c 0,63,64
 200 463 200 463 169.5 431.5 c 128,-1,65
 139 400 139 400 139 340 c 0,54,55
EndSplineSet
EndChar

StartChar: Gdotaccent
Encoding: 288 288 226
Width: 500
GlyphClass: 2
Flags: HW
LayerCount: 2
Fore
SplineSet
208 810 m 1,0,-1
 208 940 l 1,1,-1
 292 940 l 1,2,-1
 292 810 l 1,3,-1
 208 810 l 1,0,-1
370 85 m 1,4,-1
 370 360 l 1,5,-1
 215 360 l 1,6,-1
 215 430 l 1,7,-1
 450 430 l 1,8,-1
 450 30 l 1,9,10
 370 -10 370 -10 280 -10 c 0,11,12
 162 -10 162 -10 101 79 c 128,-1,13
 40 168 40 168 40 365 c 0,14,15
 40 561 40 561 103.5 650.5 c 128,-1,16
 167 740 167 740 295 740 c 0,17,18
 354 740 354 740 425 715 c 1,19,-1
 425 638 l 1,20,21
 359 668 359 668 295 668 c 0,22,23
 208 668 208 668 163 596 c 128,-1,24
 118 524 118 524 118 365 c 0,25,26
 118 62 118 62 285 62 c 0,27,28
 330 62 330 62 370 85 c 1,4,-1
EndSplineSet
EndChar

StartChar: gdotaccent
Encoding: 289 289 227
Width: 500
GlyphClass: 2
Flags: HW
LayerCount: 2
Fore
SplineSet
208 610 m 1,0,-1
 208 740 l 1,1,-1
 292 740 l 1,2,-1
 292 610 l 1,3,-1
 208 610 l 1,0,-1
235 -163 m 0,4,5
 301 -163 301 -163 338.5 -141 c 128,-1,6
 376 -119 376 -119 376 -85 c 0,7,8
 376 -50 376 -50 344 -31 c 128,-1,9
 312 -12 312 -12 230 -4 c 0,10,11
 85 9 85 9 85 95 c 0,12,13
 85 137 85 137 127 189 c 1,14,15
 60 239 60 239 60 340 c 0,16,17
 60 429 60 429 106 479.5 c 128,-1,18
 152 530 152 530 230 530 c 0,19,20
 320 530 320 530 367 455 c 1,21,-1
 369 455 l 1,22,-1
 371 520 l 1,23,-1
 445 520 l 1,24,-1
 445 338 l 2,25,26
 445 249 445 249 395 200.5 c 128,-1,27
 345 152 345 152 255 152 c 0,28,29
 228 152 228 152 197 159 c 1,30,31
 167 131 167 131 167 110 c 0,32,33
 167 88 167 88 187.5 76 c 128,-1,34
 208 64 208 64 260 60 c 0,35,36
 367 51 367 51 411 17 c 128,-1,37
 455 -17 455 -17 455 -85 c 0,38,39
 455 -154 455 -154 399 -192 c 128,-1,40
 343 -230 343 -230 235 -230 c 0,41,42
 140 -230 140 -230 55 -190 c 1,43,-1
 55 -113 l 1,44,45
 149 -163 149 -163 235 -163 c 0,4,5
139 340 m 0,46,47
 139 278 139 278 169 246.5 c 128,-1,48
 199 215 199 215 255 215 c 0,49,50
 307 215 307 215 336.5 246.5 c 128,-1,51
 366 278 366 278 366 338 c 0,52,53
 366 395 366 395 334.5 429 c 128,-1,54
 303 463 303 463 255 463 c 0,55,56
 200 463 200 463 169.5 431.5 c 128,-1,57
 139 400 139 400 139 340 c 0,46,47
EndSplineSet
EndChar

StartChar: Gcommaaccent
Encoding: 290 290 228
Width: 500
GlyphClass: 2
Flags: HW
LayerCount: 2
Fore
SplineSet
170 -270 m 1,0,-1
 225 -60 l 1,1,-1
 340 -60 l 1,2,-1
 250 -270 l 1,3,-1
 170 -270 l 1,0,-1
370 85 m 1,4,-1
 370 360 l 1,5,-1
 215 360 l 1,6,-1
 215 430 l 1,7,-1
 450 430 l 1,8,-1
 450 30 l 1,9,10
 370 -10 370 -10 280 -10 c 0,11,12
 162 -10 162 -10 101 79 c 128,-1,13
 40 168 40 168 40 365 c 0,14,15
 40 561 40 561 103.5 650.5 c 128,-1,16
 167 740 167 740 295 740 c 0,17,18
 354 740 354 740 425 715 c 1,19,-1
 425 638 l 1,20,21
 359 668 359 668 295 668 c 0,22,23
 208 668 208 668 163 596 c 128,-1,24
 118 524 118 524 118 365 c 0,25,26
 118 62 118 62 285 62 c 0,27,28
 330 62 330 62 370 85 c 1,4,-1
EndSplineSet
EndChar

StartChar: gcommaaccent
Encoding: 291 291 229
Width: 500
GlyphClass: 2
Flags: HW
LayerCount: 2
Fore
SplineSet
330 790 m 1,0,-1
 275 580 l 1,1,-1
 160 580 l 1,2,-1
 250 790 l 1,3,-1
 330 790 l 1,0,-1
235 -163 m 0,4,5
 301 -163 301 -163 338.5 -141 c 128,-1,6
 376 -119 376 -119 376 -85 c 0,7,8
 376 -50 376 -50 344 -31 c 128,-1,9
 312 -12 312 -12 230 -4 c 0,10,11
 85 9 85 9 85 95 c 0,12,13
 85 137 85 137 127 189 c 1,14,15
 60 239 60 239 60 340 c 0,16,17
 60 429 60 429 106 479.5 c 128,-1,18
 152 530 152 530 230 530 c 0,19,20
 320 530 320 530 367 455 c 1,21,-1
 369 455 l 1,22,-1
 371 520 l 1,23,-1
 445 520 l 1,24,-1
 445 338 l 2,25,26
 445 249 445 249 395 200.5 c 128,-1,27
 345 152 345 152 255 152 c 0,28,29
 228 152 228 152 197 159 c 1,30,31
 167 131 167 131 167 110 c 0,32,33
 167 88 167 88 187.5 76 c 128,-1,34
 208 64 208 64 260 60 c 0,35,36
 367 51 367 51 411 17 c 128,-1,37
 455 -17 455 -17 455 -85 c 0,38,39
 455 -154 455 -154 399 -192 c 128,-1,40
 343 -230 343 -230 235 -230 c 0,41,42
 140 -230 140 -230 55 -190 c 1,43,-1
 55 -113 l 1,44,45
 149 -163 149 -163 235 -163 c 0,4,5
139 340 m 0,46,47
 139 278 139 278 169 246.5 c 128,-1,48
 199 215 199 215 255 215 c 0,49,50
 307 215 307 215 336.5 246.5 c 128,-1,51
 366 278 366 278 366 338 c 0,52,53
 366 395 366 395 334.5 429 c 128,-1,54
 303 463 303 463 255 463 c 0,55,56
 200 463 200 463 169.5 431.5 c 128,-1,57
 139 400 139 400 139 340 c 0,46,47
EndSplineSet
EndChar

StartChar: Hcircumflex
Encoding: 292 292 230
Width: 500
GlyphClass: 2
Flags: HW
LayerCount: 2
Fore
SplineSet
249 920 m 1,0,-1
 168 790 l 1,1,-1
 60 790 l 1,2,-1
 190 960 l 1,3,-1
 310 960 l 1,4,-1
 440 790 l 1,5,-1
 332 790 l 1,6,-1
 251 920 l 1,7,-1
 249 920 l 1,0,-1
140 730 m 1,8,-1
 140 432 l 1,9,-1
 356 432 l 1,10,-1
 356 730 l 1,11,-1
 440 730 l 1,12,-1
 440 0 l 1,13,-1
 356 0 l 1,14,-1
 356 360 l 1,15,-1
 140 360 l 1,16,-1
 140 0 l 1,17,-1
 60 0 l 1,18,-1
 60 730 l 1,19,-1
 140 730 l 1,8,-1
EndSplineSet
EndChar

StartChar: hcircumflex
Encoding: 293 293 231
Width: 500
GlyphClass: 2
Flags: HW
LayerCount: 2
Fore
SplineSet
249 920 m 1,0,-1
 168 790 l 1,1,-1
 60 790 l 1,2,-1
 190 960 l 1,3,-1
 310 960 l 1,4,-1
 440 790 l 1,5,-1
 332 790 l 1,6,-1
 251 920 l 1,7,-1
 249 920 l 1,0,-1
440 330 m 2,8,-1
 440 0 l 1,9,-1
 363 0 l 1,10,-1
 363 312 l 2,11,12
 363 400 363 400 343 429.5 c 128,-1,13
 323 459 323 459 270 459 c 0,14,15
 220 459 220 459 184.5 403 c 128,-1,16
 149 347 149 347 149 252 c 2,17,-1
 149 0 l 1,18,-1
 70 0 l 1,19,-1
 70 750 l 1,20,-1
 149 750 l 1,21,-1
 149 445 l 1,22,-1
 151 445 l 1,23,24
 170 484 170 484 207.5 507 c 128,-1,25
 245 530 245 530 290 530 c 0,26,27
 369 530 369 530 404.5 484.5 c 128,-1,28
 440 439 440 439 440 330 c 2,8,-1
EndSplineSet
EndChar

StartChar: Hbar
Encoding: 294 294 232
Width: 500
GlyphClass: 2
Flags: HW
LayerCount: 2
Fore
SplineSet
10 547 m 1,0,-1
 10 613 l 1,1,-1
 60 613 l 1,2,-1
 60 730 l 1,3,-1
 140 730 l 1,4,-1
 140 613 l 1,5,-1
 356 613 l 1,6,-1
 356 730 l 1,7,-1
 440 730 l 1,8,-1
 440 613 l 1,9,-1
 490 613 l 1,10,-1
 490 547 l 1,11,-1
 440 547 l 1,12,-1
 440 0 l 1,13,-1
 356 0 l 1,14,-1
 356 360 l 1,15,-1
 140 360 l 1,16,-1
 140 0 l 1,17,-1
 60 0 l 1,18,-1
 60 547 l 1,19,-1
 10 547 l 1,0,-1
356 547 m 1,20,-1
 140 547 l 1,21,-1
 140 432 l 1,22,-1
 356 432 l 1,23,-1
 356 547 l 1,20,-1
EndSplineSet
EndChar

StartChar: hbar
Encoding: 295 295 233
Width: 500
GlyphClass: 2
Flags: HW
LayerCount: 2
Fore
SplineSet
15 583 m 1,0,-1
 15 650 l 1,1,-1
 70 650 l 1,2,-1
 70 750 l 1,3,-1
 149 750 l 1,4,-1
 149 650 l 1,5,-1
 360 650 l 1,6,-1
 360 583 l 1,7,-1
 149 583 l 1,8,-1
 149 445 l 1,9,-1
 151 445 l 1,10,11
 170 484 170 484 207.5 507 c 128,-1,12
 245 530 245 530 290 530 c 0,13,14
 369 530 369 530 404.5 484.5 c 128,-1,15
 440 439 440 439 440 330 c 2,16,-1
 440 0 l 1,17,-1
 363 0 l 1,18,-1
 363 312 l 2,19,20
 363 400 363 400 343 429.5 c 128,-1,21
 323 459 323 459 270 459 c 0,22,23
 220 459 220 459 184.5 403 c 128,-1,24
 149 347 149 347 149 252 c 2,25,-1
 149 0 l 1,26,-1
 70 0 l 1,27,-1
 70 583 l 1,28,-1
 15 583 l 1,0,-1
EndSplineSet
EndChar

StartChar: Itilde
Encoding: 296 296 234
Width: 500
GlyphClass: 2
Flags: HW
LayerCount: 2
Fore
SplineSet
85 795 m 1,0,1
 85 882 85 882 101 916 c 128,-1,2
 117 950 117 950 152 950 c 0,3,4
 189 950 189 950 258 898 c 0,5,6
 308 860 308 860 325 860 c 0,7,8
 333 860 333 860 336.5 865 c 128,-1,9
 340 870 340 870 342.5 887.5 c 128,-1,10
 345 905 345 905 345 940 c 1,11,-1
 415 940 l 1,12,13
 415 853 415 853 399 819 c 128,-1,14
 383 785 383 785 348 785 c 0,15,16
 312 785 312 785 242 838 c 0,17,18
 194 875 194 875 175 875 c 0,19,20
 167 875 167 875 163.5 870 c 128,-1,21
 160 865 160 865 157.5 847.5 c 128,-1,22
 155 830 155 830 155 795 c 1,23,-1
 85 795 l 1,0,1
410 0 m 1,24,-1
 90 0 l 1,25,-1
 90 70 l 1,26,-1
 208 70 l 1,27,-1
 208 660 l 1,28,-1
 90 660 l 1,29,-1
 90 730 l 1,30,-1
 410 730 l 1,31,-1
 410 660 l 1,32,-1
 292 660 l 1,33,-1
 292 70 l 1,34,-1
 410 70 l 1,35,-1
 410 0 l 1,24,-1
EndSplineSet
EndChar

StartChar: itilde
Encoding: 297 297 235
Width: 500
GlyphClass: 2
Flags: HW
LayerCount: 2
Fore
SplineSet
85 585 m 1,0,1
 85 672 85 672 101 706 c 128,-1,2
 117 740 117 740 152 740 c 0,3,4
 189 740 189 740 258 688 c 0,5,6
 308 650 308 650 325 650 c 0,7,8
 333 650 333 650 336.5 655 c 128,-1,9
 340 660 340 660 342.5 677.5 c 128,-1,10
 345 695 345 695 345 730 c 1,11,-1
 415 730 l 1,12,13
 415 643 415 643 399 609 c 128,-1,14
 383 575 383 575 348 575 c 0,15,16
 312 575 312 575 242 628 c 0,17,18
 194 665 194 665 175 665 c 0,19,20
 167 665 167 665 163.5 660 c 128,-1,21
 160 655 160 655 157.5 637.5 c 128,-1,22
 155 620 155 620 155 585 c 1,23,-1
 85 585 l 1,0,1
316 520 m 1,24,-1
 316 68 l 1,25,-1
 425 68 l 1,26,-1
 425 0 l 1,27,-1
 95 0 l 1,28,-1
 95 68 l 1,29,-1
 234 68 l 1,30,-1
 234 452 l 1,31,-1
 125 452 l 1,32,-1
 125 520 l 1,33,-1
 316 520 l 1,24,-1
EndSplineSet
EndChar

StartChar: Imacron
Encoding: 298 298 236
Width: 500
GlyphClass: 2
Flags: HW
LayerCount: 2
Fore
SplineSet
100 850 m 1,0,-1
 100 910 l 1,1,-1
 400 910 l 1,2,-1
 400 850 l 1,3,-1
 100 850 l 1,0,-1
410 0 m 1,4,-1
 90 0 l 1,5,-1
 90 70 l 1,6,-1
 208 70 l 1,7,-1
 208 660 l 1,8,-1
 90 660 l 1,9,-1
 90 730 l 1,10,-1
 410 730 l 1,11,-1
 410 660 l 1,12,-1
 292 660 l 1,13,-1
 292 70 l 1,14,-1
 410 70 l 1,15,-1
 410 0 l 1,4,-1
EndSplineSet
EndChar

StartChar: imacron
Encoding: 299 299 237
Width: 500
GlyphClass: 2
Flags: HW
LayerCount: 2
Fore
SplineSet
100 640 m 1,0,-1
 100 700 l 1,1,-1
 400 700 l 1,2,-1
 400 640 l 1,3,-1
 100 640 l 1,0,-1
316 520 m 1,4,-1
 316 68 l 1,5,-1
 425 68 l 1,6,-1
 425 0 l 1,7,-1
 95 0 l 1,8,-1
 95 68 l 1,9,-1
 234 68 l 1,10,-1
 234 452 l 1,11,-1
 125 452 l 1,12,-1
 125 520 l 1,13,-1
 316 520 l 1,4,-1
EndSplineSet
EndChar

StartChar: Ibreve
Encoding: 300 300 238
Width: 500
GlyphClass: 2
Flags: HW
LayerCount: 2
Fore
SplineSet
250 785 m 128,-1,1
 172 785 172 785 126 828 c 128,-1,2
 80 871 80 871 80 945 c 1,3,-1
 155 945 l 1,4,5
 157 902 157 902 182.5 878.5 c 128,-1,6
 208 855 208 855 250 855 c 128,-1,7
 292 855 292 855 317.5 878.5 c 128,-1,8
 343 902 343 902 345 945 c 1,9,-1
 420 945 l 1,10,11
 420 871 420 871 374 828 c 128,-1,0
 328 785 328 785 250 785 c 128,-1,1
410 0 m 1,12,-1
 90 0 l 1,13,-1
 90 70 l 1,14,-1
 208 70 l 1,15,-1
 208 660 l 1,16,-1
 90 660 l 1,17,-1
 90 730 l 1,18,-1
 410 730 l 1,19,-1
 410 660 l 1,20,-1
 292 660 l 1,21,-1
 292 70 l 1,22,-1
 410 70 l 1,23,-1
 410 0 l 1,12,-1
EndSplineSet
EndChar

StartChar: ibreve
Encoding: 301 301 239
Width: 500
GlyphClass: 2
Flags: HW
LayerCount: 2
Fore
SplineSet
250 585 m 128,-1,1
 172 585 172 585 126 628 c 128,-1,2
 80 671 80 671 80 745 c 1,3,-1
 155 745 l 1,4,5
 157 702 157 702 182.5 678.5 c 128,-1,6
 208 655 208 655 250 655 c 128,-1,7
 292 655 292 655 317.5 678.5 c 128,-1,8
 343 702 343 702 345 745 c 1,9,-1
 420 745 l 1,10,11
 420 671 420 671 374 628 c 128,-1,0
 328 585 328 585 250 585 c 128,-1,1
316 520 m 1,12,-1
 316 68 l 1,13,-1
 425 68 l 1,14,-1
 425 0 l 1,15,-1
 95 0 l 1,16,-1
 95 68 l 1,17,-1
 234 68 l 1,18,-1
 234 452 l 1,19,-1
 125 452 l 1,20,-1
 125 520 l 1,21,-1
 316 520 l 1,12,-1
EndSplineSet
EndChar

StartChar: Iogonek
Encoding: 302 302 240
Width: 500
GlyphClass: 2
Flags: HW
LayerCount: 2
Fore
SplineSet
164 0 m 1,0,-1
 90 0 l 1,1,-1
 90 70 l 1,2,-1
 208 70 l 1,3,-1
 208 660 l 1,4,-1
 90 660 l 1,5,-1
 90 730 l 1,6,-1
 410 730 l 1,7,-1
 410 660 l 1,8,-1
 292 660 l 1,9,-1
 292 70 l 1,10,-1
 410 70 l 1,11,-1
 410 0 l 1,12,-1
 240 0 l 1,13,14
 210 -35 210 -35 210 -80 c 0,15,16
 210 -112 210 -112 231.5 -131 c 128,-1,17
 253 -150 253 -150 290 -150 c 0,18,19
 340 -150 340 -150 382 -128 c 1,20,-1
 382 -201 l 1,21,22
 333 -220 333 -220 280 -220 c 0,23,24
 204 -220 204 -220 168 -185.5 c 128,-1,25
 132 -151 132 -151 132 -100 c 0,26,27
 132 -47 132 -47 164 0 c 1,0,-1
EndSplineSet
EndChar

StartChar: iogonek
Encoding: 303 303 241
Width: 500
GlyphClass: 2
Flags: HW
LayerCount: 2
Fore
SplineSet
214 640 m 1,0,-1
 214 760 l 1,1,-1
 316 760 l 1,2,-1
 316 640 l 1,3,-1
 214 640 l 1,0,-1
316 520 m 1,4,-1
 316 68 l 1,5,-1
 425 68 l 1,6,-1
 425 0 l 1,7,-1
 240 0 l 1,8,9
 210 -35 210 -35 210 -80 c 0,10,11
 210 -112 210 -112 231.5 -131 c 128,-1,12
 253 -150 253 -150 290 -150 c 0,13,14
 340 -150 340 -150 382 -128 c 1,15,-1
 382 -201 l 1,16,17
 333 -220 333 -220 280 -220 c 0,18,19
 204 -220 204 -220 168 -185.5 c 128,-1,20
 132 -151 132 -151 132 -100 c 0,21,22
 132 -46 132 -46 164 0 c 1,23,-1
 95 0 l 1,24,-1
 95 68 l 1,25,-1
 234 68 l 1,26,-1
 234 452 l 1,27,-1
 125 452 l 1,28,-1
 125 520 l 1,29,-1
 316 520 l 1,4,-1
EndSplineSet
EndChar

StartChar: Idotaccent
Encoding: 304 304 242
Width: 500
GlyphClass: 2
Flags: HW
LayerCount: 2
Fore
SplineSet
208 810 m 1,0,-1
 208 940 l 1,1,-1
 292 940 l 1,2,-1
 292 810 l 1,3,-1
 208 810 l 1,0,-1
410 0 m 1,4,-1
 90 0 l 1,5,-1
 90 70 l 1,6,-1
 208 70 l 1,7,-1
 208 660 l 1,8,-1
 90 660 l 1,9,-1
 90 730 l 1,10,-1
 410 730 l 1,11,-1
 410 660 l 1,12,-1
 292 660 l 1,13,-1
 292 70 l 1,14,-1
 410 70 l 1,15,-1
 410 0 l 1,4,-1
EndSplineSet
EndChar

StartChar: dotlessi
Encoding: 305 305 243
Width: 500
GlyphClass: 2
Flags: HW
LayerCount: 2
Fore
SplineSet
316 520 m 1,0,-1
 316 68 l 1,1,-1
 425 68 l 1,2,-1
 425 0 l 1,3,-1
 95 0 l 1,4,-1
 95 68 l 1,5,-1
 234 68 l 1,6,-1
 234 452 l 1,7,-1
 125 452 l 1,8,-1
 125 520 l 1,9,-1
 316 520 l 1,0,-1
EndSplineSet
EndChar

StartChar: IJ
Encoding: 306 306 244
Width: 500
GlyphClass: 2
Flags: HW
LayerCount: 2
Fore
SplineSet
472 730 m 1,0,-1
 472 40 l 2,1,2
 472 -70 472 -70 428.5 -115 c 128,-1,3
 385 -160 385 -160 282 -160 c 0,4,5
 200 -160 200 -160 132 -130 c 1,6,-1
 132 -43 l 1,7,8
 161 -60 161 -60 207.5 -74 c 128,-1,9
 254 -88 254 -88 282 -88 c 0,10,11
 335 -88 335 -88 361.5 -57.5 c 128,-1,12
 388 -27 388 -27 388 42 c 2,13,-1
 388 660 l 1,14,-1
 302 660 l 1,15,-1
 302 730 l 1,16,-1
 472 730 l 1,0,-1
272 0 m 1,17,-1
 22 0 l 1,18,-1
 22 70 l 1,19,-1
 105 70 l 1,20,-1
 105 660 l 1,21,-1
 22 660 l 1,22,-1
 22 730 l 1,23,-1
 272 730 l 1,24,-1
 272 660 l 1,25,-1
 190 660 l 1,26,-1
 190 70 l 1,27,-1
 272 70 l 1,28,-1
 272 0 l 1,17,-1
EndSplineSet
EndChar

StartChar: ij
Encoding: 307 307 245
Width: 500
GlyphClass: 2
Flags: HW
LayerCount: 2
Fore
SplineSet
349 640 m 1,0,-1
 349 760 l 1,1,-1
 451 760 l 1,2,-1
 451 640 l 1,3,-1
 349 640 l 1,0,-1
369 -33 m 2,4,-1
 369 452 l 1,5,-1
 250 452 l 1,6,-1
 250 520 l 1,7,-1
 451 520 l 1,8,-1
 451 -33 l 2,9,10
 451 -98 451 -98 442.5 -134 c 128,-1,11
 434 -170 434 -170 406 -193 c 128,-1,12
 378 -216 378 -216 334 -223 c 128,-1,13
 290 -230 290 -230 211 -230 c 1,14,-1
 211 -162 l 1,15,16
 251 -162 251 -162 274 -161 c 128,-1,17
 297 -160 297 -160 316.5 -154.5 c 128,-1,18
 336 -149 336 -149 345 -142 c 128,-1,19
 354 -135 354 -135 360.5 -118.5 c 128,-1,20
 367 -102 367 -102 368 -84 c 128,-1,21
 369 -66 369 -66 369 -33 c 2,4,-1
114 640 m 1,22,-1
 114 760 l 1,23,-1
 216 760 l 1,24,-1
 216 640 l 1,25,-1
 114 640 l 1,22,-1
216 520 m 1,26,-1
 216 68 l 1,27,-1
 300 68 l 1,28,-1
 300 0 l 1,29,-1
 20 0 l 1,30,-1
 20 68 l 1,31,-1
 134 68 l 1,32,-1
 134 452 l 1,33,-1
 45 452 l 1,34,-1
 45 520 l 1,35,-1
 216 520 l 1,26,-1
EndSplineSet
EndChar

StartChar: Jcircumflex
Encoding: 308 308 246
Width: 500
GlyphClass: 2
Flags: HW
LayerCount: 2
Fore
SplineSet
400 730 m 1,0,-1
 400 190 l 2,1,2
 400 80 400 80 356.5 35 c 128,-1,3
 313 -10 313 -10 210 -10 c 0,4,5
 128 -10 128 -10 60 20 c 1,6,-1
 60 107 l 1,7,8
 89 90 89 90 135.5 76 c 128,-1,9
 182 62 182 62 210 62 c 0,10,11
 263 62 263 62 289 92.5 c 128,-1,12
 315 123 315 123 315 192 c 2,13,-1
 315 660 l 1,14,-1
 150 660 l 1,15,-1
 150 730 l 1,16,-1
 400 730 l 1,0,-1
249 920 m 1,17,-1
 168 790 l 1,18,-1
 60 790 l 1,19,-1
 190 960 l 1,20,-1
 310 960 l 1,21,-1
 440 790 l 1,22,-1
 332 790 l 1,23,-1
 251 920 l 1,24,-1
 249 920 l 1,17,-1
EndSplineSet
EndChar

StartChar: jcircumflex
Encoding: 309 309 247
Width: 500
GlyphClass: 2
Flags: HW
LayerCount: 2
Fore
SplineSet
249 720 m 1,0,-1
 168 590 l 1,1,-1
 60 590 l 1,2,-1
 190 760 l 1,3,-1
 310 760 l 1,4,-1
 440 590 l 1,5,-1
 332 590 l 1,6,-1
 251 720 l 1,7,-1
 249 720 l 1,0,-1
249 -33 m 2,8,-1
 249 452 l 1,9,-1
 130 452 l 1,10,-1
 130 520 l 1,11,-1
 331 520 l 1,12,-1
 331 -33 l 2,13,14
 331 -98 331 -98 322.5 -134 c 128,-1,15
 314 -170 314 -170 286 -193 c 128,-1,16
 258 -216 258 -216 214 -223 c 128,-1,17
 170 -230 170 -230 91 -230 c 1,18,-1
 91 -162 l 1,19,20
 131 -162 131 -162 154 -161 c 128,-1,21
 177 -160 177 -160 196.5 -154.5 c 128,-1,22
 216 -149 216 -149 225 -142 c 128,-1,23
 234 -135 234 -135 240.5 -118.5 c 128,-1,24
 247 -102 247 -102 248 -84 c 128,-1,25
 249 -66 249 -66 249 -33 c 2,8,-1
EndSplineSet
EndChar

StartChar: Kcommaaccent
Encoding: 310 310 248
Width: 500
GlyphClass: 2
Flags: HW
LayerCount: 2
Fore
SplineSet
157 400 m 1,0,-1
 159 400 l 1,1,-1
 365 730 l 1,2,-1
 460 730 l 1,3,-1
 235 380 l 1,4,-1
 465 0 l 1,5,-1
 370 0 l 1,6,-1
 159 360 l 1,7,-1
 157 360 l 1,8,-1
 157 0 l 1,9,-1
 75 0 l 1,10,-1
 75 730 l 1,11,-1
 157 730 l 1,12,-1
 157 400 l 1,0,-1
170 -270 m 1,13,-1
 225 -60 l 1,14,-1
 340 -60 l 1,15,-1
 250 -270 l 1,16,-1
 170 -270 l 1,13,-1
EndSplineSet
EndChar

StartChar: kcommaaccent
Encoding: 311 311 249
Width: 500
GlyphClass: 2
Flags: HW
LayerCount: 2
Fore
SplineSet
460 520 m 1,0,-1
 230 270 l 1,1,-1
 460 0 l 1,2,-1
 365 0 l 1,3,-1
 159 253 l 1,4,-1
 159 0 l 1,5,-1
 80 0 l 1,6,-1
 80 750 l 1,7,-1
 159 750 l 1,8,-1
 159 286 l 1,9,-1
 366 520 l 1,10,-1
 460 520 l 1,0,-1
170 -270 m 1,11,-1
 225 -60 l 1,12,-1
 340 -60 l 1,13,-1
 250 -270 l 1,14,-1
 170 -270 l 1,11,-1
EndSplineSet
EndChar

StartChar: kgreenlandic
Encoding: 312 312 250
Width: 500
GlyphClass: 2
Flags: HW
LayerCount: 2
Fore
SplineSet
460 520 m 1,0,-1
 230 270 l 1,1,-1
 460 0 l 1,2,-1
 365 0 l 1,3,-1
 159 253 l 1,4,-1
 159 0 l 1,5,-1
 80 0 l 1,6,-1
 80 520 l 1,7,-1
 159 520 l 1,8,-1
 159 286 l 1,9,-1
 366 520 l 1,10,-1
 460 520 l 1,0,-1
EndSplineSet
EndChar

StartChar: Lacute
Encoding: 313 313 251
Width: 500
GlyphClass: 2
Flags: HW
LayerCount: 2
Fore
SplineSet
260 960 m 1,0,-1
 380 960 l 1,1,-1
 230 790 l 1,2,-1
 150 790 l 1,3,-1
 260 960 l 1,0,-1
182 730 m 1,4,-1
 182 72 l 1,5,-1
 430 72 l 1,6,-1
 430 0 l 1,7,-1
 100 0 l 1,8,-1
 100 730 l 1,9,-1
 182 730 l 1,4,-1
EndSplineSet
EndChar

StartChar: lacute
Encoding: 314 314 252
Width: 500
GlyphClass: 2
Flags: HW
LayerCount: 2
Fore
SplineSet
260 960 m 1,0,-1
 380 960 l 1,1,-1
 230 790 l 1,2,-1
 150 790 l 1,3,-1
 260 960 l 1,0,-1
281 150 m 2,4,5
 281 84 281 84 291.5 71 c 128,-1,6
 302 58 302 58 355 58 c 0,7,8
 388 58 388 58 430 64 c 1,9,-1
 430 -5 l 1,10,11
 383 -10 383 -10 345 -10 c 0,12,13
 255 -10 255 -10 227 18.5 c 128,-1,14
 199 47 199 47 199 140 c 2,15,-1
 199 662 l 1,16,-1
 70 662 l 1,17,-1
 70 730 l 1,18,-1
 281 730 l 1,19,-1
 281 150 l 2,4,5
EndSplineSet
EndChar

StartChar: Lcommaaccent
Encoding: 315 315 253
Width: 500
GlyphClass: 2
Flags: HW
LayerCount: 2
Fore
SplineSet
170 -270 m 1,0,-1
 225 -60 l 1,1,-1
 340 -60 l 1,2,-1
 250 -270 l 1,3,-1
 170 -270 l 1,0,-1
182 730 m 1,4,-1
 182 72 l 1,5,-1
 430 72 l 1,6,-1
 430 0 l 1,7,-1
 100 0 l 1,8,-1
 100 730 l 1,9,-1
 182 730 l 1,4,-1
EndSplineSet
EndChar

StartChar: lcommaaccent
Encoding: 316 316 254
Width: 500
GlyphClass: 2
Flags: HW
LayerCount: 2
Fore
SplineSet
170 -270 m 1,0,-1
 225 -60 l 1,1,-1
 340 -60 l 1,2,-1
 250 -270 l 1,3,-1
 170 -270 l 1,0,-1
281 150 m 2,4,5
 281 84 281 84 291.5 71 c 128,-1,6
 302 58 302 58 355 58 c 0,7,8
 388 58 388 58 430 64 c 1,9,-1
 430 -5 l 1,10,11
 383 -10 383 -10 345 -10 c 0,12,13
 255 -10 255 -10 227 18.5 c 128,-1,14
 199 47 199 47 199 140 c 2,15,-1
 199 662 l 1,16,-1
 70 662 l 1,17,-1
 70 730 l 1,18,-1
 281 730 l 1,19,-1
 281 150 l 2,4,5
EndSplineSet
EndChar

StartChar: Lcaron
Encoding: 317 317 255
Width: 500
GlyphClass: 2
Flags: HW
LayerCount: 2
Fore
SplineSet
338 730 m 1,0,-1
 448 730 l 1,1,-1
 338 490 l 1,2,-1
 268 490 l 1,3,-1
 338 730 l 1,0,-1
177 730 m 1,4,-1
 177 72 l 1,5,-1
 425 72 l 1,6,-1
 425 0 l 1,7,-1
 95 0 l 1,8,-1
 95 730 l 1,9,-1
 177 730 l 1,4,-1
EndSplineSet
EndChar

StartChar: lcaron
Encoding: 318 318 256
Width: 500
GlyphClass: 2
Flags: HW
LayerCount: 2
Fore
SplineSet
362 730 m 1,0,-1
 472 730 l 1,1,-1
 362 490 l 1,2,-1
 292 490 l 1,3,-1
 362 730 l 1,0,-1
261 150 m 2,4,5
 261 84 261 84 271.5 71 c 128,-1,6
 282 58 282 58 335 58 c 0,7,8
 368 58 368 58 410 64 c 1,9,-1
 410 -5 l 1,10,11
 363 -10 363 -10 325 -10 c 0,12,13
 235 -10 235 -10 207 18.5 c 128,-1,14
 179 47 179 47 179 140 c 2,15,-1
 179 662 l 1,16,-1
 55 662 l 1,17,-1
 55 730 l 1,18,-1
 261 730 l 1,19,-1
 261 150 l 2,4,5
EndSplineSet
EndChar

StartChar: Ldot
Encoding: 319 319 257
Width: 500
GlyphClass: 2
Flags: HW
LayerCount: 2
Fore
SplineSet
317 325 m 1,0,-1
 317 455 l 1,1,-1
 402 455 l 1,2,-1
 402 325 l 1,3,-1
 317 325 l 1,0,-1
177 730 m 1,4,-1
 177 72 l 1,5,-1
 425 72 l 1,6,-1
 425 0 l 1,7,-1
 95 0 l 1,8,-1
 95 730 l 1,9,-1
 177 730 l 1,4,-1
EndSplineSet
EndChar

StartChar: ldot
Encoding: 320 320 258
Width: 500
GlyphClass: 2
Flags: HW
LayerCount: 2
Fore
SplineSet
352 325 m 1,0,-1
 352 455 l 1,1,-1
 437 455 l 1,2,-1
 437 325 l 1,3,-1
 352 325 l 1,0,-1
261 150 m 2,4,5
 261 84 261 84 271.5 71 c 128,-1,6
 282 58 282 58 335 58 c 0,7,8
 368 58 368 58 410 64 c 1,9,-1
 410 -5 l 1,10,11
 363 -10 363 -10 325 -10 c 0,12,13
 235 -10 235 -10 207 18.5 c 128,-1,14
 179 47 179 47 179 140 c 2,15,-1
 179 662 l 1,16,-1
 55 662 l 1,17,-1
 55 730 l 1,18,-1
 261 730 l 1,19,-1
 261 150 l 2,4,5
EndSplineSet
EndChar

StartChar: Lslash
Encoding: 321 321 259
Width: 500
GlyphClass: 2
Flags: HW
LayerCount: 2
Fore
SplineSet
130 355 m 1,0,-1
 20 310 l 1,1,-1
 20 385 l 1,2,-1
 130 430 l 1,3,-1
 130 730 l 1,4,-1
 212 730 l 1,5,-1
 212 464 l 1,6,-1
 360 525 l 1,7,-1
 360 450 l 1,8,-1
 212 389 l 1,9,-1
 212 72 l 1,10,-1
 460 72 l 1,11,-1
 460 0 l 1,12,-1
 130 0 l 1,13,-1
 130 355 l 1,0,-1
EndSplineSet
EndChar

StartChar: lslash
Encoding: 322 322 260
Width: 500
GlyphClass: 2
Flags: HW
LayerCount: 2
Fore
SplineSet
281 150 m 2,0,1
 281 84 281 84 291.5 71 c 128,-1,2
 302 58 302 58 355 58 c 0,3,4
 388 58 388 58 430 64 c 1,5,-1
 430 -5 l 1,6,7
 383 -10 383 -10 345 -10 c 0,8,9
 255 -10 255 -10 227 18.5 c 128,-1,10
 199 47 199 47 199 140 c 2,11,-1
 199 359 l 1,12,-1
 80 310 l 1,13,-1
 80 385 l 1,14,-1
 199 434 l 1,15,-1
 199 662 l 1,16,-1
 70 662 l 1,17,-1
 70 730 l 1,18,-1
 281 730 l 1,19,-1
 281 468 l 1,20,-1
 420 525 l 1,21,-1
 420 450 l 1,22,-1
 281 393 l 1,23,-1
 281 150 l 2,0,1
EndSplineSet
EndChar

StartChar: Nacute
Encoding: 323 323 261
Width: 500
GlyphClass: 2
Flags: HW
LayerCount: 2
Fore
SplineSet
260 960 m 1,0,-1
 380 960 l 1,1,-1
 230 790 l 1,2,-1
 150 790 l 1,3,-1
 260 960 l 1,0,-1
151 550 m 1,4,-1
 149 550 l 1,5,-1
 149 0 l 1,6,-1
 65 0 l 1,7,-1
 65 730 l 1,8,-1
 149 730 l 1,9,-1
 353 180 l 1,10,-1
 355 180 l 1,11,-1
 355 730 l 1,12,-1
 435 730 l 1,13,-1
 435 0 l 1,14,-1
 355 0 l 1,15,-1
 151 550 l 1,4,-1
EndSplineSet
EndChar

StartChar: nacute
Encoding: 324 324 262
Width: 500
GlyphClass: 2
Flags: HW
LayerCount: 2
Fore
SplineSet
260 760 m 1,0,-1
 380 760 l 1,1,-1
 230 590 l 1,2,-1
 150 590 l 1,3,-1
 260 760 l 1,0,-1
440 330 m 2,4,-1
 440 0 l 1,5,-1
 363 0 l 1,6,-1
 363 312 l 2,7,8
 363 400 363 400 343 429.5 c 128,-1,9
 323 459 323 459 270 459 c 0,10,11
 220 459 220 459 184.5 403 c 128,-1,12
 149 347 149 347 149 252 c 2,13,-1
 149 0 l 1,14,-1
 70 0 l 1,15,-1
 70 520 l 1,16,-1
 144 520 l 1,17,-1
 146 445 l 1,18,-1
 148 445 l 1,19,20
 167 483 167 483 206 506.5 c 128,-1,21
 245 530 245 530 290 530 c 0,22,23
 369 530 369 530 404.5 484.5 c 128,-1,24
 440 439 440 439 440 330 c 2,4,-1
EndSplineSet
EndChar

StartChar: Ncommaaccent
Encoding: 325 325 263
Width: 500
GlyphClass: 2
Flags: HW
LayerCount: 2
Fore
SplineSet
170 -270 m 1,0,-1
 225 -60 l 1,1,-1
 340 -60 l 1,2,-1
 250 -270 l 1,3,-1
 170 -270 l 1,0,-1
151 550 m 1,4,-1
 149 550 l 1,5,-1
 149 0 l 1,6,-1
 65 0 l 1,7,-1
 65 730 l 1,8,-1
 149 730 l 1,9,-1
 353 180 l 1,10,-1
 355 180 l 1,11,-1
 355 730 l 1,12,-1
 435 730 l 1,13,-1
 435 0 l 1,14,-1
 355 0 l 1,15,-1
 151 550 l 1,4,-1
EndSplineSet
EndChar

StartChar: ncommaaccent
Encoding: 326 326 264
Width: 500
GlyphClass: 2
Flags: HW
LayerCount: 2
Fore
SplineSet
170 -270 m 1,0,-1
 225 -60 l 1,1,-1
 340 -60 l 1,2,-1
 250 -270 l 1,3,-1
 170 -270 l 1,0,-1
440 330 m 2,4,-1
 440 0 l 1,5,-1
 363 0 l 1,6,-1
 363 312 l 2,7,8
 363 400 363 400 343 429.5 c 128,-1,9
 323 459 323 459 270 459 c 0,10,11
 220 459 220 459 184.5 403 c 128,-1,12
 149 347 149 347 149 252 c 2,13,-1
 149 0 l 1,14,-1
 70 0 l 1,15,-1
 70 520 l 1,16,-1
 144 520 l 1,17,-1
 146 445 l 1,18,-1
 148 445 l 1,19,20
 167 483 167 483 206 506.5 c 128,-1,21
 245 530 245 530 290 530 c 0,22,23
 369 530 369 530 404.5 484.5 c 128,-1,24
 440 439 440 439 440 330 c 2,4,-1
EndSplineSet
EndChar

StartChar: Ncaron
Encoding: 327 327 265
Width: 500
GlyphClass: 2
Flags: HW
LayerCount: 2
Fore
SplineSet
249 830 m 1,0,-1
 251 830 l 1,1,-1
 332 960 l 1,2,-1
 440 960 l 1,3,-1
 310 790 l 1,4,-1
 190 790 l 1,5,-1
 60 960 l 1,6,-1
 168 960 l 1,7,-1
 249 830 l 1,0,-1
151 550 m 1,8,-1
 149 550 l 1,9,-1
 149 0 l 1,10,-1
 65 0 l 1,11,-1
 65 730 l 1,12,-1
 149 730 l 1,13,-1
 353 180 l 1,14,-1
 355 180 l 1,15,-1
 355 730 l 1,16,-1
 435 730 l 1,17,-1
 435 0 l 1,18,-1
 355 0 l 1,19,-1
 151 550 l 1,8,-1
EndSplineSet
EndChar

StartChar: ncaron
Encoding: 328 328 266
Width: 500
GlyphClass: 2
Flags: HW
LayerCount: 2
Fore
SplineSet
251 630 m 1,0,-1
 332 760 l 1,1,-1
 440 760 l 1,2,-1
 310 590 l 1,3,-1
 190 590 l 1,4,-1
 60 760 l 1,5,-1
 168 760 l 1,6,-1
 249 630 l 1,7,-1
 251 630 l 1,0,-1
440 0 m 1,8,-1
 363 0 l 1,9,-1
 363 312 l 2,10,11
 363 400 363 400 343 429.5 c 128,-1,12
 323 459 323 459 270 459 c 0,13,14
 220 459 220 459 184.5 403 c 128,-1,15
 149 347 149 347 149 252 c 2,16,-1
 149 0 l 1,17,-1
 70 0 l 1,18,-1
 70 520 l 1,19,-1
 144 520 l 1,20,-1
 146 445 l 1,21,-1
 148 445 l 1,22,23
 167 483 167 483 206 506.5 c 128,-1,24
 245 530 245 530 290 530 c 0,25,26
 369 530 369 530 404.5 484.5 c 128,-1,27
 440 439 440 439 440 330 c 2,28,-1
 440 0 l 1,8,-1
EndSplineSet
EndChar

StartChar: napostrophe
Encoding: 329 329 267
Width: 500
GlyphClass: 2
Flags: HW
LayerCount: 2
Fore
SplineSet
455 0 m 1,0,-1
 378 0 l 1,1,-1
 378 312 l 2,2,3
 378 400 378 400 358 429.5 c 128,-1,4
 338 459 338 459 285 459 c 0,5,6
 235 459 235 459 199.5 403 c 128,-1,7
 164 347 164 347 164 252 c 2,8,-1
 164 0 l 1,9,-1
 85 0 l 1,10,-1
 85 490 l 1,11,-1
 18 490 l 1,12,-1
 88 730 l 1,13,-1
 198 730 l 1,14,-1
 101 520 l 1,15,-1
 159 520 l 1,16,-1
 161 445 l 1,17,-1
 163 445 l 1,18,19
 182 483 182 483 221 506.5 c 128,-1,20
 260 530 260 530 305 530 c 0,21,22
 384 530 384 530 419.5 484.5 c 128,-1,23
 455 439 455 439 455 330 c 2,24,-1
 455 0 l 1,0,-1
EndSplineSet
EndChar

StartChar: Eng
Encoding: 330 330 268
Width: 500
GlyphClass: 2
Flags: HW
LayerCount: 2
Fore
SplineSet
358 -8 m 1,0,-1
 151 550 l 1,1,-1
 149 550 l 1,2,-1
 149 0 l 1,3,-1
 65 0 l 1,4,-1
 65 730 l 1,5,-1
 149 730 l 1,6,-1
 353 180 l 1,7,-1
 355 180 l 1,8,-1
 355 730 l 1,9,-1
 435 730 l 1,10,-1
 435 -50 l 2,11,12
 435 -149 435 -149 402.5 -189.5 c 128,-1,13
 370 -230 370 -230 297 -230 c 0,14,15
 252 -230 252 -230 207 -215 c 1,16,-1
 207 -143 l 1,17,18
 245 -161 245 -161 282 -161 c 0,19,20
 329 -161 329 -161 343.5 -137.5 c 128,-1,21
 358 -114 358 -114 358 -30 c 2,22,-1
 358 -8 l 1,0,-1
EndSplineSet
EndChar

StartChar: eng
Encoding: 331 331 269
Width: 500
GlyphClass: 2
Flags: HW
LayerCount: 2
Fore
SplineSet
363 312 m 2,0,1
 363 400 363 400 343 429.5 c 128,-1,2
 323 459 323 459 270 459 c 0,3,4
 220 459 220 459 184.5 403 c 128,-1,5
 149 347 149 347 149 252 c 2,6,-1
 149 0 l 1,7,-1
 70 0 l 1,8,-1
 70 520 l 1,9,-1
 144 520 l 1,10,-1
 146 445 l 1,11,-1
 148 445 l 1,12,13
 167 483 167 483 206 506.5 c 128,-1,14
 245 530 245 530 290 530 c 0,15,16
 369 530 369 530 404.5 484.5 c 128,-1,17
 440 439 440 439 440 330 c 2,18,-1
 440 -50 l 2,19,20
 440 -149 440 -149 407.5 -189.5 c 128,-1,21
 375 -230 375 -230 302 -230 c 0,22,23
 257 -230 257 -230 212 -215 c 1,24,-1
 212 -143 l 1,25,26
 250 -161 250 -161 287 -161 c 0,27,28
 334 -161 334 -161 348.5 -137.5 c 128,-1,29
 363 -114 363 -114 363 -30 c 2,30,-1
 363 312 l 2,0,1
EndSplineSet
EndChar

StartChar: Omacron
Encoding: 332 332 270
Width: 500
GlyphClass: 2
Flags: HW
LayerCount: 2
Fore
SplineSet
100 850 m 1,0,-1
 100 910 l 1,1,-1
 400 910 l 1,2,-1
 400 850 l 1,3,-1
 100 850 l 1,0,-1
250 740 m 128,-1,5
 357 740 357 740 408.5 655.5 c 128,-1,6
 460 571 460 571 460 365 c 128,-1,7
 460 159 460 159 408.5 74.5 c 128,-1,8
 357 -10 357 -10 250 -10 c 128,-1,9
 143 -10 143 -10 91.5 74.5 c 128,-1,10
 40 159 40 159 40 365 c 128,-1,11
 40 571 40 571 91.5 655.5 c 128,-1,4
 143 740 143 740 250 740 c 128,-1,5
250 62 m 128,-1,13
 294 62 294 62 321 87.5 c 128,-1,14
 348 113 348 113 364 181 c 128,-1,15
 380 249 380 249 380 365 c 128,-1,16
 380 481 380 481 364 549 c 128,-1,17
 348 617 348 617 321 642.5 c 128,-1,18
 294 668 294 668 250 668 c 128,-1,19
 206 668 206 668 179 642.5 c 128,-1,20
 152 617 152 617 136 549 c 128,-1,21
 120 481 120 481 120 365 c 128,-1,22
 120 249 120 249 136 181 c 128,-1,23
 152 113 152 113 179 87.5 c 128,-1,12
 206 62 206 62 250 62 c 128,-1,13
EndSplineSet
EndChar

StartChar: omacron
Encoding: 333 333 271
Width: 500
GlyphClass: 2
Flags: HW
LayerCount: 2
Fore
SplineSet
100 640 m 1,0,-1
 100 700 l 1,1,-1
 400 700 l 1,2,-1
 400 640 l 1,3,-1
 100 640 l 1,0,-1
250 530 m 128,-1,5
 450 530 450 530 450 260 c 128,-1,6
 450 -10 450 -10 250 -10 c 128,-1,7
 50 -10 50 -10 50 260 c 128,-1,4
 50 530 50 530 250 530 c 128,-1,5
250 59 m 128,-1,9
 311 59 311 59 339.5 104.5 c 128,-1,10
 368 150 368 150 368 260 c 128,-1,11
 368 370 368 370 339.5 415.5 c 128,-1,12
 311 461 311 461 250 461 c 128,-1,13
 189 461 189 461 160.5 415.5 c 128,-1,14
 132 370 132 370 132 260 c 128,-1,15
 132 150 132 150 160.5 104.5 c 128,-1,8
 189 59 189 59 250 59 c 128,-1,9
EndSplineSet
EndChar

StartChar: Obreve
Encoding: 334 334 272
Width: 500
GlyphClass: 2
Flags: HW
LayerCount: 2
Fore
SplineSet
80 945 m 1,0,-1
 155 945 l 1,1,2
 157 902 157 902 182.5 878.5 c 128,-1,3
 208 855 208 855 250 855 c 128,-1,4
 292 855 292 855 317.5 878.5 c 128,-1,5
 343 902 343 902 345 945 c 1,6,-1
 420 945 l 1,7,8
 420 871 420 871 374 828 c 128,-1,9
 328 785 328 785 250 785 c 128,-1,10
 172 785 172 785 126 828 c 128,-1,11
 80 871 80 871 80 945 c 1,0,-1
250 740 m 128,-1,13
 357 740 357 740 408.5 655.5 c 128,-1,14
 460 571 460 571 460 365 c 128,-1,15
 460 159 460 159 408.5 74.5 c 128,-1,16
 357 -10 357 -10 250 -10 c 128,-1,17
 143 -10 143 -10 91.5 74.5 c 128,-1,18
 40 159 40 159 40 365 c 128,-1,19
 40 571 40 571 91.5 655.5 c 128,-1,12
 143 740 143 740 250 740 c 128,-1,13
250 62 m 128,-1,21
 294 62 294 62 321 87.5 c 128,-1,22
 348 113 348 113 364 181 c 128,-1,23
 380 249 380 249 380 365 c 128,-1,24
 380 481 380 481 364 549 c 128,-1,25
 348 617 348 617 321 642.5 c 128,-1,26
 294 668 294 668 250 668 c 128,-1,27
 206 668 206 668 179 642.5 c 128,-1,28
 152 617 152 617 136 549 c 128,-1,29
 120 481 120 481 120 365 c 128,-1,30
 120 249 120 249 136 181 c 128,-1,31
 152 113 152 113 179 87.5 c 128,-1,20
 206 62 206 62 250 62 c 128,-1,21
EndSplineSet
EndChar

StartChar: obreve
Encoding: 335 335 273
Width: 500
GlyphClass: 2
Flags: HW
LayerCount: 2
Fore
SplineSet
80 745 m 1,0,-1
 155 745 l 1,1,2
 157 702 157 702 182.5 678.5 c 128,-1,3
 208 655 208 655 250 655 c 128,-1,4
 292 655 292 655 317.5 678.5 c 128,-1,5
 343 702 343 702 345 745 c 1,6,-1
 420 745 l 1,7,8
 420 671 420 671 374 628 c 128,-1,9
 328 585 328 585 250 585 c 128,-1,10
 172 585 172 585 126 628 c 128,-1,11
 80 671 80 671 80 745 c 1,0,-1
250 530 m 128,-1,13
 450 530 450 530 450 260 c 128,-1,14
 450 -10 450 -10 250 -10 c 128,-1,15
 50 -10 50 -10 50 260 c 128,-1,12
 50 530 50 530 250 530 c 128,-1,13
250 59 m 128,-1,17
 311 59 311 59 339.5 104.5 c 128,-1,18
 368 150 368 150 368 260 c 128,-1,19
 368 370 368 370 339.5 415.5 c 128,-1,20
 311 461 311 461 250 461 c 128,-1,21
 189 461 189 461 160.5 415.5 c 128,-1,22
 132 370 132 370 132 260 c 128,-1,23
 132 150 132 150 160.5 104.5 c 128,-1,16
 189 59 189 59 250 59 c 128,-1,17
EndSplineSet
EndChar

StartChar: Ohungarumlaut
Encoding: 336 336 274
Width: 500
GlyphClass: 2
Flags: HW
LayerCount: 2
Fore
SplineSet
340 960 m 1,0,-1
 455 960 l 1,1,-1
 305 790 l 1,2,-1
 230 790 l 1,3,-1
 340 960 l 1,0,-1
170 960 m 1,4,-1
 285 960 l 1,5,-1
 135 790 l 1,6,-1
 60 790 l 1,7,-1
 170 960 l 1,4,-1
250 740 m 128,-1,9
 357 740 357 740 408.5 655.5 c 128,-1,10
 460 571 460 571 460 365 c 128,-1,11
 460 159 460 159 408.5 74.5 c 128,-1,12
 357 -10 357 -10 250 -10 c 128,-1,13
 143 -10 143 -10 91.5 74.5 c 128,-1,14
 40 159 40 159 40 365 c 128,-1,15
 40 571 40 571 91.5 655.5 c 128,-1,8
 143 740 143 740 250 740 c 128,-1,9
250 62 m 128,-1,17
 294 62 294 62 321 87.5 c 128,-1,18
 348 113 348 113 364 181 c 128,-1,19
 380 249 380 249 380 365 c 128,-1,20
 380 481 380 481 364 549 c 128,-1,21
 348 617 348 617 321 642.5 c 128,-1,22
 294 668 294 668 250 668 c 128,-1,23
 206 668 206 668 179 642.5 c 128,-1,24
 152 617 152 617 136 549 c 128,-1,25
 120 481 120 481 120 365 c 128,-1,26
 120 249 120 249 136 181 c 128,-1,27
 152 113 152 113 179 87.5 c 128,-1,16
 206 62 206 62 250 62 c 128,-1,17
EndSplineSet
EndChar

StartChar: ohungarumlaut
Encoding: 337 337 275
Width: 500
GlyphClass: 2
Flags: HW
LayerCount: 2
Fore
SplineSet
345 760 m 1,0,-1
 460 760 l 1,1,-1
 310 590 l 1,2,-1
 235 590 l 1,3,-1
 345 760 l 1,0,-1
175 760 m 1,4,-1
 290 760 l 1,5,-1
 140 590 l 1,6,-1
 65 590 l 1,7,-1
 175 760 l 1,4,-1
250 530 m 128,-1,9
 450 530 450 530 450 260 c 128,-1,10
 450 -10 450 -10 250 -10 c 128,-1,11
 50 -10 50 -10 50 260 c 128,-1,8
 50 530 50 530 250 530 c 128,-1,9
250 59 m 128,-1,13
 311 59 311 59 339.5 104.5 c 128,-1,14
 368 150 368 150 368 260 c 128,-1,15
 368 370 368 370 339.5 415.5 c 128,-1,16
 311 461 311 461 250 461 c 128,-1,17
 189 461 189 461 160.5 415.5 c 128,-1,18
 132 370 132 370 132 260 c 128,-1,19
 132 150 132 150 160.5 104.5 c 128,-1,12
 189 59 189 59 250 59 c 128,-1,13
EndSplineSet
EndChar

StartChar: OE
Encoding: 338 338 276
Width: 500
GlyphClass: 2
Flags: HW
LayerCount: 2
Fore
SplineSet
332 658 m 1,0,-1
 332 430 l 1,1,-1
 470 430 l 1,2,-1
 470 360 l 1,3,-1
 332 360 l 1,4,-1
 332 72 l 1,5,-1
 480 72 l 1,6,-1
 480 0 l 1,7,-1
 309 0 l 1,8,9
 279 -10 279 -10 240 -10 c 0,10,11
 133 -10 133 -10 81.5 74.5 c 128,-1,12
 30 159 30 159 30 365 c 128,-1,13
 30 571 30 571 81.5 655.5 c 128,-1,14
 133 740 133 740 240 740 c 0,15,16
 279 740 279 740 309 730 c 1,17,-1
 480 730 l 1,18,-1
 480 658 l 1,19,-1
 332 658 l 1,0,-1
250 62 m 1,20,-1
 250 668 l 1,21,-1
 240 668 l 2,22,23
 196 668 196 668 169 642.5 c 128,-1,24
 142 617 142 617 126 549 c 128,-1,25
 110 481 110 481 110 365 c 128,-1,26
 110 249 110 249 126 181 c 128,-1,27
 142 113 142 113 169 87.5 c 128,-1,28
 196 62 196 62 240 62 c 2,29,-1
 250 62 l 1,20,-1
EndSplineSet
EndChar

StartChar: oe
Encoding: 339 339 277
Width: 500
GlyphClass: 2
Flags: HW
LayerCount: 2
Fore
SplineSet
295 234 m 1,0,1
 297 136 297 136 315.5 97.5 c 128,-1,2
 334 59 334 59 370 59 c 0,3,4
 417 59 417 59 462 95 c 1,5,-1
 462 15 l 1,6,7
 411 -10 411 -10 365 -10 c 0,8,9
 294 -10 294 -10 259 51 c 1,10,11
 225 -10 225 -10 160 -10 c 0,12,13
 20 -10 20 -10 20 260 c 128,-1,14
 20 530 20 530 160 530 c 0,15,16
 225 530 225 530 257 473 c 1,17,18
 290 530 290 530 355 530 c 0,19,20
 417 530 417 530 448.5 468.5 c 128,-1,21
 480 407 480 407 480 265 c 0,22,23
 480 244 480 244 479 234 c 1,24,-1
 295 234 l 1,0,1
296 300 m 1,25,-1
 414 300 l 1,26,27
 412 387 412 387 397.5 424 c 128,-1,28
 383 461 383 461 355 461 c 128,-1,29
 327 461 327 461 312.5 424 c 128,-1,30
 298 387 298 387 296 300 c 1,25,-1
220 260 m 128,-1,32
 220 370 220 370 205.5 415.5 c 128,-1,33
 191 461 191 461 160 461 c 128,-1,34
 129 461 129 461 114.5 415.5 c 128,-1,35
 100 370 100 370 100 260 c 128,-1,36
 100 150 100 150 114.5 104.5 c 128,-1,37
 129 59 129 59 160 59 c 128,-1,38
 191 59 191 59 205.5 104.5 c 128,-1,31
 220 150 220 150 220 260 c 128,-1,32
EndSplineSet
EndChar

StartChar: Racute
Encoding: 340 340 278
Width: 500
GlyphClass: 2
Flags: HW
LayerCount: 2
Fore
SplineSet
380 960 m 1,0,-1
 230 790 l 1,1,-1
 150 790 l 1,2,-1
 260 960 l 1,3,-1
 380 960 l 1,0,-1
450 530 m 0,4,5
 450 387 450 387 351 342 c 1,6,-1
 351 340 l 1,7,8
 378 313 378 313 407 214 c 2,9,-1
 470 0 l 1,10,-1
 384 0 l 1,11,-1
 325 216 l 2,12,13
 308 280 308 280 285.5 300 c 128,-1,14
 263 320 263 320 212 320 c 2,15,-1
 152 320 l 1,16,-1
 152 0 l 1,17,-1
 70 0 l 1,18,-1
 70 730 l 1,19,-1
 230 730 l 2,20,21
 348 730 348 730 399 683.5 c 128,-1,22
 450 637 450 637 450 530 c 0,4,5
152 390 m 1,23,-1
 222 390 l 2,24,25
 306 390 306 390 338 419.5 c 128,-1,26
 370 449 370 449 370 530 c 0,27,28
 370 602 370 602 337.5 631 c 128,-1,29
 305 660 305 660 222 660 c 2,30,-1
 152 660 l 1,31,-1
 152 390 l 1,23,-1
EndSplineSet
EndChar

StartChar: racute
Encoding: 341 341 279
Width: 500
GlyphClass: 2
Flags: HW
LayerCount: 2
Fore
SplineSet
380 760 m 1,0,-1
 230 590 l 1,1,-1
 150 590 l 1,2,-1
 260 760 l 1,3,-1
 380 760 l 1,0,-1
186 520 m 1,4,-1
 186 420 l 1,5,-1
 188 420 l 1,6,7
 250 530 250 530 360 530 c 0,8,9
 397 530 397 530 430 520 c 1,10,-1
 430 450 l 1,11,12
 395 461 395 461 360 461 c 0,13,14
 287 461 287 461 238 400 c 128,-1,15
 189 339 189 339 189 240 c 2,16,-1
 189 0 l 1,17,-1
 110 0 l 1,18,-1
 110 520 l 1,19,-1
 186 520 l 1,4,-1
EndSplineSet
EndChar

StartChar: Rcommaaccent
Encoding: 342 342 280
Width: 500
GlyphClass: 2
Flags: HW
LayerCount: 2
Fore
SplineSet
225 -60 m 1,0,-1
 340 -60 l 1,1,-1
 250 -270 l 1,2,-1
 170 -270 l 1,3,-1
 225 -60 l 1,0,-1
450 530 m 0,4,5
 450 387 450 387 351 342 c 1,6,-1
 351 340 l 1,7,8
 378 313 378 313 407 214 c 2,9,-1
 470 0 l 1,10,-1
 384 0 l 1,11,-1
 325 216 l 2,12,13
 308 280 308 280 285.5 300 c 128,-1,14
 263 320 263 320 212 320 c 2,15,-1
 152 320 l 1,16,-1
 152 0 l 1,17,-1
 70 0 l 1,18,-1
 70 730 l 1,19,-1
 230 730 l 2,20,21
 348 730 348 730 399 683.5 c 128,-1,22
 450 637 450 637 450 530 c 0,4,5
152 390 m 1,23,-1
 222 390 l 2,24,25
 306 390 306 390 338 419.5 c 128,-1,26
 370 449 370 449 370 530 c 0,27,28
 370 602 370 602 337.5 631 c 128,-1,29
 305 660 305 660 222 660 c 2,30,-1
 152 660 l 1,31,-1
 152 390 l 1,23,-1
EndSplineSet
EndChar

StartChar: rcommaaccent
Encoding: 343 343 281
Width: 500
GlyphClass: 2
Flags: HW
LayerCount: 2
Fore
SplineSet
225 -60 m 1,0,-1
 340 -60 l 1,1,-1
 250 -270 l 1,2,-1
 170 -270 l 1,3,-1
 225 -60 l 1,0,-1
186 520 m 1,4,-1
 186 420 l 1,5,-1
 188 420 l 1,6,7
 250 530 250 530 360 530 c 0,8,9
 397 530 397 530 430 520 c 1,10,-1
 430 450 l 1,11,12
 395 461 395 461 360 461 c 0,13,14
 287 461 287 461 238 400 c 128,-1,15
 189 339 189 339 189 240 c 2,16,-1
 189 0 l 1,17,-1
 110 0 l 1,18,-1
 110 520 l 1,19,-1
 186 520 l 1,4,-1
EndSplineSet
EndChar

StartChar: Rcaron
Encoding: 344 344 282
Width: 500
GlyphClass: 2
Flags: HW
LayerCount: 2
Fore
SplineSet
251 830 m 1,0,-1
 332 960 l 1,1,-1
 440 960 l 1,2,-1
 310 790 l 1,3,-1
 190 790 l 1,4,-1
 60 960 l 1,5,-1
 168 960 l 1,6,-1
 249 830 l 1,7,-1
 251 830 l 1,0,-1
450 530 m 0,8,9
 450 387 450 387 351 342 c 1,10,-1
 351 340 l 1,11,12
 378 313 378 313 407 214 c 2,13,-1
 470 0 l 1,14,-1
 384 0 l 1,15,-1
 325 216 l 2,16,17
 308 280 308 280 285.5 300 c 128,-1,18
 263 320 263 320 212 320 c 2,19,-1
 152 320 l 1,20,-1
 152 0 l 1,21,-1
 70 0 l 1,22,-1
 70 730 l 1,23,-1
 230 730 l 2,24,25
 348 730 348 730 399 683.5 c 128,-1,26
 450 637 450 637 450 530 c 0,8,9
152 390 m 1,27,-1
 222 390 l 2,28,29
 306 390 306 390 338 419.5 c 128,-1,30
 370 449 370 449 370 530 c 0,31,32
 370 602 370 602 337.5 631 c 128,-1,33
 305 660 305 660 222 660 c 2,34,-1
 152 660 l 1,35,-1
 152 390 l 1,27,-1
EndSplineSet
EndChar

StartChar: rcaron
Encoding: 345 345 283
Width: 500
GlyphClass: 2
Flags: HW
LayerCount: 2
Fore
SplineSet
251 630 m 1,0,-1
 332 760 l 1,1,-1
 440 760 l 1,2,-1
 310 590 l 1,3,-1
 190 590 l 1,4,-1
 60 760 l 1,5,-1
 168 760 l 1,6,-1
 249 630 l 1,7,-1
 251 630 l 1,0,-1
186 520 m 1,8,-1
 186 420 l 1,9,-1
 188 420 l 1,10,11
 250 530 250 530 360 530 c 0,12,13
 397 530 397 530 430 520 c 1,14,-1
 430 450 l 1,15,16
 395 461 395 461 360 461 c 0,17,18
 287 461 287 461 238 400 c 128,-1,19
 189 339 189 339 189 240 c 2,20,-1
 189 0 l 1,21,-1
 110 0 l 1,22,-1
 110 520 l 1,23,-1
 186 520 l 1,8,-1
EndSplineSet
EndChar

StartChar: Sacute
Encoding: 346 346 284
Width: 500
GlyphClass: 2
Flags: HW
LayerCount: 2
Fore
SplineSet
380 960 m 1,0,-1
 230 790 l 1,1,-1
 150 790 l 1,2,-1
 260 960 l 1,3,-1
 380 960 l 1,0,-1
260 668 m 0,4,5
 213 668 213 668 182.5 637.5 c 128,-1,6
 152 607 152 607 152 560 c 0,7,8
 152 510 152 510 174 477 c 128,-1,9
 196 444 196 444 245 422 c 0,10,11
 356 373 356 373 398 319.5 c 128,-1,12
 440 266 440 266 440 180 c 0,13,14
 440 86 440 86 388.5 38 c 128,-1,15
 337 -10 337 -10 240 -10 c 0,16,17
 149 -10 149 -10 75 45 c 1,18,-1
 75 140 l 1,19,20
 155 62 155 62 245 62 c 0,21,22
 358 62 358 62 358 180 c 0,23,24
 358 235 358 235 332 271 c 128,-1,25
 306 307 306 307 245 335 c 0,26,27
 151 377 151 377 110.5 430.5 c 128,-1,28
 70 484 70 484 70 560 c 0,29,30
 70 640 70 640 121 690 c 128,-1,31
 172 740 172 740 255 740 c 0,32,33
 308 740 308 740 342 732 c 128,-1,34
 376 724 376 724 420 700 c 1,35,-1
 420 610 l 1,36,37
 343 668 343 668 260 668 c 0,4,5
EndSplineSet
EndChar

StartChar: sacute
Encoding: 347 347 285
Width: 500
GlyphClass: 2
Flags: HW
LayerCount: 2
Fore
SplineSet
380 760 m 1,0,-1
 230 590 l 1,1,-1
 150 590 l 1,2,-1
 260 760 l 1,3,-1
 380 760 l 1,0,-1
255 463 m 0,4,5
 159 463 159 463 159 390 c 0,6,7
 159 356 159 356 180 335.5 c 128,-1,8
 201 315 201 315 255 300 c 0,9,10
 361 270 361 270 395.5 237 c 128,-1,11
 430 204 430 204 430 135 c 128,-1,12
 430 66 430 66 383 28 c 128,-1,13
 336 -10 336 -10 250 -10 c 128,-1,14
 164 -10 164 -10 85 30 c 1,15,-1
 85 110 l 1,16,17
 163 57 163 57 240 57 c 0,18,19
 351 57 351 57 351 135 c 0,20,21
 351 172 351 172 329.5 192 c 128,-1,22
 308 212 308 212 245 230 c 0,23,24
 153 256 153 256 116.5 292 c 128,-1,25
 80 328 80 328 80 390 c 0,26,27
 80 456 80 456 123.5 493 c 128,-1,28
 167 530 167 530 250 530 c 0,29,30
 334 530 334 530 410 495 c 1,31,-1
 410 420 l 1,32,33
 331 463 331 463 255 463 c 0,4,5
EndSplineSet
EndChar

StartChar: Scircumflex
Encoding: 348 348 286
Width: 500
GlyphClass: 2
Flags: HW
LayerCount: 2
Fore
SplineSet
249 920 m 1,0,-1
 168 790 l 1,1,-1
 60 790 l 1,2,-1
 190 960 l 1,3,-1
 310 960 l 1,4,-1
 440 790 l 1,5,-1
 332 790 l 1,6,-1
 251 920 l 1,7,-1
 249 920 l 1,0,-1
260 668 m 0,8,9
 213 668 213 668 182.5 637.5 c 128,-1,10
 152 607 152 607 152 560 c 0,11,12
 152 510 152 510 174 477 c 128,-1,13
 196 444 196 444 245 422 c 0,14,15
 356 373 356 373 398 319.5 c 128,-1,16
 440 266 440 266 440 180 c 0,17,18
 440 86 440 86 388.5 38 c 128,-1,19
 337 -10 337 -10 240 -10 c 0,20,21
 149 -10 149 -10 75 45 c 1,22,-1
 75 140 l 1,23,24
 155 62 155 62 245 62 c 0,25,26
 358 62 358 62 358 180 c 0,27,28
 358 235 358 235 332 271 c 128,-1,29
 306 307 306 307 245 335 c 0,30,31
 151 377 151 377 110.5 430.5 c 128,-1,32
 70 484 70 484 70 560 c 0,33,34
 70 640 70 640 121 690 c 128,-1,35
 172 740 172 740 255 740 c 0,36,37
 308 740 308 740 342 732 c 128,-1,38
 376 724 376 724 420 700 c 1,39,-1
 420 610 l 1,40,41
 343 668 343 668 260 668 c 0,8,9
EndSplineSet
EndChar

StartChar: scircumflex
Encoding: 349 349 287
Width: 500
GlyphClass: 2
Flags: HW
LayerCount: 2
Fore
SplineSet
249 720 m 1,0,-1
 168 590 l 1,1,-1
 60 590 l 1,2,-1
 190 760 l 1,3,-1
 310 760 l 1,4,-1
 440 590 l 1,5,-1
 332 590 l 1,6,-1
 251 720 l 1,7,-1
 249 720 l 1,0,-1
255 463 m 0,8,9
 159 463 159 463 159 390 c 0,10,11
 159 356 159 356 180 335.5 c 128,-1,12
 201 315 201 315 255 300 c 0,13,14
 361 270 361 270 395.5 237 c 128,-1,15
 430 204 430 204 430 135 c 128,-1,16
 430 66 430 66 383 28 c 128,-1,17
 336 -10 336 -10 250 -10 c 128,-1,18
 164 -10 164 -10 85 30 c 1,19,-1
 85 110 l 1,20,21
 163 57 163 57 240 57 c 0,22,23
 351 57 351 57 351 135 c 0,24,25
 351 172 351 172 329.5 192 c 128,-1,26
 308 212 308 212 245 230 c 0,27,28
 153 256 153 256 116.5 292 c 128,-1,29
 80 328 80 328 80 390 c 0,30,31
 80 456 80 456 123.5 493 c 128,-1,32
 167 530 167 530 250 530 c 0,33,34
 334 530 334 530 410 495 c 1,35,-1
 410 420 l 1,36,37
 331 463 331 463 255 463 c 0,8,9
EndSplineSet
EndChar

StartChar: Scedilla
Encoding: 350 350 288
Width: 500
GlyphClass: 2
Flags: HW
LayerCount: 2
Fore
SplineSet
260 668 m 0,0,1
 213 668 213 668 182.5 637.5 c 128,-1,2
 152 607 152 607 152 560 c 0,3,4
 152 510 152 510 174 477 c 128,-1,5
 196 444 196 444 245 422 c 0,6,7
 356 373 356 373 398 319.5 c 128,-1,8
 440 266 440 266 440 180 c 0,9,10
 440 42 440 42 333 4 c 1,11,12
 368 -45 368 -45 368 -100 c 0,13,14
 368 -151 368 -151 332 -185.5 c 128,-1,15
 296 -220 296 -220 220 -220 c 0,16,17
 167 -220 167 -220 118 -201 c 1,18,-1
 118 -128 l 1,19,20
 160 -150 160 -150 210 -150 c 0,21,22
 247 -150 247 -150 268.5 -131 c 128,-1,23
 290 -112 290 -112 290 -80 c 0,24,25
 290 -41 290 -41 267 -9 c 1,26,27
 258 -10 258 -10 240 -10 c 0,28,29
 149 -10 149 -10 75 45 c 1,30,-1
 75 140 l 1,31,32
 155 62 155 62 245 62 c 0,33,34
 358 62 358 62 358 180 c 0,35,36
 358 235 358 235 332 271 c 128,-1,37
 306 307 306 307 245 335 c 0,38,39
 151 377 151 377 110.5 430.5 c 128,-1,40
 70 484 70 484 70 560 c 0,41,42
 70 640 70 640 121 690 c 128,-1,43
 172 740 172 740 255 740 c 0,44,45
 308 740 308 740 342 732 c 128,-1,46
 376 724 376 724 420 700 c 1,47,-1
 420 610 l 1,48,49
 343 668 343 668 260 668 c 0,0,1
EndSplineSet
EndChar

StartChar: scedilla
Encoding: 351 351 289
Width: 500
GlyphClass: 2
Flags: HW
LayerCount: 2
Fore
SplineSet
255 463 m 0,0,1
 159 463 159 463 159 390 c 0,2,3
 159 356 159 356 180 335.5 c 128,-1,4
 201 315 201 315 255 300 c 0,5,6
 361 270 361 270 395.5 237 c 128,-1,7
 430 204 430 204 430 135 c 0,8,9
 430 35 430 35 334 2 c 1,10,11
 368 -47 368 -47 368 -100 c 0,12,13
 368 -151 368 -151 332 -185.5 c 128,-1,14
 296 -220 296 -220 220 -220 c 0,15,16
 167 -220 167 -220 118 -201 c 1,17,-1
 118 -128 l 1,18,19
 160 -150 160 -150 210 -150 c 0,20,21
 247 -150 247 -150 268.5 -131 c 128,-1,22
 290 -112 290 -112 290 -80 c 0,23,24
 290 -42 290 -42 267 -10 c 1,25,-1
 250 -10 l 2,26,27
 164 -10 164 -10 85 30 c 1,28,-1
 85 110 l 1,29,30
 163 57 163 57 240 57 c 0,31,32
 351 57 351 57 351 135 c 0,33,34
 351 172 351 172 329.5 192 c 128,-1,35
 308 212 308 212 245 230 c 0,36,37
 153 256 153 256 116.5 292 c 128,-1,38
 80 328 80 328 80 390 c 0,39,40
 80 456 80 456 123.5 493 c 128,-1,41
 167 530 167 530 250 530 c 0,42,43
 334 530 334 530 410 495 c 1,44,-1
 410 420 l 1,45,46
 331 463 331 463 255 463 c 0,0,1
EndSplineSet
EndChar

StartChar: Scaron
Encoding: 352 352 290
Width: 500
GlyphClass: 2
Flags: HW
LayerCount: 2
Fore
SplineSet
249 830 m 1,0,-1
 251 830 l 1,1,-1
 332 960 l 1,2,-1
 440 960 l 1,3,-1
 310 790 l 1,4,-1
 190 790 l 1,5,-1
 60 960 l 1,6,-1
 168 960 l 1,7,-1
 249 830 l 1,0,-1
260 668 m 0,8,9
 213 668 213 668 182.5 637.5 c 128,-1,10
 152 607 152 607 152 560 c 0,11,12
 152 510 152 510 174 477 c 128,-1,13
 196 444 196 444 245 422 c 0,14,15
 356 373 356 373 398 319.5 c 128,-1,16
 440 266 440 266 440 180 c 0,17,18
 440 86 440 86 388.5 38 c 128,-1,19
 337 -10 337 -10 240 -10 c 0,20,21
 149 -10 149 -10 75 45 c 1,22,-1
 75 140 l 1,23,24
 155 62 155 62 245 62 c 0,25,26
 358 62 358 62 358 180 c 0,27,28
 358 235 358 235 332 271 c 128,-1,29
 306 307 306 307 245 335 c 0,30,31
 151 377 151 377 110.5 430.5 c 128,-1,32
 70 484 70 484 70 560 c 0,33,34
 70 640 70 640 121 690 c 128,-1,35
 172 740 172 740 255 740 c 0,36,37
 308 740 308 740 342 732 c 128,-1,38
 376 724 376 724 420 700 c 1,39,-1
 420 610 l 1,40,41
 343 668 343 668 260 668 c 0,8,9
EndSplineSet
EndChar

StartChar: scaron
Encoding: 353 353 291
Width: 500
GlyphClass: 2
Flags: HW
LayerCount: 2
Fore
SplineSet
249 630 m 1,0,-1
 251 630 l 1,1,-1
 332 760 l 1,2,-1
 440 760 l 1,3,-1
 310 590 l 1,4,-1
 190 590 l 1,5,-1
 60 760 l 1,6,-1
 168 760 l 1,7,-1
 249 630 l 1,0,-1
255 463 m 0,8,9
 159 463 159 463 159 390 c 0,10,11
 159 356 159 356 180 335.5 c 128,-1,12
 201 315 201 315 255 300 c 0,13,14
 361 270 361 270 395.5 237 c 128,-1,15
 430 204 430 204 430 135 c 128,-1,16
 430 66 430 66 383 28 c 128,-1,17
 336 -10 336 -10 250 -10 c 128,-1,18
 164 -10 164 -10 85 30 c 1,19,-1
 85 110 l 1,20,21
 163 57 163 57 240 57 c 0,22,23
 351 57 351 57 351 135 c 0,24,25
 351 172 351 172 329.5 192 c 128,-1,26
 308 212 308 212 245 230 c 0,27,28
 153 256 153 256 116.5 292 c 128,-1,29
 80 328 80 328 80 390 c 0,30,31
 80 456 80 456 123.5 493 c 128,-1,32
 167 530 167 530 250 530 c 0,33,34
 334 530 334 530 410 495 c 1,35,-1
 410 420 l 1,36,37
 331 463 331 463 255 463 c 0,8,9
EndSplineSet
EndChar

StartChar: Tcommaaccent
Encoding: 354 354 292
Width: 500
GlyphClass: 2
Flags: HW
LayerCount: 2
Fore
SplineSet
205 -220 m 0,0,1
 151 -220 151 -220 102 -201 c 1,2,-1
 102 -128 l 1,3,4
 144 -150 144 -150 195 -150 c 0,5,6
 232 -150 232 -150 253.5 -131 c 128,-1,7
 275 -112 275 -112 275 -80 c 0,8,9
 275 -58 275 -58 257.5 -36.5 c 128,-1,10
 240 -15 240 -15 209 0 c 1,11,-1
 209 660 l 1,12,-1
 55 660 l 1,13,-1
 55 730 l 1,14,-1
 445 730 l 1,15,-1
 445 660 l 1,16,-1
 291 660 l 1,17,-1
 291 14 l 1,18,19
 352 -38 352 -38 352 -100 c 0,20,21
 352 -151 352 -151 316.5 -185.5 c 128,-1,22
 281 -220 281 -220 205 -220 c 0,0,1
EndSplineSet
EndChar

